<?xml version="1.0" encoding="UTF-8"?><svg xmlns="http://www.w3.org/2000/svg" width="356.27" height="174.01" xmlns:xlink="http://www.w3.org/1999/xlink" viewBox="0 0 356.27 174.01"><defs><linearGradient id="_Безымянный_градиент_221" x1="-505.97" y1="149.26" x2="-506.82" y2="176.01" gradientTransform="translate(-171.8) rotate(-180) scale(1 -1)" gradientUnits="userSpaceOnUse"><stop offset="0" stop-color="#3b1d18"/><stop offset="1" stop-color="#33150f"/></linearGradient><linearGradient id="_Безымянный_градиент_221-2" x1="-267.13" y1="149.26" x2="-267.98" y2="176.01" xlink:href="#_Безымянный_градиент_221"/><linearGradient id="_Безымянный_градиент_221-3" x1="160.4" y1="147.08" x2="201.17" y2="60.02" gradientTransform="translate(-15.91)" xlink:href="#_Безымянный_градиент_221"/><linearGradient id="_Безымянный_градиент_221-4" x1="-419.39" y1="191.47" x2="-493.55" y2="23.63" gradientTransform="translate(-187.65) rotate(-180) scale(1 -1) skewX(-1.12)" xlink:href="#_Безымянный_градиент_221"/><linearGradient id="_Безымянный_градиент_220" x1="-488.91" y1="6.15" x2="-468.53" y2="185.26" gradientTransform="translate(-187.65) rotate(-180) scale(1 -1) skewX(-1.12)" gradientUnits="userSpaceOnUse"><stop offset="0" stop-color="#31130c"/><stop offset=".32" stop-color="#250e09"/><stop offset=".88" stop-color="#070201"/><stop offset="1" stop-color="#000"/></linearGradient><linearGradient id="_Безымянный_градиент_204" x1="-416.82" y1="67.38" x2="-417.64" y2="114.68" gradientTransform="translate(-187.65) rotate(-180) scale(1 -1) skewX(-1.12)" gradientUnits="userSpaceOnUse"><stop offset="0" stop-color="#daf8f5"/><stop offset=".11" stop-color="#bbd0cf"/><stop offset=".3" stop-color="#898d92"/><stop offset=".39" stop-color="#76747a"/><stop offset=".48" stop-color="#7a797f"/><stop offset=".59" stop-color="#86898e"/><stop offset=".72" stop-color="#9aa3a6"/><stop offset=".85" stop-color="#b5c8c8"/><stop offset="1" stop-color="#d9f6f3"/><stop offset="1" stop-color="#daf8f5"/></linearGradient><linearGradient id="_Безымянный_градиент_201" x1="-417.92" y1="70.85" x2="-417.74" y2="115.86" gradientTransform="translate(-187.65) rotate(-180) scale(1 -1) skewX(-1.12)" gradientUnits="userSpaceOnUse"><stop offset="0" stop-color="#b0b4bd"/><stop offset=".11" stop-color="#a5a9b1"/><stop offset=".31" stop-color="#898c93"/><stop offset=".56" stop-color="#5a5d61"/><stop offset=".87" stop-color="#1c1c1e"/><stop offset="1" stop-color="#000"/></linearGradient><linearGradient id="_Безымянный_градиент_221-5" x1="-288.07" y1="190.18" x2="-361.27" y2="24.52" gradientTransform="translate(-187.65) rotate(-180) scale(1 -1) skewX(-1.12)" xlink:href="#_Безымянный_градиент_221"/><linearGradient id="_Безымянный_градиент_220-2" x1="-357.77" y1="8.26" x2="-337.88" y2="183.07" xlink:href="#_Безымянный_градиент_220"/><linearGradient id="_Безымянный_градиент_204-2" x1="-394.65" y1="65.97" x2="-395.47" y2="113.27" xlink:href="#_Безымянный_градиент_204"/><linearGradient id="_Безымянный_градиент_201-2" x1="-395.75" y1="69.43" x2="-395.57" y2="114.45" xlink:href="#_Безымянный_градиент_201"/></defs><g style="isolation:isolate;"><g id="_Слой_2"><g id="_Слой_1-2"><polygon points="276.49 162.28 272.27 174.01 257.8 174.01 253.59 174.01 248.92 157.86 277.79 158.71 276.49 162.28" style="fill:#3b1d18; stroke-width:0px;"/><polygon points="38.95 158.71 37.65 162.28 33.44 174.01 18.96 174.01 14.75 174.01 10.08 157.86 38.95 158.71" style="fill:#3b1d18; stroke-width:0px;"/><polygon points="317.08 157.86 321.75 174.01 340.44 174.01 344.65 162.28 345.95 158.71 317.08 157.86" style="fill:#3b1d18; stroke-width:0px;"/><path d="m324.52,162.75l1.45,11.25h14.47l4.22-11.73c-4.02-.03-20.14.47-20.14.47Z" style="fill:url(#_Безымянный_градиент_221); stroke-width:0px;"/><polygon points="78.25 157.86 82.91 174.01 101.6 174.01 105.82 162.28 107.11 158.71 78.25 157.86" style="fill:#3b1d18; stroke-width:0px;"/><path d="m85.68,162.75l1.45,11.25h14.47l4.22-11.73c-4.02-.03-20.14.47-20.14.47Z" style="fill:url(#_Безымянный_градиент_221-2); stroke-width:0px;"/><polygon points="355.45 1.16 351.86 158.72 5.36 158.72 0 1.16 355.45 1.16" style="fill:url(#_Безымянный_градиент_221-3); stroke-width:0px;"/><polygon points="71.98 158.72 5.36 158.72 0 1.16 64.52 1.16 71.98 158.72" style="fill:#3b1d18; stroke-width:0px;"/><polygon points="340.58 147.24 338.86 155.24 213.42 152.65 213.37 12.6 216.91 11.22 340.58 147.24" style="fill:#cd9996; mix-blend-mode:multiply; stroke-width:0px;"/><polygon points="221.42 10.72 224.67 149.11 265.36 149.28 294.35 149.39 343.58 149.58 346.75 8.37 330.41 8.67 271.76 9.78 221.42 10.72" style="fill:url(#_Безымянный_градиент_221-4); stroke-width:0px;"/><polygon points="265.36 149.28 294.35 149.39 330.41 8.67 271.76 9.78 265.36 149.28" style="fill:url(#_Безымянный_градиент_220); mix-blend-mode:screen; stroke-width:0px;"/><polygon points="221.4 10.72 224.65 149.12 218.6 149.12 216.91 11.22 221.4 10.72" style="fill:#3b1d18; stroke-width:0px;"/><path d="m240.17,136.27l-2.97-109.78-.02-.69,91.21-1.08-5.54,111.25-.03.65-82.66-.36Zm-1.37-109.1l2.91,107.72,79.6.35,5.43-109.11-87.94,1.04Z" style="fill:#895f50; stroke-width:0px;"/><path d="m240.96,135.57l-2.97-109.78-.02-.69,91.21-1.08-5.54,111.25-.03.65-82.66-.36Zm-1.37-109.1l2.91,107.73,79.6.35,5.43-109.11-87.94,1.04Z" style="fill:#3b1d18; stroke-width:0px;"/><polygon points="343.59 149.59 343.83 114.27 344.63 78.97 346.2 8.35 346.75 8.9 284.08 10.08 252.75 10.64 221.4 10.72 252.73 9.63 284.06 9 346.73 7.83 347.29 7.82 347.28 8.38 345.7 78.99 344.92 114.3 343.59 149.59" style="fill:#895f50; stroke-width:0px;"/><polygon points="226.39 75.3 227.72 110.95 231.73 110.95 231.67 75.3 226.39 75.3" style="fill:#3b1d18; stroke-width:0px;"/><polygon points="228.11 74.51 229.44 110.16 233.46 110.16 233.39 74.51 228.11 74.51" style="fill:url(#_Безымянный_градиент_204); stroke-width:0px;"/><path d="m228.11,74.51l1.33,35.65h1.43c-.24-6.44-.97-27.66-1.24-35.65h-1.52Z" style="fill:#443250; stroke-width:0px;"/><polygon points="232.86 75.04 232.86 107.43 231.67 107.43 230.58 75.3 232.86 75.04" style="fill:url(#_Безымянный_градиент_201); mix-blend-mode:screen; stroke-width:0px;"/><polygon points="212.77 145.82 210.97 153.83 80.2 151.24 79.03 9.04 82.72 7.66 212.77 145.82" style="fill:#cd9996; mix-blend-mode:multiply; stroke-width:0px;"/><polygon points="87.42 7.16 91.93 147.7 134.35 147.87 164.57 147.98 215.89 148.17 216.31 10.49 199.27 10.79 141.01 8.6 87.42 7.16" style="fill:url(#_Безымянный_градиент_221-5); stroke-width:0px;"/><polygon points="134.35 147.87 164.57 147.98 199.27 10.79 141.01 8.6 134.35 147.87" style="fill:url(#_Безымянный_градиент_220-2); mix-blend-mode:screen; stroke-width:0px;"/><polygon points="87.41 7.16 91.91 147.71 85.6 147.71 82.72 7.66 87.41 7.16" style="fill:#3b1d18; stroke-width:0px;"/><path d="m108.1,134.86l-3-109.78-.02-.69,95.09-1.08-5.87,111.25-.04.65-86.17-.36Zm-1.33-109.1l2.94,107.72,82.98.35,5.76-109.11-91.68,1.04Z" style="fill:#895f50; stroke-width:0px;"/><path d="m108.92,134.16l-3-109.78-.02-.69,95.09-1.08-5.87,111.25-.04.65-86.17-.36Zm-1.33-109.1l2.94,107.72,82.98.35,5.76-109.11-91.68,1.04Z" style="fill:#3b1d18; stroke-width:0px;"/><path d="m215.91,148.18c-.14-11.47-.41-22.95-.45-34.42l.1-34.42.19-68.85.52.54-64.44-1.66c-10.74-.32-21.48-.47-32.22-.9l-32.21-1.3,32.23.36c10.74.12,21.48.53,32.22.76l64.44,1.66h.53s0,.54,0,.54l-.19,68.85-.09,34.42c-.1,11.47-.44,22.95-.64,34.42Z" style="fill:#895f50; stroke-width:0px;"/><polygon points="204.19 73.89 205.52 109.54 209.54 109.54 209.47 73.89 204.19 73.89" style="fill:#3b1d18; stroke-width:0px;"/><polygon points="205.91 73.1 207.24 108.74 211.26 108.74 211.19 73.1 205.91 73.1" style="fill:url(#_Безымянный_градиент_204-2); stroke-width:0px;"/><path d="m205.91,73.1l1.33,35.65h1.43c-.24-6.44-.97-27.66-1.24-35.65h-1.52Z" style="fill:#443250; stroke-width:0px;"/><polygon points="210.67 73.62 210.66 106.02 209.47 106.02 208.38 73.89 210.67 73.62" style="fill:url(#_Безымянный_градиент_201-2); mix-blend-mode:screen; stroke-width:0px;"/><polygon points="351.86 158.72 352.22 119.32 352.41 99.62 352.84 79.92 354.64 1.14 355.45 1.97 190.78 1.75 108.44 1.64 87.86 1.62 67.28 1.33 26.11 .73 67.28 .24 87.86 0 108.45 .03 190.78 .14 355.45 .35 356.27 .35 356.26 1.18 354.46 79.96 354 99.66 353.28 119.34 351.86 158.72" style="fill:#895f50; stroke-width:0px;"/></g></g></g></svg>