<?xml version="1.0" encoding="UTF-8"?><svg xmlns="http://www.w3.org/2000/svg" width="63.74" height="114.97" xmlns:xlink="http://www.w3.org/1999/xlink" viewBox="0 0 63.74 114.97"><defs><linearGradient id="_Безымянный_градиент_304" x1="2033.32" y1="52.73" x2="2041.52" y2="36.88" gradientTransform="translate(2056.97 48.19) rotate(-178.64) scale(1 -1)" gradientUnits="userSpaceOnUse"><stop offset="0" stop-color="#6d6518"/><stop offset="1" stop-color="#80821f"/></linearGradient><linearGradient id="_Безымянный_градиент_304-2" x1="2038.48" y1="43.35" x2="2033" y2="56.98" xlink:href="#_Безымянный_градиент_304"/><linearGradient id="_Безымянный_градиент_322" x1="2016.78" y1="60.24" x2="2030.47" y2="10.54" gradientTransform="translate(2056.97 48.19) rotate(-178.64) scale(1 -1)" gradientUnits="userSpaceOnUse"><stop offset="0" stop-color="#80711b"/><stop offset="1" stop-color="#aca627"/></linearGradient><linearGradient id="_Безымянный_градиент_304-3" x1="2008.62" y1="74.64" x2="2024.06" y2="34.08" xlink:href="#_Безымянный_градиент_304"/><linearGradient id="linear-gradient" x1="2013.49" y1="69.93" x2="2019.88" y2="2.12" gradientTransform="translate(2056.97 48.19) rotate(-178.64) scale(1 -1)" gradientUnits="userSpaceOnUse"><stop offset="0" stop-color="#6d6518"/><stop offset="1" stop-color="#80821f"/></linearGradient><linearGradient id="linear-gradient-2" x1="2028.23" y1="47.58" x2="2022.41" y2="79.01" gradientTransform="translate(2056.97 48.19) rotate(-178.64) scale(1 -1)" gradientUnits="userSpaceOnUse"><stop offset="0" stop-color="#422b2a"/><stop offset="1" stop-color="#764738"/></linearGradient><linearGradient id="_Безымянный_градиент_27" x1="32.22" y1="114.11" x2="32.22" y2="62.66" gradientTransform="translate(1.4 -.56) rotate(1.36)" gradientUnits="userSpaceOnUse"><stop offset="0" stop-color="#c3b3dd"/><stop offset="1" stop-color="#e8e6ee"/></linearGradient><linearGradient id="_Безымянный_градиент_30" x1="33.37" y1="92.11" x2="36.76" y2="118.42" gradientTransform="translate(1.4 -.56) rotate(1.36)" gradientUnits="userSpaceOnUse"><stop offset="0" stop-color="#740042"/><stop offset="1" stop-color="#fdfafa"/></linearGradient><linearGradient id="linear-gradient-3" x1="51.33" y1="24.2" x2="44.55" y2="5.31" gradientTransform="translate(1.4 -.56) rotate(1.36)" gradientUnits="userSpaceOnUse"><stop offset="0" stop-color="#d3a038"/><stop offset="1" stop-color="#dcc13d"/></linearGradient></defs><g style="isolation:isolate;"><g id="_Слой_2"><g id="_Слой_1-2"><path d="m14.36,36.66c.82-1.04,5.02-2.32,5.97-.39l1.75,10.22s-4.03,2.45-7.15-.17c-3.12-2.62-1.39-8.62-.57-9.66Z" style="fill:url(#_Безымянный_градиент_304); stroke-width:0px;"/><path d="m14.9,44.26c2.43-.31,3.99-4.32,3.49-8.97.86.03,1.61.3,1.94.98l1.75,10.22s-4.03,2.45-7.15-.17c-.75-.63-1.21-1.46-1.48-2.36.47.23.96.36,1.46.3Z" style="fill:url(#_Безымянный_градиент_304-2); stroke-width:0px;"/><path d="m19.89,21.21c.2-.66.71-1.61,1.39-2.63.85-3.73,3.8-5.79,5.58-6.32,1.09-.33,5.6-1.4,7.45-.13.83-.07,1.47-.11,2.33-.13,2.38-.96,5.88-.77,7.66.89.9.33,1.66.77,2.19,1.33,3.68,3.9-1.26,44.72-1.26,44.72l-26.53-4.45s.54-31.16,1.19-33.27Z" style="fill:url(#_Безымянный_градиент_322); stroke-width:0px;"/><path d="m22.33,49.47c4.73,1.67,15.18-3.17,16.26-9.37.7-4.02-3.75-18.72-6.97-28.58,1.05,0,2.04.15,2.69.6.83-.07,1.47-.11,2.33-.13,2.38-.96,5.88-.77,7.66.89.9.33,1.66.77,2.19,1.33,3.68,3.9-1.26,44.72-1.26,44.72l-26.53-4.45s.05-2.81.13-6.78c1.25.77,2.46,1.41,3.5,1.78Z" style="fill:url(#_Безымянный_градиент_304-3); stroke-width:0px;"/><path d="m45.74,34.83c.65,1.92-2.03,21.3-2.03,21.3l-8.39-2.32s9.77-20.9,10.42-18.98Z" style="fill:url(#linear-gradient); stroke-width:0px;"/><path d="m20.17,51.54c5.6-1.28,27.19,4.6,29.81,5.8,2.62,1.19,7.64,13.19,7.64,13.19l-52.35-5.2s9.31-12.5,14.9-13.78Z" style="fill:url(#linear-gradient-2); stroke-width:0px;"/><path d="m2.35,113.6l57.47,1.36c2.49-16.3,4.76-33.65,3.6-51.09L.4,62.1c-1,15.08-.02,32.66,1.96,51.51Z" style="fill:url(#_Безымянный_градиент_27); fill-rule:evenodd; stroke-width:0px;"/><path d="m21.29,108.54c-7.24-.17-16.33-4.2-20.31-10.2.37,4.98.83,10.07,1.38,15.27l57.47,1.36c1.77-11.6,3.41-23.74,3.8-36.06-8.87,15.17-24.53,30.06-42.34,29.64Z" style="fill:url(#_Безымянный_градиент_30); fill-rule:evenodd; mix-blend-mode:multiply; opacity:.2; stroke-width:0px;"/><path d="m57.48,31.98c1.58-2.53-1.52-8.03-1.52-8.03,0,0,2.85-.44,2.91-2.86s-4.82-12.76-5.65-13.49c-.84-.73-2.57.45-2.57.45,0,0-1.72-3.38-2.92-4.72-1.2-1.34-5.62-2.97-6.57-2.69-.95.28-.81,2.21-.81,2.21,0,0-2.68-2.67-3.92-2.82-2.51-.31-4.54,5.57-4.64,6.83-.24,2.97,5.12,4.71,5.12,4.71,0,0-3.28-.23-3.51,1.49-.23,1.71,5.27,11.31,8.57,11.55.74.05,1.87-1.44,1.87-1.44,0,0-.64,7.17.37,8.51,1.01,1.34,12.08,2.21,13.27.31Z" style="fill:#f5efbb; stroke-width:0px;"/><path d="m58.87,21.08c.06-2.43-4.82-12.76-5.65-13.49-.84-.73-2.57.45-2.57.45,0,0-1.72-3.38-2.92-4.72-.19-.22-.49-.44-.82-.66,1.72,2.53,4.02,6.11,3.44,6.23-.9.19-7.03-.91-7.03-.91l3.7,7.62s-4.72,6.46-5.72,6.44c-.62-.01-3.34-1.55-6.33-4.97,1.83,3.32,4.87,7.37,7.01,7.53.74.05,1.87-1.44,1.87-1.44,0,0-.64,7.17.37,8.51,1.01,1.34,12.08,2.21,13.27.31,1.58-2.53-1.52-8.03-1.52-8.03,0,0,2.86-.44,2.91-2.86Z" style="fill:#e5dca4; stroke-width:0px;"/><path d="m58.44,22.47c-3.64-1.62-6.18-3.86-8.31-6.33,0,0,3.31,4.49,6.47,9.09-.35-.77-.64-1.29-.64-1.29,0,0,1.67-.27,2.48-1.47Z" style="fill:#d2c890; stroke-width:0px;"/><path d="m43.44,23.63c.24-.26.4-.47.4-.47,0,0-.37,4.07-.11,6.65l4.78-14.49c-1.89,4.2-2.36,4.47-5.07,8.32Z" style="fill:#d2c890; stroke-width:0px;"/><path d="m41.15.63c-.95.28-.81,2.21-.81,2.21,0,0-.82-.81-1.75-1.56,3.4,3.56,5.64,8.77,5.64,8.77,0,0-3.45-8-1.85-9.31-.55-.13-.99-.17-1.22-.11Z" style="fill:#e5dca4; stroke-width:0px;"/><path d="m32.72,9.09c1.29,1.38,3.5,2.22,4.05,2.42,3.66-.04,7.98.8,7.98.8l-12.04-3.22Z" style="fill:#e5dca4; stroke-width:0px;"/><path d="m50.58,10.34c2.9,3.97,1.62,8.67,1.62,8.67,0,0-5.31-2.35-6.94-4.83-1.63-2.48-2.24-6.31-2.24-6.31,0,0,5.82.1,7.55,2.47Z" style="fill:url(#linear-gradient-3); stroke-width:0px;"/></g></g></g></svg>