<?xml version="1.0" encoding="UTF-8"?>
<svg xmlns="http://www.w3.org/2000/svg" xmlns:xlink="http://www.w3.org/1999/xlink" viewBox="0 0 393.65 402.45">
  <defs>
    <style>
      .cls-1 {
        fill: #714c50;
      }

      .cls-2 {
        fill: url(#_Безымянный_градиент);
      }

      .cls-3 {
        fill: url(#_Безымянный_градиент_8);
      }

      .cls-3, .cls-4, .cls-5, .cls-6, .cls-7, .cls-8, .cls-9, .cls-10, .cls-11 {
        isolation: isolate;
      }

      .cls-3, .cls-5, .cls-6, .cls-7, .cls-8, .cls-9, .cls-10, .cls-11 {
        opacity: .5;
      }

      .cls-12 {
        fill: url(#_Безымянный_градиент_17);
      }

      .cls-13 {
        filter: url(#drop-shadow-1);
      }

      .cls-4 {
        fill: url(#_Безымянный_градиент_14);
        opacity: .3;
      }

      .cls-14 {
        fill: #ad9470;
      }

      .cls-15 {
        fill: url(#_Безымянный_градиент_2);
      }

      .cls-5 {
        fill: url(#_Безымянный_градиент_6);
      }

      .cls-16 {
        fill: #c48d43;
      }

      .cls-17 {
        fill: url(#_Безымянный_градиент_15);
      }

      .cls-6 {
        fill: url(#_Безымянный_градиент_7);
      }

      .cls-7 {
        fill: url(#_Безымянный_градиент_10);
      }

      .cls-18 {
        filter: url(#drop-shadow-2);
      }

      .cls-19 {
        fill: url(#_Безымянный_градиент_55);
      }

      .cls-20 {
        fill: url(#_Безымянный_градиент_65);
      }

      .cls-8 {
        fill: url(#_Безымянный_градиент_4);
      }

      .cls-21 {
        fill: #353535;
      }

      .cls-9 {
        fill: url(#_Безымянный_градиент_9);
      }

      .cls-22 {
        fill: #757575;
      }

      .cls-10 {
        fill: url(#_Безымянный_градиент_11);
      }

      .cls-23 {
        fill: url(#_Безымянный_градиент_12);
      }

      .cls-24 {
        fill: #545454;
      }

      .cls-25 {
        fill: url(#_Безымянный_градиент_5);
      }

      .cls-26 {
        fill: url(#_Безымянный_градиент_3);
      }

      .cls-11 {
        fill: url(#_Безымянный_градиент_13);
      }

      .cls-27 {
        fill: none;
        stroke: #b77423;
        stroke-miterlimit: 10;
      }

      .cls-28 {
        fill: url(#_Безымянный_градиент_16);
      }

      .cls-29 {
        fill: #b77423;
      }

      .cls-30 {
        fill: #666;
      }
    </style>
    <linearGradient id="_Безымянный_градиент" data-name="Безымянный градиент" x1="992.14" y1="22.63" x2="992.14" y2="177.52" gradientTransform="translate(-622.07 448.86) rotate(-2.56) scale(1 -1)" gradientUnits="userSpaceOnUse">
      <stop offset="0" stop-color="#1f2b4b"/>
      <stop offset=".99" stop-color="#191127"/>
    </linearGradient>
    <linearGradient id="_Безымянный_градиент_2" data-name="Безымянный градиент 2" x1="708.7" y1="189.44" x2="1001.41" y2="189.44" gradientTransform="translate(-622.07 448.86) rotate(-2.56) scale(1 -1)" gradientUnits="userSpaceOnUse">
      <stop offset="0" stop-color="#191127"/>
      <stop offset="1" stop-color="#1f2b4b"/>
    </linearGradient>
    <linearGradient id="_Безымянный_градиент_3" data-name="Безымянный градиент 3" x1="850.15" y1="187" x2="850.15" y2="399.53" gradientTransform="translate(-622.07 448.86) rotate(-2.56) scale(1 -1)" gradientUnits="userSpaceOnUse">
      <stop offset="0" stop-color="#302a3e"/>
      <stop offset="1" stop-color="#606a80"/>
    </linearGradient>
    <linearGradient id="_Безымянный_градиент_4" data-name="Безымянный градиент 4" x1="784.3" y1="202.31" x2="784.3" y2="343.03" gradientTransform="translate(-622.07 448.86) rotate(-2.56) scale(1 -1)" gradientUnits="userSpaceOnUse">
      <stop offset="0" stop-color="#524765"/>
      <stop offset="1" stop-color="#f6f6fa"/>
    </linearGradient>
    <linearGradient id="_Безымянный_градиент_5" data-name="Безымянный градиент 5" x1="693.56" y1="289.67" x2="1001.42" y2="289.67" gradientTransform="translate(-622.07 448.86) rotate(-2.56) scale(1 -1)" gradientUnits="userSpaceOnUse">
      <stop offset="0" stop-color="#302a3e"/>
      <stop offset="1" stop-color="#606a80"/>
    </linearGradient>
    <linearGradient id="_Безымянный_градиент_6" data-name="Безымянный градиент 6" x1="705.9" y1="340.88" x2="852.63" y2="340.88" gradientTransform="translate(-622.07 448.86) rotate(-2.56) scale(1 -1)" gradientUnits="userSpaceOnUse">
      <stop offset="0" stop-color="#000024"/>
      <stop offset="1" stop-color="#aeaab6"/>
    </linearGradient>
    <linearGradient id="_Безымянный_градиент_7" data-name="Безымянный градиент 7" x1="860.84" y1="186.36" x2="860.84" y2="211.67" gradientTransform="translate(-622.07 448.86) rotate(-2.56) scale(1 -1)" gradientUnits="userSpaceOnUse">
      <stop offset="0" stop-color="#41271b"/>
      <stop offset="1" stop-color="#3d2419"/>
    </linearGradient>
    <linearGradient id="_Безымянный_градиент_8" data-name="Безымянный градиент 8" x1="770.05" y1="379.31" x2="770.05" y2="379.51" gradientTransform="translate(-622.07 448.86) rotate(-2.56) scale(1 -1)" gradientUnits="userSpaceOnUse">
      <stop offset="0" stop-color="#c58f8d"/>
      <stop offset="1" stop-color="#a46f80"/>
    </linearGradient>
    <linearGradient id="_Безымянный_градиент_9" data-name="Безымянный градиент 9" x1="782.52" y1="224.65" x2="782.52" y2="378.55" gradientTransform="translate(-622.07 448.86) rotate(-2.56) scale(1 -1)" gradientUnits="userSpaceOnUse">
      <stop offset="0" stop-color="#442b1b"/>
      <stop offset="1" stop-color="#442b1b"/>
    </linearGradient>
    <linearGradient id="_Безымянный_градиент_10" data-name="Безымянный градиент 10" x1="810.65" y1="272.92" x2="810.65" y2="375.88" gradientTransform="translate(-622.07 448.86) rotate(-2.56) scale(1 -1)" gradientUnits="userSpaceOnUse">
      <stop offset="0" stop-color="#3c2318"/>
      <stop offset="1" stop-color="#442b1b"/>
    </linearGradient>
    <linearGradient id="_Безымянный_градиент_11" data-name="Безымянный градиент 11" x1="736.5" y1="256.41" x2="736.5" y2="367.59" gradientTransform="translate(-622.07 448.86) rotate(-2.56) scale(1 -1)" gradientUnits="userSpaceOnUse">
      <stop offset="0" stop-color="#3c2318"/>
      <stop offset="1" stop-color="#442b1b"/>
    </linearGradient>
    <linearGradient id="_Безымянный_градиент_12" data-name="Безымянный градиент 12" x1="784.15" y1="224.7" x2="784.15" y2="241.72" gradientTransform="translate(-622.07 448.86) rotate(-2.56) scale(1 -1)" gradientUnits="userSpaceOnUse">
      <stop offset="0" stop-color="#442b1b"/>
      <stop offset="1" stop-color="#442b1b"/>
    </linearGradient>
    <linearGradient id="_Безымянный_градиент_13" data-name="Безымянный градиент 13" x1="824.85" y1="254.78" x2="824.85" y2="366.89" gradientTransform="translate(-622.07 448.86) rotate(-2.56) scale(1 -1)" gradientUnits="userSpaceOnUse">
      <stop offset="0" stop-color="#3c2318"/>
      <stop offset="1" stop-color="#442b1b"/>
    </linearGradient>
    <linearGradient id="_Безымянный_градиент_14" data-name="Безымянный градиент 14" x1="790.52" y1="227.72" x2="790.52" y2="317.13" gradientTransform="translate(-622.07 448.86) rotate(-2.56) scale(1 -1)" gradientUnits="userSpaceOnUse">
      <stop offset="0" stop-color="#442b1b"/>
      <stop offset="1" stop-color="#fff"/>
    </linearGradient>
    <linearGradient id="_Безымянный_градиент_15" data-name="Безымянный градиент 15" x1="905.78" y1="14.27" x2="905.78" y2="166.86" gradientTransform="translate(-622.07 448.86) rotate(-2.56) scale(1 -1)" gradientUnits="userSpaceOnUse">
      <stop offset="0" stop-color="#4e5972"/>
      <stop offset=".99" stop-color="#302a3e"/>
    </linearGradient>
    <linearGradient id="_Безымянный_градиент_16" data-name="Безымянный градиент 16" x1="716.58" y1="15.95" x2="716.58" y2="187.36" gradientTransform="translate(-622.07 448.86) rotate(-2.56) scale(1 -1)" gradientUnits="userSpaceOnUse">
      <stop offset="0" stop-color="#4e5972"/>
      <stop offset=".99" stop-color="#302a3e"/>
    </linearGradient>
    <linearGradient id="_Безымянный_градиент_17" data-name="Безымянный градиент 17" x1="809.43" y1="17.47" x2="809.43" y2="169.23" gradientTransform="translate(-622.07 448.86) rotate(-2.56) scale(1 -1)" gradientUnits="userSpaceOnUse">
      <stop offset="0" stop-color="#1f2b4b"/>
      <stop offset=".99" stop-color="#191127"/>
    </linearGradient>
    <linearGradient id="_Безымянный_градиент_55" data-name="Безымянный градиент 55" x1="157.1" y1="129.38" x2="266.22" y2="92.9" gradientUnits="userSpaceOnUse">
      <stop offset=".31" stop-color="#666"/>
      <stop offset=".48" stop-color="#757575"/>
    </linearGradient>
    <radialGradient id="_Безымянный_градиент_65" data-name="Безымянный градиент 65" cx="126.96" cy="86.74" fx="126.96" fy="-59.24" r="145.98" gradientUnits="userSpaceOnUse">
      <stop offset=".06" stop-color="#969696"/>
      <stop offset=".87" stop-color="#757575"/>
    </radialGradient>
    <filter id="drop-shadow-1" filterUnits="userSpaceOnUse">
      <feOffset dx="-1" dy="1"/>
      <feGaussianBlur result="blur" stdDeviation="0"/>
      <feFlood flood-color="#727272" flood-opacity=".5"/>
      <feComposite in2="blur" operator="in"/>
      <feComposite in="SourceGraphic"/>
    </filter>
    <filter id="drop-shadow-2" filterUnits="userSpaceOnUse">
      <feOffset dx="-1" dy="1"/>
      <feGaussianBlur result="blur-2" stdDeviation="0"/>
      <feFlood flood-color="#727272" flood-opacity=".5"/>
      <feComposite in2="blur-2" operator="in"/>
      <feComposite in="SourceGraphic"/>
    </filter>
  </defs>
  <g id="_Слой_1" data-name="Слой 1">
    <g>
      <path class="cls-21" d="m99.36,28.69l18.51-22.64,7.83-3.4,9.45,2.72,8.11,8.43s5.03,7.4,5.06,8,2.32,10.38,2.32,10.38l79.12,153.01,37.86,13.09v114.84c0,20.26,2,16.17-40.95,13.47-5.56-.35-11.14.26-16.65,1.11l-38.97,6.08c-4.79.75-9.51,1.86-14.12,3.34l-25.55,8.19c-6.32,2.03-12.77,3.65-19.29,4.87l-27.81,4.51-42.05-102.34,16.64-73.53L99.36,28.69Z"/>
      <g id="_Слой_2" data-name=" Слой 2">
        <g id="_Слой_1-2" data-name=" Слой 1-2">
          <path class="cls-2" d="m335.65,230l49.76,151.16,8.24-.37-50.66-151.76s-1.32-2.6-7.34.97h0Z"/>
          <path class="cls-15" d="m76.28,201.15s32.24,44.67,155.08,45.95c126.19,1.32,138.28-37.72,138.28-37.72,0,0-274-.78-293.37-8.23h0Z"/>
          <path class="cls-26" d="m209.1,222.08c-112.35-.73-135.54-6.83-141.98-42.68,0,0-10.2-62.33.46-110.04,6.21-27.77,19.49-50.58,45.98-53.25,43.22-4.35,78.99,59.52,103.55,112.7.38.8.7,1.5.99,2.14.02.06.05.12.09.17,15.39,33.61,26.25,62.43,31.59,66.18,13.85,9.73,109.28,3.84,119.88,12.07,5.99,4.66-40.57,13.47-160.56,12.69v.02Z"/>
          <path class="cls-8" d="m229.1,198.34s-75.79-132.36-122.1-125.32-39.74,123.37-17.28,136.34c22.47,12.96,139.38-11.02,139.38-11.02h0Z"/>
          <path class="cls-14" d="m358.66,214.67s-1.99.33-5.72.85h-.06c-25.98,3.69-135.69,16.83-252.02-3.91,0,0,29.43-6.28,77.32-10.35h.02c18.7-1.59,40.19-2.85,63.86-3.25,9.06-.17,17.52-.09,25.39.16.1.02.18,0,.29.03.61.03,1.29.06,1.98.07h.45c8.55.31,16.4.84,23.57,1.53,39.09,3.7,58.52,11.79,63.55,14.17.92.46,1.36.69,1.36.69h.01Z"/>
          <path class="cls-25" d="m369.65,209.38s-41.8,14.83-149.17,13.49c-107.37-1.34-123.64-11.44-142.21-32.55-18.57-21.11-13.36-173.63,35.29-174.2,0,0-45.56-.38-52.22,81.75-6.87,84.6-2.62,107.1,53.26,122.39,55.89,15.29,214.51,13.83,255.05-10.87h0Z"/>
          <path class="cls-5" d="m217.1,128.82c-11.9-24.25-59.68-119.46-106.58-103.93-37.42,12.39-40.69,78.47-40.69,78.47l-2.25-33.99c6.21-27.78,19.49-50.59,45.98-53.26,43.22-4.35,78.99,59.52,103.55,112.7h0Z"/>
          <path class="cls-6" d="m357.3,213.98l-4.36,1.55h-.06c-25.98,3.69-135.69,16.83-252.02-3.91,0,0,29.43-6.28,77.32-10.35-1.01.14-37.13,5.31-38.49,9.35-1.35,4.07,59.52,12.92,117.66,9.31,58.12-3.59,65.05-13.47,60.35-14.89-3.17-.95-10.8-3.55-23.96-5.23,39.09,3.7,58.52,11.79,63.55,14.17h.01Z"/>
          <path class="cls-3" d="m131.73,35.31c-.98.04-1.93.17-2.91.33,1.19-.23,2.17-.3,2.91-.33Z"/>
          <path class="cls-1" d="m216.28,171.77c-17.93,18.74-124.79,28.92-133.15-.06-7.37-25.62-2.25-121.68,41.46-134.77,2.18-.65,4.39-.97,6.63-.99,44.64-.42,102.11,117.97,85.05,135.82h0Z"/>
          <path class="cls-9" d="m216.28,171.77c-17.13,17.91-115.46,28-131.44,3.58,0-.02-.02-.02-.02-.02-.77-1.14-1.33-2.34-1.69-3.62-7.37-25.62-2.25-121.68,41.46-134.77.65-.19,1.27-.35,1.92-.48-6.52,1.64-18.26,8.64-28.76,39.59-14.01,41.2-13.85,85.94-2.88,102.02.44.66,1.02,1.27,1.72,1.85h.02c16.42,13.71,99.28,7.57,119.68-8.14h0Z"/>
          <path class="cls-7" d="m143.08,38.4s8.02,4.22,12.49,60.31c0,0,18.78,13.62,34.21,40.66,0,0,9.57-11.2,12.29-32.63,0,0-26.67-54.95-58.98-68.33h0Z"/>
          <path class="cls-10" d="m88.59,160.42s-1.79-63.25,22.75-112.31c0,0-30.25,41.14-22.75,112.31Z"/>
          <path class="cls-23" d="m216.28,171.77c-17.13,17.91-115.46,28-131.44,3.58.71.46,6.5,4.24,11.74,4.56h.02c16.42,13.71,99.28,7.57,119.68-8.14Z"/>
          <path class="cls-11" d="m156.99,46.77s48.12,56.36,62.18,109.44c0,0-11.38-66.81-62.18-109.44Z"/>
          <path class="cls-4" d="m113.02,184.95s-.28-69.79,29.33-85.65c29.6-15.86,54.45,48.9,59.22,78.63,0,0-48.37,13.68-88.54,7.02h-.01Z"/>
          <path class="cls-17" d="m261.12,243.28l25.3,150.68,10.04-.45-27.07-147.36s-2.24-6.44-8.27-2.87h0Z"/>
          <polygon class="cls-28" points="117.92 228.23 49.3 402.37 58.76 402.45 129.38 231.9 117.92 228.23"/>
          <polygon class="cls-12" points="194.4 242.96 158.01 396.5 165.75 396.15 206.87 244.77 194.4 242.96"/>
        </g>
      </g>
    </g>
  </g>
  <g id="_Слой_2-2" data-name="Слой 2">
    <g>
      <path class="cls-19" d="m267.62,198.27c-2.68-.18-6.48-.09-9.05.46-5.11,1.07,3.9-.81-17.89-.81-12.54,0-24.7-4.35-34.41-12.3l-20.74-17.02-9.05-67.44-23.92-76.1s1.76,3.39,12.25,8.17c2.24,1.02,4.87,2.1,7.96,3.23,16,5.82,29.23,8.86,31.52,9.37.23.05.35.08.35.08,0,0,6.12-1.42,7.38,4.61,1.27,6.03,7.67,29.07,11.12,43.36,7.3,30.25,6.74,47.96,13.72,65.15,2.45,6.05,5.84,12.04,10.84,18.49h0c3.27,4.23,7.23,8.65,12.07,13.42,1.52,1.5,3.14,3.04,4.85,4.61.97.9,1.96,1.8,2.99,2.72Z"/>
      <path class="cls-22" d="m65.42,91.9l-5.82,63.59-13.84,24.76-8.68,78.39-5.34,53.13-.02.23s-.15,0-.42,0c-1.4-.04-6.07.08-11.12,2.78-1.77.94-3.58,2.19-5.31,3.87-7.66,7.41-7.66-2.81-7.66-2.81,0,0-4.09-14.8-6.64-25.53-2.55-10.72,4.34-43.15,4.34-43.15l6.64-73.02s9.32-52.98,13.15-65.92,10.98-48.59,13.28-55.86c2.29-7.28,8.04-11.24,10.08-12.9,1.63-1.33,3.18,2.23,3.74,3.72.14.38.22.62.22.62l13.4,48.11Z"/>
      <path class="cls-30" d="m76.94,87.66l-5.82,63.58-13.84,24.76-8.68,78.4-5.37,53.36s-3.8.28-11.49,4.01c-.14.07-.29.14-.44.22-1.4-.04-6.07.08-11.12,2.78-2.42-.82-3.16-2.85-3.16-2.85,0,0,4.77-15.4,2.22-26.13-2.56-10.72.17-42.83.17-42.83l1.7-82.54s19.29-34.33,23.12-47.27c3.83-12.94,2.96-57.77,5.26-65.05.59-1.85,1.39-3.49,2.31-4.93,2.67-4.21,6.25-6.72,7.78-7.96,2.04-1.66,3.95,4.34,3.95,4.34l13.41,48.11Z"/>
      <path class="cls-22" d="m115.34,191.7l-8.55,28.22s-.01.03-.04.1l-.99,3.28s-10.21,26.92-12.25,44.03c-.51,4.24-.91,11.26-1.25,19.51-1.04,25.05-1.54,61.41-2.69,65.25-1.53,5.1-23.64,2.05-30.49,2.05s-22-6.13-22.76-6.64c-.77-.51-11.75-13.79-9.96-19.92,1.79-6.12-.6-50.21-.77-53.27-.17-3.07,1.03-30.47,1.03-30.47,0,0-1.71-8.34-.87-12.93.06-.37.15-.71.25-1.02.1-.32.22-.61.36-.86,1.21-2.12,1.43-6.39,1.42-9.52-.01-2.15-.14-3.76-.14-3.76,0,0-.08-.95-.21-2.57-.72-8.69-3.1-36.79-4.39-42.53-1.53-6.81,1.02-8.85,1.02-8.85,0,0,10.21-13.45,15.32-23.75,2.45-4.94,5-13.7,7.2-23.09,2.15-9.19,3.99-18.97,5.11-26.36.12-.79.23-1.56.33-2.29,2.04-14.56-2.04-38.56-2.68-44.68-.64-6.13,5.62-6.64,5.62-6.64,0,0,7.1-.06,16.29-3.68,3.22-1.27,6.7-2.97,10.21-5.27,1.25-.81,2.5-1.7,3.75-2.67,2.29-1.78,4.36-3.27,6.23-4.52,1.33-.9,2.56-1.68,3.69-2.35,7.53-4.5,10.63-4.36,10.63-4.36l.51,79.77,9.07,99.79Z"/>
      <path class="cls-30" d="m113.73,195.98s-6.05,4.54-2.84,1.3c3.21-3.24.21-16.68.21-16.68l-7.49-22.65c-5.01-15.16-13.06-31.46-23.76-43.31l-11.82-10.63,15.09-20.5-15.55-8.27s6.28-11.5,11.99-35.24c1.32-5.49,3.63-10.58,6.41-15.15,1.25-.81,2.5-1.7,3.75-2.67,2.29-1.78,4.36-3.27,6.23-4.52,1.33-.9,2.56-1.68,3.69-2.35,2.27-1.3,6.4-3.54,6.52-3.12.27.95-5.61,6.29-5.34,7.23-.2.64-.39,1.27-.55,1.93-.79,3.47-1.27,7-1.39,10.55l-.06,2.15c-.15,3.99,0,7.99.43,11.95l2.13,19.96,6.82,46.77,7.31,62.24c.28,2.06.49,4.15.63,6.23.36,5.41-1.82,9.38-2.41,14.78Z"/>
      <path class="cls-20" d="m207.84,173.1l5.2,16.62-1.34-.9c-2.24-1.49-4.41-3.1-6.5-4.8l-19.62-16.02s-4.42-20.04-6.72-31.66-4.34-21.7-7.66-33.96c-3.32-12.25-10.59-39.19-10.59-39.19l-11.07-32.11c-1.86-5.38-4.31-10.55-7.3-15.39l-3.38-5.46v-.02c-4.44-4.91-8.21-6.6-11.38-6.6-5.45,0-9.11,5-11.22,7.29-2.21,2.91-3.88,6.19-4.95,9.68-1.03,3.41-1.74,6.9-2.1,10.44l-.21,2.14c-.41,3.97-.53,7.97-.37,11.95l.78,20.06,3.66,47.12,3.1,62.59c.14,2.08.21,4.17.21,6.26,0,5.42-.48,10.83-1.43,16.18,0,0-6.98,3.02-3.56,0,3.42-3.02,0-17.12,0-17.12l-5.94-23.1c-3.98-15.46-10.92-32.27-20.8-44.81l-11.07-11.4,16.43-19.44-14.96-9.3s7.04-11.05,14.34-34.35c5.31-16.97,20.17-29.26,27.85-34.7,2.88-2.03,6.32-3.1,9.84-3.1l1.5.33c2.99.67,5.86,1.79,8.51,3.34l2.05,1.19s6.21,4.33,11.67,14.8c5.45,10.47,12.48,33.1,15.54,41.62,3.06,8.51,14.3,47.14,16.77,51.27,2.46,4.13,8.85,22.51,13.19,29.41,4.34,6.89,11.66,26.17,11.53,31.14Z"/>
      <path class="cls-30" d="m86.73,245.1s6.71-2.07,7.71-6.28,7.89-20.81,7.89-20.81c0,0-6.91,18.69-16.35,20.03s.75,7.06.75,7.06Z"/>
      <path class="cls-30" d="m97.8,203.53s4.96.06,5.96-4.15,3.68-23.38,3.68-23.38c0,0-2.42,23.39-11.87,24.73s2.23,2.8,2.23,2.8Z"/>
      <path class="cls-30" d="m59.2,44.85c.33-.04.96-.16,2.07-.52-.99.4-1.68.5-2.07.52Z"/>
      <path class="cls-30" d="m50.75,93.08c-.49,10.91-4.15,62.17-13.06,77.09.23-.95,7.46-30.34,7.95-50.73,2.15-9.19,3.99-18.97,5.11-26.36Z"/>
      <path class="cls-30" d="m46.75,114.83c-.33,3.38-6.46,45.76-14.97,55.4.25-.68,8.21-21.72,9.21-36.48,2.38-6.58,4.46-13.61,5.76-18.92Z"/>
      <path class="cls-30" d="m204.29,45.83c-1.79,3.26-6.59,9.79-15.52,7.19-7.27-2.1-17.35-12.32-23.96-19.79,2.24,1.02,4.87,2.1,7.96,3.23,16,5.82,29.23,8.86,31.52,9.37Z"/>
      <path class="cls-30" d="m247.7,177.52c-5.3-3.66-11.58-8.36-18.62-14.28-22.32-18.8-24.79-93.19-24.79-93.19v-2.3s10.27,42.64,20.99,71.62c4.15,11.22,8.19,16.91,11.58,19.66,2.45,6.05,5.84,12.04,10.84,18.49Z"/>
      <path class="cls-30" d="m264.63,195.55c-7.17-1.48-20.17-4.56-28.5-8.77-12-6.08-21.06-48.44-21.06-48.44l2.04-2.68s6,26.68,18.38,43.53c7.39,10.07,17.41,11.91,24.29,11.75,1.52,1.5,3.14,3.04,4.85,4.61Z"/>
      <path class="cls-30" d="m105.11,224.95l-.99,3.28s-10.21,26.92-12.25,44.03c-.51,4.24-.91,11.26-1.25,19.51-6.68,24.97-11.69,54.87-11.69,54.87,0,0-.34-25.87,0-42,.59-28.04,25.37-77.7,26.18-79.69Z"/>
      <path class="cls-30" d="m45.79,213.79c-6.23,10.88-13.96,14.8-19.79,16.1.1-.32.22-.61.36-.86,1.21-2.12,1.43-6.39,1.42-9.52-.01-2.15-.14-3.76-.14-3.76,0,0-.08-.95-.21-2.57,2.26,2.57,5.98,4.27,11.84.99,11.86-6.64,17.5-30.58,17.5-30.58,0,0,.64,9.9-10.98,30.2Z"/>
      <path class="cls-24" d="m103.27,200.17s-9.49,4.77-14.34,4.34,4.85,2.55,9.02,1.87,5.32-6.21,5.32-6.21Z"/>
      <path class="cls-24" d="m94.45,238.81s-9.49,4.77-14.34,4.34,4.85,2.55,9.02,1.87,5.32-6.21,5.32-6.21Z"/>
    </g>
    <g class="cls-13">
      <g>
        <circle class="cls-16" cx="96.74" cy="202.36" r="5.6"/>
        <circle class="cls-27" cx="96.74" cy="202.36" r="3.86"/>
      </g>
      <circle class="cls-29" cx="95.44" cy="203.33" r=".75"/>
      <circle class="cls-29" cx="98.12" cy="201.48" r=".75"/>
    </g>
    <g class="cls-18">
      <g>
        <circle class="cls-16" cx="87.61" cy="241.53" r="5.6"/>
        <circle class="cls-27" cx="87.61" cy="241.53" r="3.86"/>
      </g>
      <circle class="cls-29" cx="85.98" cy="241.52" r=".75"/>
      <circle class="cls-29" cx="89.24" cy="241.67" r=".75"/>
    </g>
  </g>
</svg>