<?xml version="1.0" encoding="UTF-8"?><svg xmlns="http://www.w3.org/2000/svg" width="118.34" height="90.87" xmlns:xlink="http://www.w3.org/1999/xlink" viewBox="0 0 118.34 90.87"><defs><linearGradient id="_Безымянный_градиент_104" x1="115.17" y1="98.45" x2="115.17" y2="40.52" gradientTransform="translate(-2.83 -45.91) rotate(3.74)" gradientUnits="userSpaceOnUse"><stop offset="0" stop-color="#302a3e"/><stop offset="1" stop-color="#606a80"/></linearGradient><linearGradient id="_Безымянный_градиент_249" x1="114.67" y1="46.92" x2="120.36" y2="46.92" gradientTransform="translate(-2.83 -45.91) rotate(3.74)" gradientUnits="userSpaceOnUse"><stop offset="0" stop-color="#f0c765"/><stop offset="1" stop-color="#e58f50"/></linearGradient><linearGradient id="_Безымянный_градиент_262" x1="93.77" y1="57.91" x2="93.77" y2="8.04" gradientUnits="userSpaceOnUse"><stop offset="0" stop-color="#70a1fb"/><stop offset="1" stop-color="#7dbcfc"/></linearGradient><linearGradient id="_Безымянный_градиент_104-2" x1="102.94" y1="57.91" x2="102.94" y2="0" gradientTransform="matrix(1,0,0,1,0,0)" xlink:href="#_Безымянный_градиент_104"/><radialGradient id="_Безымянный_градиент_72" cx="90.64" cy="39.59" fx="90.64" fy="39.59" r="18.97" gradientTransform="translate(-13.06) scale(1.03 1)" gradientUnits="userSpaceOnUse"><stop offset="0" stop-color="#da2241"/><stop offset="1" stop-color="#9d004a"/></radialGradient><linearGradient id="_Безымянный_градиент_181" x1="69.33" y1="26.07" x2="76.07" y2="26.07" gradientUnits="userSpaceOnUse"><stop offset="0" stop-color="#c9c3d7"/><stop offset="1" stop-color="#f8e9cd"/></linearGradient><radialGradient id="_Безымянный_градиент_69" cx="112.29" cy="43.45" fx="112.29" fy="43.45" r="57.97" gradientTransform="translate(-13.06) scale(1.03 1)" gradientUnits="userSpaceOnUse"><stop offset="0" stop-color="#f0c765"/><stop offset="1" stop-color="#e58f50"/></radialGradient><linearGradient id="_Безымянный_градиент_37" x1="70.73" y1="90.86" x2="70.73" y2="43.89" gradientUnits="userSpaceOnUse"><stop offset="0" stop-color="#85434b"/><stop offset="1" stop-color="#b75b28"/></linearGradient><linearGradient id="_Безымянный_градиент_49" x1="60.72" y1="68.33" x2="118.34" y2="68.33" gradientUnits="userSpaceOnUse"><stop offset="0" stop-color="#c58f8d"/><stop offset="1" stop-color="#a46f80"/></linearGradient><linearGradient id="_Безымянный_градиент_181-2" x1="93.72" y1="33.52" x2="93.72" y2="19.36" xlink:href="#_Безымянный_градиент_181"/><linearGradient id="_Безымянный_градиент_249-2" x1="102.4" y1="6.4" x2="108.08" y2="6.4" gradientTransform="matrix(1,0,0,1,0,0)" xlink:href="#_Безымянный_градиент_249"/><linearGradient id="_Безымянный_градиент_134" x1="66.21" y1="88.4" x2="66.21" y2="49.65" gradientUnits="userSpaceOnUse"><stop offset="0" stop-color="#302a3e"/><stop offset="1" stop-color="#2f3b59"/></linearGradient><linearGradient id="_Безымянный_градиент_24" x1="0" y1="52.75" x2="27.92" y2="52.75" gradientUnits="userSpaceOnUse"><stop offset="0" stop-color="#7974a5"/><stop offset="1" stop-color="#9290bb"/></linearGradient><linearGradient id="_Безымянный_градиент_181-3" x1="7.79" y1="52.75" x2="66.92" y2="52.75" xlink:href="#_Безымянный_градиент_181"/><linearGradient id="_Безымянный_градиент_134-2" x1="14.71" y1="90.87" x2="14.71" y2="48.15" xlink:href="#_Безымянный_градиент_134"/><linearGradient id="_Безымянный_градиент_4" x1="41.79" y1="88.07" x2="41.79" y2="12.3" gradientUnits="userSpaceOnUse"><stop offset="0" stop-color="#9f9dd0"/><stop offset="1" stop-color="#8e87c7"/></linearGradient><linearGradient id="_Безымянный_градиент_4-2" x1="12.73" y1="49.49" x2="27.28" y2="49.49" xlink:href="#_Безымянный_градиент_4"/><linearGradient id="_Безымянный_градиент_104-3" x1="44.82" y1="90.86" x2="44.82" y2="48.15" gradientTransform="matrix(1,0,0,1,0,0)" xlink:href="#_Безымянный_градиент_104"/><linearGradient id="_Безымянный_градиент_4-3" x1="42.99" y1="55.84" x2="42.99" y2="49.75" xlink:href="#_Безымянный_градиент_4"/><linearGradient id="_Безымянный_градиент_4-4" x1="43.95" x2="43.95" y2="63.97" xlink:href="#_Безымянный_градиент_4"/></defs><g style="isolation:isolate;"><g id="_Слой_2"><g id="_Слой_1-2"><path d="m100.09,59.48l9.29-55.45s2.36-3.56,5.61-.65l-10.01,56.4-4.89-.31Z" style="fill:url(#_Безымянный_градиент_104); stroke-width:0px;"/><polygon points="108.92 6.78 114.33 7.13 113.75 10.38 108.47 9.45 108.92 6.78" style="fill:url(#_Безымянный_градиент_249); stroke-width:0px;"/><path d="m91.06,57.91V9.94s1.34-3.6,5.41-.89l-.49,48.86h-4.92Z" style="fill:url(#_Безымянный_градиент_262); stroke-width:0px;"/><path d="m97.39,57.91L102.94,1.99s2.11-3.71,5.55-1l-6.21,56.92h-4.9Z" style="fill:url(#_Безымянный_градиент_104-2); stroke-width:0px;"/><path d="m88.26,63.01l-21.59-43.71s-.3-3.78,4.19-3.03l22.68,46.74h-5.28Z" style="fill:url(#_Безымянный_градиент_72); stroke-width:0px;"/><polygon points="69.33 24.7 71.63 29.34 76.07 27.02 74.02 22.79 69.33 24.7" style="fill:url(#_Безымянный_градиент_181); stroke-width:0px;"/><polygon points="76.78 90.87 80.74 43.89 114.83 43.89 118.34 90.76 76.78 90.87" style="fill:url(#_Безымянный_градиент_69); stroke-width:0px;"/><polygon points="80.74 43.89 65.52 44.8 60.72 90.76 80.74 90.86 80.74 43.89" style="fill:url(#_Безымянный_градиент_37); stroke-width:0px;"/><path d="m65.41,45.91s2.76,36.64,5.32,38.81c10.21,8.68,43.53,2.87,45.36,1.53,1.82-1.34,0-21.93,0-21.93l2.26,26.44h-57.63l4.69-44.85Z" style="fill:url(#_Безымянный_градиент_49); mix-blend-mode:multiply; opacity:.5; stroke-width:0px;"/><polygon points="91.06 19.45 91.06 33.47 96.23 33.52 96.37 19.36 91.06 19.45" style="fill:url(#_Безымянный_градиент_181-2); stroke-width:0px;"/><polygon points="102.67 4.76 108.08 4.76 107.73 8.04 102.4 7.45 102.67 4.76" style="fill:url(#_Безымянный_градиент_249-2); stroke-width:0px;"/><polygon points="63.86 88.4 62.44 49.65 68.94 49.65 69.97 88.07 63.86 88.4" style="fill:url(#_Безымянный_градиент_134); stroke-width:0px;"/><path d="m7.79,17.42L0,21.53s13.75,15.87,16.75,34.45c3,18.58,1.88,32.09,1.88,32.09h9.06S31.51,43.04,7.79,17.42Z" style="fill:url(#_Безымянный_градиент_24); stroke-width:0px;"/><path d="m7.79,17.42l47.88,2.85s9.53,34.77,11.25,67.8H27.69s-.51-40.1-19.9-70.65Z" style="fill:url(#_Безымянный_градиент_181-3); stroke-width:0px;"/><polygon points="9.79 48.15 12 90.87 19.63 90.87 19.63 48.15 9.79 48.15" style="fill:url(#_Безымянный_градиент_134-2); stroke-width:0px;"/><path d="m66.92,88.07s-.49-54.51-6.61-74.06l-43.65-1.71s9.59,28.86,11.03,75.77h39.22Z" style="fill:url(#_Безымянный_градиент_4); mix-blend-mode:multiply; opacity:.3; stroke-width:0px;"/><path d="m18.3,18l-5.57,8.17s12.87,30.21,14.55,54.82c0,0-2.57-47.23-8.98-62.99Z" style="fill:url(#_Безымянный_градиент_4-2); mix-blend-mode:multiply; opacity:.3; stroke-width:0px;"/><path d="m21.6,88.07l-1.08-37.69,48.42-.72,1.03,38.42H21.6Zm-2.91-39.92l.94,42.72h51.32v-42.72H18.7Z" style="fill:url(#_Безымянный_градиент_104-3); stroke-width:0px;"/><polygon points="65.46 51.09 24.91 52.44 20.68 55.84 20.52 50.38 65.37 49.75 65.46 51.09" style="fill:url(#_Безымянный_градиент_4-3); mix-blend-mode:multiply; opacity:.5; stroke-width:0px;"/><path d="m66.19,63.97s-.47,15.54-3.75,18.31c-5.09,4.3-39,1.02-39,1.02l-2.47-17.13.63,21.9h45.31l-.72-24.11Z" style="fill:url(#_Безымянный_градиент_4-4); mix-blend-mode:multiply; opacity:.3; stroke-width:0px;"/></g></g></g></svg>