<?xml version="1.0" encoding="UTF-8"?><svg xmlns="http://www.w3.org/2000/svg" width="152.09" height="143.46" xmlns:xlink="http://www.w3.org/1999/xlink" viewBox="0 0 152.09 143.46"><defs><linearGradient id="_Безымянный_градиент_320" x1="97.41" y1="36.61" x2="13.06" y2="158.73" gradientUnits="userSpaceOnUse"><stop offset="0" stop-color="#660045"/><stop offset="1" stop-color="#ac5c81"/></linearGradient><linearGradient id="_Безымянный_градиент_234" x1="-35.71" y1="79.7" x2="80.36" y2="54.08" gradientUnits="userSpaceOnUse"><stop offset=".04" stop-color="#a6a2c4"/><stop offset=".49" stop-color="#8782b0"/><stop offset="1" stop-color="#77597a"/></linearGradient><linearGradient id="_Безымянный_градиент_134" x1="89.44" y1="131.76" x2="89.44" y2="0" gradientUnits="userSpaceOnUse"><stop offset="0" stop-color="#302a3e"/><stop offset="1" stop-color="#2f3b59"/></linearGradient></defs><g style="isolation:isolate;"><g id="_Слой_2"><g id="_Слой_1-2"><polygon points="149.06 4.82 16.87 2.66 16.87 2.63 16.66 2.66 15.11 2.63 15.11 2.85 .58 11.89 0 36.03 0 36.03 1.27 75.72 1.27 75.72 2.5 113.96 2.79 123.13 2.79 123.13 3.4 142.08 19.05 142.08 21.23 142.08 137.18 143.46 146.98 129.77 149.06 4.82" style="fill:url(#_Безымянный_градиент_320); mix-blend-mode:multiply; opacity:.37; stroke-width:0px;"/><polygon points="32.39 131.76 16.09 131.76 12.07 2.07 28.4 0 32.39 131.76" style="fill:url(#_Безымянный_градиент_234); fill-rule:evenodd; stroke-width:0px;"/><polygon points="30.39 131.76 152.09 131.76 149.21 2.07 26.79 0 30.39 131.76" style="fill:url(#_Безымянный_градиент_134); fill-rule:evenodd; stroke-width:0px;"/><path d="m92.83,70.82h0c-1.65,0-2.98,1.3-2.98,2.9h0c0,1.6,1.34,2.9,2.98,2.9h0c1.65,0,2.98-1.3,2.98-2.9h0c0-1.6-1.34-2.9-2.98-2.9Z" style="fill:#fdd7a4; stroke-width:0px;"/><polygon points="78.07 28.45 74.34 29.81 89.13 68.27 92.85 66.92 78.07 28.45" style="fill:#fdd7a4; stroke-width:0px;"/><polygon points="124.51 59.91 122.58 56.53 98.13 69.68 100.05 73.06 124.51 59.91" style="fill:#fdd7a4; stroke-width:0px;"/><rect x="88.7" y="117.16" width="3.17" height="4.42" style="fill:#fdd7a4; stroke-width:0px;"/><polygon points="91.86 14.92 91.86 9.34 88.7 9.29 88.7 14.92 91.86 14.92" style="fill:#fdd7a4; stroke-width:0px;"/><polygon points="43.77 64.33 37.98 64.33 38.07 67.78 43.77 67.78 43.77 64.33" style="fill:#fdd7a4; stroke-width:0px;"/><polygon points="135.7 67.78 141.23 67.78 141.15 64.33 135.7 64.33 135.7 67.78" style="fill:#fdd7a4; stroke-width:0px;"/><polygon points="43.96 14.9 37.8 8.41 36.48 8.39 36.57 11.91 41.79 17.4 43.96 14.9" style="fill:#fdd7a4; stroke-width:0px;"/><polygon points="136.59 117.2 140.74 121.57 142.4 121.57 142.33 118.46 138.77 114.7 136.59 117.2" style="fill:#fdd7a4; stroke-width:0px;"/><polygon points="136.57 19.58 140.09 15.85 139.99 11.16 134.38 17.08 136.57 19.58" style="fill:#fdd7a4; stroke-width:0px;"/><polygon points="43.97 112.55 39.41 117.37 39.52 121.57 39.97 121.57 46.15 115.05 43.97 112.55" style="fill:#fdd7a4; stroke-width:0px;"/></g></g></g></svg>