<?xml version="1.0" encoding="UTF-8"?><svg xmlns="http://www.w3.org/2000/svg" width="117.88" height="131.95" xmlns:xlink="http://www.w3.org/1999/xlink" viewBox="0 0 117.88 131.95"><defs><linearGradient id="_Безымянный_градиент_296" x1="0" y1="69.37" x2="112.85" y2="69.37" gradientUnits="userSpaceOnUse"><stop offset="0" stop-color="#c1827a"/><stop offset="1" stop-color="#912a88"/></linearGradient><radialGradient id="_Безымянный_градиент_271" cx="66.96" cy="4553.71" fx="66.96" fy="4553.71" r="99.92" gradientTransform="translate(0 -2890.57) scale(.82 .64)" gradientUnits="userSpaceOnUse"><stop offset=".02" stop-color="#543649"/><stop offset=".99" stop-color="#291734"/></radialGradient><linearGradient id="_Безымянный_градиент_223" x1="61.46" y1="112.97" x2="61.46" y2="12.2" gradientUnits="userSpaceOnUse"><stop offset="0" stop-color="#f8e8e4"/><stop offset="1" stop-color="#bcabba"/></linearGradient><radialGradient id="_Безымянный_градиент_279" cx="74.67" cy="117.56" fx="74.67" fy="117.56" r="43.84" gradientTransform="scale(.82 1)" gradientUnits="userSpaceOnUse"><stop offset="0" stop-color="#786f76"/><stop offset="1" stop-color="#282737"/></radialGradient></defs><g style="isolation:isolate;"><g id="_Слой_2"><g id="_Слой_1-2"><polygon points="2.7 131.95 0 6.79 112.85 6.79 109.48 131.95 2.7 131.95" style="fill:url(#_Безымянный_градиент_296); fill-rule:evenodd; mix-blend-mode:multiply; opacity:.5; stroke-width:0px;"/><polygon points="7.73 125.17 5.03 0 117.88 0 114.52 125.17 7.73 125.17" style="fill:url(#_Безымянный_градиент_271); fill-rule:evenodd; stroke-width:0px;"/><polygon points="17.97 112.97 15.19 12.2 107.73 12.2 106.24 112.97 17.97 112.97" style="fill:url(#_Безымянный_градиент_223); fill-rule:evenodd; stroke-width:0px;"/><polygon points="15.19 12.2 6.65 2.45 115.75 2.45 107.73 12.2 15.19 12.2" style="fill:#1c1321; fill-rule:evenodd; stroke-width:0px;"/><polygon points="17.97 112.97 10.51 122.15 111.74 122.15 106.24 112.97 17.97 112.97" style="fill:url(#_Безымянный_градиент_279); fill-rule:evenodd; mix-blend-mode:screen; opacity:.83; stroke-width:0px;"/><g style="mix-blend-mode:multiply; opacity:.5;"><rect x="33.82" y="32.8" width="56.87" height="10.8" style="fill:#8471b6; stroke-width:0px;"/><rect x="25.32" y="52.28" width="71.18" height="3.52" style="fill:#8471b6; stroke-width:0px;"/><rect x="25.32" y="60.82" width="71.18" height="3.52" style="fill:#8471b6; stroke-width:0px;"/><rect x="25.32" y="69.37" width="71.18" height="3.52" style="fill:#8471b6; stroke-width:0px;"/><rect x="25.32" y="77.91" width="71.18" height="3.52" style="fill:#8471b6; stroke-width:0px;"/><rect x="25.32" y="86.46" width="71.18" height="3.52" style="fill:#8471b6; stroke-width:0px;"/><rect x="76.04" y="102.55" width="20.46" height="3.52" style="fill:#8471b6; stroke-width:0px;"/></g><g style="mix-blend-mode:multiply;"><path d="m33.82,108.01c-6.81,0-12.34-6.76-12.34-15.08s5.54-15.08,12.34-15.08,12.34,6.76,12.34,15.08-5.54,15.08-12.34,15.08Zm0-28.65c-6.13,0-11.11,6.09-11.11,13.57s4.98,13.57,11.11,13.57,11.11-6.09,11.11-13.57-4.98-13.57-11.11-13.57Z" style="fill:#c46180; stroke-width:0px;"/></g><path d="m24.41,92.93c0-6.35,4.21-11.5,9.41-11.5s9.41,5.15,9.41,11.5-4.21,11.5-9.41,11.5-9.41-5.15-9.41-11.5Z" style="fill:#c46180; fill-rule:evenodd; mix-blend-mode:multiply; stroke-width:0px;"/><polygon points="6.65 2.45 15.5 23.37 108.14 23.37 117.88 0 6.65 2.45" style="fill:#5a3e65; fill-rule:evenodd; mix-blend-mode:multiply; opacity:.5; stroke-width:0px;"/><polygon points="81.07 3.39 87.22 107.01 111.74 108.2 115.75 3.39 81.07 3.39" style="fill:#fff; fill-rule:evenodd; mix-blend-mode:soft-light; opacity:.71; stroke-width:0px;"/></g></g></g></svg>