<?xml version="1.0" encoding="UTF-8"?><svg xmlns="http://www.w3.org/2000/svg" width="138.99" height="181.8" xmlns:xlink="http://www.w3.org/1999/xlink" viewBox="0 0 138.99 181.8"><defs><linearGradient id="_Безымянный_градиент_296" x1="15.75" y1="92.66" x2="150.41" y2="92.66" gradientTransform="translate(150.41) rotate(-180) scale(1 -1)" gradientUnits="userSpaceOnUse"><stop offset="0" stop-color="#c1827a"/><stop offset="1" stop-color="#912a88"/></linearGradient><radialGradient id="_Безымянный_градиент_271" cx="114.8" cy="4556.26" fx="114.8" fy="4556.26" r="131.71" gradientTransform="translate(178.63 -2879.96) rotate(-180) scale(.86 -.64)" gradientUnits="userSpaceOnUse"><stop offset=".02" stop-color="#543649"/><stop offset=".99" stop-color="#291734"/></radialGradient><linearGradient id="_Безымянный_градиент_223" x1="78.76" y1="162.78" x2="78.76" y2="15.51" gradientTransform="translate(150.41) rotate(-180) scale(1 -1)" gradientUnits="userSpaceOnUse"><stop offset="0" stop-color="#f8e8e4"/><stop offset="1" stop-color="#bcabba"/></linearGradient><radialGradient id="_Безымянный_градиент_279" cx="123.47" cy="168.62" fx="123.47" fy="168.62" r="48.97" gradientTransform="translate(178.63 0) rotate(-180) scale(.86 -1)" gradientUnits="userSpaceOnUse"><stop offset="0" stop-color="#786f76"/><stop offset="1" stop-color="#282737"/></radialGradient></defs><g style="isolation:isolate;"><g id="_Слой_2"><g id="_Слой_1-2"><polygon points="131.05 181.8 134.67 3.51 0 3.51 4.51 181.8 131.05 181.8" style="fill:url(#_Безымянный_градиент_296); fill-rule:evenodd; mix-blend-mode:multiply; opacity:.5; stroke-width:0px;"/><polygon points="135.37 178.29 138.99 0 4.32 0 8.84 178.29 135.37 178.29" style="fill:url(#_Безымянный_градиент_271); fill-rule:evenodd; stroke-width:0px;"/><polygon points="121.65 162.78 125.38 15.51 17.93 15.51 19.93 162.78 121.65 162.78" style="fill:url(#_Безымянный_градиент_223); fill-rule:evenodd; stroke-width:0px;"/><polygon points="125.38 15.51 136.82 3.12 7.18 3.12 17.93 15.51 125.38 15.51" style="fill:#1c1321; fill-rule:evenodd; stroke-width:0px;"/><polygon points="121.65 162.78 131.65 174.45 12.56 174.45 19.93 162.78 121.65 162.78" style="fill:url(#_Безымянный_градиент_279); fill-rule:evenodd; mix-blend-mode:screen; opacity:.83; stroke-width:0px;"/><g style="mix-blend-mode:multiply; opacity:.5;"><rect x="40.76" y="41.69" width="59.65" height="13.72" transform="translate(141.18 97.1) rotate(180)" style="fill:#8471b6; stroke-width:0px;"/><rect x="32.97" y="66.46" width="78.83" height="4.47" transform="translate(144.77 137.39) rotate(180)" style="fill:#8471b6; stroke-width:0px;"/><rect x="32.97" y="77.32" width="78.83" height="4.47" transform="translate(144.77 159.12) rotate(180)" style="fill:#8471b6; stroke-width:0px;"/><rect x="32.97" y="88.18" width="78.83" height="4.47" transform="translate(144.77 180.84) rotate(180)" style="fill:#8471b6; stroke-width:0px;"/><rect x="32.97" y="99.05" width="78.83" height="4.47" transform="translate(144.77 202.57) rotate(180)" style="fill:#8471b6; stroke-width:0px;"/><rect x="32.97" y="109.91" width="78.83" height="4.47" transform="translate(144.77 224.3) rotate(180)" style="fill:#8471b6; stroke-width:0px;"/><rect x="32.97" y="149.53" width="16.91" height="4.47" transform="translate(82.86 303.53) rotate(180)" style="fill:#8471b6; stroke-width:0px;"/><rect x="94.89" y="149.53" width="16.91" height="4.47" transform="translate(206.69 303.53) rotate(180)" style="fill:#8471b6; stroke-width:0px;"/></g><polygon points="136.82 3.12 124.96 29.71 17.38 29.71 4.32 0 136.82 3.12" style="fill:#5a3e65; fill-rule:evenodd; mix-blend-mode:multiply; opacity:.5; stroke-width:0px;"/><path d="m60.53,132.41c0,5.62,3.93,10.18,8.78,10.18s8.78-4.56,8.78-10.18-3.93-10.18-8.78-10.18-8.78,4.56-8.78,10.18Z" style="fill:#c03954; fill-rule:evenodd; stroke-width:0px;"/><path d="m69.31,140.35c3.78,0,6.85-3.56,6.85-7.94s-3.07-7.94-6.85-7.94-6.85,3.56-6.85,7.94,3.07,7.94,6.85,7.94Zm0-13.96c2.86,0,5.19,2.7,5.19,6.02s-2.33,6.02-5.19,6.02-5.19-2.7-5.19-6.02,2.33-6.02,5.19-6.02Z" style="fill:#d4cffc; stroke-width:0px;"/><polygon points="53.65 3.12 45.41 134.83 12.56 136.35 7.18 3.12 53.65 3.12" style="fill:#fff; fill-rule:evenodd; mix-blend-mode:soft-light; opacity:.71; stroke-width:0px;"/><polygon points="84.78 3.12 66.75 134.83 49.88 134.83 60.53 3.12 84.78 3.12" style="fill:#fff; fill-rule:evenodd; mix-blend-mode:soft-light; opacity:.71; stroke-width:0px;"/></g></g></g></svg>