<?xml version="1.0" encoding="UTF-8"?><svg xmlns="http://www.w3.org/2000/svg" width="196.85" height="119.91" xmlns:xlink="http://www.w3.org/1999/xlink" viewBox="0 0 196.85 119.91"><defs><linearGradient id="_Безымянный_градиент_37" x1="-18.97" y1="42.77" x2="-18.97" y2="10.8" gradientTransform="translate(101.16 .86) rotate(-178.05) scale(1 -1)" gradientUnits="userSpaceOnUse"><stop offset="0" stop-color="#85434b"/><stop offset="1" stop-color="#b75b28"/></linearGradient><radialGradient id="_Безымянный_градиент_69" cx="59.32" cy="9.9" fx="59.32" fy="9.9" r="52.26" gradientTransform="translate(101.16 .86) rotate(-178.05) scale(1 -1)" gradientUnits="userSpaceOnUse"><stop offset="0" stop-color="#f0c765"/><stop offset="1" stop-color="#e58f50"/></radialGradient><linearGradient id="_Безымянный_градиент_181" x1="-59.86" y1="28.52" x2="19.29" y2="28.52" gradientTransform="translate(101.16 .86) rotate(-178.05) scale(1 -1)" gradientUnits="userSpaceOnUse"><stop offset="0" stop-color="#c9c3d7"/><stop offset="1" stop-color="#f8e9cd"/></linearGradient><linearGradient id="_Безымянный_градиент_4" x1="-59.86" y1="28.43" x2="19.28" y2="28.43" gradientTransform="translate(101.16 .86) rotate(-178.05) scale(1 -1)" gradientUnits="userSpaceOnUse"><stop offset="0" stop-color="#9f9dd0"/><stop offset="1" stop-color="#8e87c7"/></linearGradient><linearGradient id="_Безымянный_градиент_4-2" x1="-59.84" y1="34.58" x2="-15.87" y2="34.58" xlink:href="#_Безымянный_градиент_4"/><linearGradient id="_Безымянный_градиент_24" x1="27.29" y1="25.53" x2="40.53" y2="25.53" gradientTransform="translate(101.16 .86) rotate(-178.05) scale(1 -1)" gradientUnits="userSpaceOnUse"><stop offset="0" stop-color="#7974a5"/><stop offset="1" stop-color="#9290bb"/></linearGradient><linearGradient id="_Безымянный_градиент_181-2" x1="28.68" y1="25.37" x2="42.51" y2="25.37" xlink:href="#_Безымянный_градиент_181"/><linearGradient id="_Безымянный_градиент_37-2" x1="47.67" y1="63.33" x2="59.28" y2="63.33" gradientTransform="translate(115.56 -39.62) rotate(178.52) scale(1 -1)" xlink:href="#_Безымянный_градиент_37"/><linearGradient id="_Безымянный_градиент_24-2" x1="52.5" y1="71.98" x2="51.54" y2="56.04" gradientTransform="translate(115.56 -39.62) rotate(178.52) scale(1 -1)" xlink:href="#_Безымянный_градиент_24"/><linearGradient id="_Безымянный_градиент_24-3" x1="71.15" y1="23.79" x2="82.18" y2="23.79" xlink:href="#_Безымянный_градиент_24"/><linearGradient id="_Безымянный_градиент_181-3" x1="71.62" y1="23.52" x2="84.65" y2="23.52" xlink:href="#_Безымянный_градиент_181"/><linearGradient id="_Безымянный_градиент_37-3" x1="90.8" y1="59.03" x2="100.47" y2="59.03" gradientTransform="translate(115.56 -39.62) rotate(178.52) scale(1 -1)" xlink:href="#_Безымянный_градиент_37"/><linearGradient id="_Безымянный_градиент_24-4" x1="94.81" y1="66.33" x2="94.01" y2="52.96" gradientTransform="translate(115.56 -39.62) rotate(178.52) scale(1 -1)" xlink:href="#_Безымянный_градиент_24"/><linearGradient id="_Безымянный_градиент_89" x1="47.61" y1="41.25" x2="45.66" y2="8.67" gradientTransform="translate(101.16 .86) rotate(-178.05) scale(1 -1)" gradientUnits="userSpaceOnUse"><stop offset="0" stop-color="#000024"/><stop offset="1" stop-color="#ecb761"/></linearGradient><linearGradient id="_Безымянный_градиент_49" x1="56.51" y1="42.66" x2="56.51" y2="34.05" gradientTransform="translate(101.16 .86) rotate(-178.05) scale(1 -1)" gradientUnits="userSpaceOnUse"><stop offset="0" stop-color="#c58f8d"/><stop offset="1" stop-color="#a46f80"/></linearGradient><linearGradient id="_Безымянный_градиент_194" x1="-69.6" y1="18.12" x2="9.98" y2="18.12" gradientTransform="translate(101.16 .86) rotate(-178.05) scale(1 -1)" gradientUnits="userSpaceOnUse"><stop offset="0" stop-color="#606a80"/><stop offset=".99" stop-color="#302a3e"/></linearGradient><linearGradient id="_Безымянный_градиент_256" x1="7.66" y1="4.12" x2="81.32" y2="4.12" gradientTransform="translate(101.16 .86) rotate(-178.05) scale(1 -1)" gradientUnits="userSpaceOnUse"><stop offset="0" stop-color="#686372"/><stop offset="1" stop-color="#606a80"/></linearGradient><linearGradient id="_Безымянный_градиент_256-2" x1="9.08" y1="9.11" x2="81.59" y2="9.11" xlink:href="#_Безымянный_градиент_256"/><linearGradient id="_Безымянный_градиент_181-4" x1="-59.12" y1="16.54" x2="78.35" y2="16.54" xlink:href="#_Безымянный_градиент_181"/><linearGradient id="_Безымянный_градиент_24-5" x1="-59.12" y1="16.68" x2="4.33" y2="16.68" xlink:href="#_Безымянный_градиент_24"/><linearGradient id="_Безымянный_градиент_181-5" x1="-75.92" y1="78.54" x2="92.36" y2="78.54" xlink:href="#_Безымянный_градиент_181"/><linearGradient id="_Безымянный_градиент_4-3" x1="-75.92" y1="78.54" x2="86.17" y2="78.54" xlink:href="#_Безымянный_градиент_4"/><linearGradient id="_Безымянный_градиент_4-4" x1="-69.05" y1="59.23" x2="8.88" y2="59.23" xlink:href="#_Безымянный_градиент_4"/><linearGradient id="_Безымянный_градиент_4-5" x1="-75.92" y1="103.68" x2="17.49" y2="103.68" xlink:href="#_Безымянный_градиент_4"/><linearGradient id="_Безымянный_градиент_4-6" x1="-45.67" y1="81.74" x2="81.95" y2="81.74" xlink:href="#_Безымянный_градиент_4"/><linearGradient id="_Безымянный_градиент_4-7" x1="45.49" y1="68.42" x2="92.34" y2="68.42" xlink:href="#_Безымянный_градиент_4"/><linearGradient id="_Безымянный_градиент_259" x1="45.49" y1="65.81" x2="98.81" y2="65.81" gradientTransform="translate(101.16 .86) rotate(-178.05) scale(1 -1)" gradientUnits="userSpaceOnUse"><stop offset="0" stop-color="#f3f2f6"/><stop offset="1" stop-color="#f8e9cd"/></linearGradient><linearGradient id="_Безымянный_градиент_181-6" x1="-98.71" y1="82.46" x2="-24.35" y2="82.46" xlink:href="#_Безымянный_градиент_181"/><linearGradient id="_Безымянный_градиент_4-8" x1="-75.7" y1="88.65" x2="-24.35" y2="88.65" xlink:href="#_Безымянный_градиент_4"/><linearGradient id="_Безымянный_градиент_4-9" x1="28.16" y1="86.79" x2="80.76" y2="86.79" xlink:href="#_Безымянный_градиент_4"/><linearGradient id="_Безымянный_градиент_260" x1="26.98" y1="84.53" x2="81.95" y2="84.53" gradientTransform="translate(101.16 .86) rotate(-178.05) scale(1 -1)" gradientUnits="userSpaceOnUse"><stop offset="0" stop-color="#f8e9cd"/><stop offset="1" stop-color="#f3f2f6"/></linearGradient><linearGradient id="_Безымянный_градиент_4-10" x1="-69.24" y1="41.97" x2="85.87" y2="41.97" xlink:href="#_Безымянный_градиент_4"/></defs><g style="isolation:isolate;"><g id="_Слой_2"><g id="_Слой_1-2"><path d="m166.84,8.65c-3.08-.27-4.62-.4-7.72-.66-4.57,9.2-6.87,13.8-11.44,23.02,4.16,1.21,6.24,1.81,10.39,3.03,0,0,11.66-12.89,8.77-25.39Z" style="fill:#302a3e; stroke-width:0px;"/><path d="m162.01,37.25c-24.01-8.04-47.8-16.19-71.19-25.93-8.16,8.57-13.41,19.68-15.2,31.36,28.82,1.53,57.33.87,86.15-.28l.08-1.86c-27.22.68-54.1,1.01-81.29-.68,0,0-.35-12.92,10.98-22.18,23.19,8.05,46.7,14.51,70.4,20.86.02-.52.03-.77.06-1.29Z" style="fill:url(#_Безымянный_градиент_37); stroke-width:0px;"/><path d="m90.82,11.32c-23.89-.28-47.67-1.54-71.51-3.03-6.4,8.75-8.2,17.67-9.56,28.25,21.93,2.52,43.85,4.65,65.88,6.13,1.94-11.08,7.1-23.41,15.2-31.36Z" style="fill:url(#_Безымянный_градиент_69); stroke-width:0px;"/><path d="m159.79,37.96c-.05,1.05-.07,1.58-.12,2.63-26.49.67-52.65.92-79.11-.73,0,0-.56-16.32,10.98-22.18,22.48,7.81,45.26,14.13,68.24,20.28Z" style="fill:url(#_Безымянный_градиент_181); stroke-width:0px;"/><path d="m159.79,37.96c-.02.54-.04.81-.06,1.34-23.16-5.07-46.11-10.3-68.84-17.1,0,0-8.18,5.68-8.92,17.75-.56-.04-.85-.06-1.41-.1,0,0-.38-16.92,10.98-22.18,22.48,7.81,45.26,14.13,68.24,20.28Z" style="fill:url(#_Безымянный_градиент_4); mix-blend-mode:multiply; opacity:.5; stroke-width:0px;"/><path d="m159.73,39.3c-14.62-2.03-29.21-4.12-43.77-6.51,14.37,2.82,28.78,5.34,43.21,7.81.22-.52.34-.78.56-1.3Z" style="fill:url(#_Безымянный_градиент_4-2); stroke-width:0px;"/><path d="m69.25,15.16s6.68,2.68,2.5,13.05c-3.95,9.8-12.29,6.49-12.29,6.49,3.89-7.82,5.85-11.72,9.79-19.54Z" style="fill:url(#_Безымянный_градиент_24); stroke-width:0px;"/><path d="m68.71,14.96c6.75,1.42,1.5,21.76-7.18,20.16-8.32-1.53-1.87-22.05,7.18-20.16Z" style="fill:url(#_Безымянный_градиент_181-2); stroke-width:0px;"/><path d="m61.71,33.61c.08,0,.17-.01.25-.02,5.9-.49,8.62-11.89,7.01-15.74-.29-.7-.73-1.16-1.32-1.26-9.01-1.47-13.18,17.25-5.94,17.02Z" style="fill:url(#_Безымянный_градиент_37-2); stroke-width:0px;"/><path d="m61.95,33.59c5.9-.49,8.65-11.88,7.01-15.74-6.41.74-9.72,11.85-7.01,15.74Z" style="fill:url(#_Безымянный_градиент_24-2); stroke-width:0px;"/><path d="m26.04,13.56s5.6,2.48,2.18,11.19c-3.24,8.24-10.27,5.18-10.27,5.18,3.25-6.53,4.86-9.81,8.09-16.37Z" style="fill:url(#_Безымянный_градиент_24-3); stroke-width:0px;"/><path d="m25.59,13.37c6.02,2.03,3.55,16.93-5.9,16.96-7.87.03-3.27-20.05,5.9-16.96Z" style="fill:url(#_Безымянный_градиент_181-3); stroke-width:0px;"/><path d="m19.83,29.06c.07,0,.14,0,.21-.01,4.95-.25,7.14-9.88,5.78-13.21-.25-.6-.61-1.01-1.11-1.1-7.51-1.47-10.95,14.33-4.88,14.33Z" style="fill:url(#_Безымянный_градиент_37-3); stroke-width:0px;"/><path d="m20.04,29.05c4.95-.25,7.17-9.87,5.78-13.21-5.34.46-8.07,9.83-5.78,13.21Z" style="fill:url(#_Безымянный_градиент_24-4); stroke-width:0px;"/><path d="m19.31,8.29c21.21,1.72,60.63.9,63.72,4.72,1.85,2.29-7.41,29.67-7.41,29.67,0,0,7.27-22.96,15.2-31.36-23.89-.28-47.67-1.54-71.51-3.03Z" style="fill:url(#_Безымянный_градиент_89); mix-blend-mode:screen; opacity:.5; stroke-width:0px;"/><path d="m9.86,31.83c9.37,3.61,20,4.67,29.8,6.04,11.92,1.67,25.86,2.89,37.48-1.59-.61,2.56-.91,3.84-1.51,6.41-22.03-1.49-43.95-3.61-65.88-6.13.04-1.89.07-2.83.11-4.72Z" style="fill:url(#_Безымянный_градиент_49); mix-blend-mode:multiply; opacity:.5; stroke-width:0px;"/><path d="m170.63,5.92c-.37,11.01-3.78,21.99-10.78,30.61-23.3-7.79-46.36-15.75-69.04-25.2.4-1.12.6-1.68,1-2.8,21.37,9.02,43.06,16.8,65,24.32,0,0,8.38-4.24,10.03-24.19-24.72-.49-49.32-1.14-73.97-3.29.22-.87.33-1.3.55-2.16,25.73,2,51.41,2.42,77.21,2.73Z" style="fill:url(#_Безымянный_градиент_194); stroke-width:0px;"/><path d="m93.42,3.19c-24.59.32-49.09-.48-73.65-1.45-.02.74-.02,1.11-.04,1.85,24.39,1.07,48.73,1.96,73.15,1.77.22-.87.33-1.3.55-2.16Z" style="fill:url(#_Безымянный_градиент_256); stroke-width:0px;"/><path d="m91.82,8.52c-24.2-.33-48.29-1.69-72.44-3.26-.03,1.21-.04,1.82-.07,3.03,23.84,1.49,47.62,2.75,71.51,3.03.4-1.12.6-1.68,1-2.8Z" style="fill:url(#_Безымянный_градиент_256-2); stroke-width:0px;"/><path d="m160.06,8.52s-.71,12.24-8.97,22.36c-20.01-6.89-39.78-14.11-59.27-22.36-23.11-.33-46.12-1.56-69.18-3.05.02-.7.02-1.05.04-1.75,23.41,1.06,46.77,1.83,70.2,1.64,22.38,1.94,44.73,2.7,67.19,3.16Z" style="fill:url(#_Безымянный_градиент_181-4); stroke-width:0px;"/><path d="m97.53,5.8c-.41,1.9-.62,2.84-1.03,4.74,18,7.4,36.2,14.01,54.59,20.35,0,0,7.4-8.47,8.97-22.36-20.89-.43-41.69-1.09-62.52-2.72Z" style="fill:url(#_Безымянный_градиент_24-5); stroke-width:0px;"/><path d="m161.78,42.39c2.91-.27,4.37-.4,7.27-.66-.35,7.75-.57,11.56-.84,19.42-2.91.45-4.37.68-7.29,1.15-.26,7.63-.37,11.45-.59,19.09,4.98-.2,7.47-.29,12.45-.41.35,9.06.53,13.59.86,22.65-.63.01-.94.02-1.57.04-.05,5.52-.08,8.28-.16,13.8-54.53,2.89-106.42,1.94-160.84-2.56.25-6.6.38-9.9.62-16.5.67.07,1.01.11,1.68.18.28-7.69.42-11.53.7-19.22-3.18-.36-4.77-.55-7.95-.92.29-8.05.44-12.08.74-20.12,2.64.34,3.96.51,6.6.84.34-8.7.35-13.26.57-22.11,49.53,5.55,97.97,7.34,147.76,5.35Z" style="fill:url(#_Безымянный_градиент_181-5); stroke-width:0px;"/><path d="m14.02,37.05c25.92,3.74,51.81,6.84,77.92,8.92-.19,5.61-.29,8.41-.49,14.02-25.25-.41-50.33-1.68-75.49-3.8,30.82,3.51,61.62,5.87,92.65,6.49-10.34.42-20.74.39-31.09.26-21.41-.65-42.72-1.91-64.07-3.77,25.91,3.02,51.76,5.14,77.82,6.36,1.14,6.11,1.75,9.17,2.98,15.29-25.97-.05-51.79-1.15-77.7-2.86,25.86,2.83,51.66,5.07,77.65,6.28.19,4.46.29,6.69.48,11.14-24.4.32-48.7-.4-73.07-1.49,24.73,3.09,49.41,5.82,74.28,7.49-27.56.09-55.02-1.23-82.53-2.79,36.87,3,73.59,5.74,110.6,4.24-15.03,1.93-29.95,3.24-45.08,4.1,6.88.44,10.33.62,17.22.88-.46,4.02-.69,6.03-1.19,10.05-28,.01-55.89-1.56-83.85-2.95,54.42,4.5,106.31,5.45,160.84,2.56.07-5.52.1-8.28.16-13.8.63-.02.94-.02,1.57-.04-.31-8.47-.48-12.7-.81-21.17-19.51,1.01-38.98,2.84-58.5,3.53,15.36-1.32,30.67-2.97,46-4.61.22-7.64.33-11.45.59-19.09,2.92-.47,4.38-.7,7.29-1.15.28-7.85.5-11.66.84-19.42-52.35,2.05-102.93,1.02-155.03-4.69Z" style="fill:url(#_Безымянный_градиент_4-3); mix-blend-mode:multiply; opacity:.3; stroke-width:0px;"/><path d="m168.21,61.15c-26.05.27-51.93.95-77.95-.59,23.57,1.79,47.04,1.74,70.66,1.74,2.92-.47,4.38-.7,7.29-1.15Z" style="fill:url(#_Безымянный_градиент_4-4); mix-blend-mode:multiply; opacity:.5; stroke-width:0px;"/><path d="m173.64,103.64c-23.39.46-46.73,1.57-70.13,1.23-9.38,1.19-14.07,1.6-23.46,2.36,6.42.31,9.63.43,16.05.58,25.93-.23,51.67-2.57,77.54-4.17Z" style="fill:url(#_Безымянный_градиент_4-5); mix-blend-mode:multiply; opacity:.5; stroke-width:0px;"/><path d="m144.06,83.14c-16.61.94-33.24,1.57-49.87,1.1-25.99-1.21-51.79-3.45-77.65-6.28,25.91,1.71,51.73,2.81,77.7,2.86,16.56,1.61,33.19,2.13,49.82,2.32Z" style="fill:url(#_Безымянный_градиент_4-6); mix-blend-mode:multiply; opacity:.5; stroke-width:0px;"/><path d="m6.54,66.66c-.07,1.84-.1,2.76-.17,4.6,15.17-4.19,31.35-8.21,47.16-8.02-15.5-.49-30.95-1.25-46.42-2.29-.23,2.28-.34,3.42-.57,5.7Z" style="fill:url(#_Безымянный_градиент_4-7); mix-blend-mode:multiply; opacity:.5; stroke-width:0px;"/><path d="m53.53,63.24c-17.77-.57-36.43-.07-53.53,5.21,0,0,1.94-5.34,6.85-10.13,15.52,2,31.08,3.69,46.68,4.92Z" style="fill:url(#_Безымянный_градиент_259); stroke-width:0px;"/><path d="m160.32,81.39c4.98-.2,7.47-.29,12.45-.41l24.07,10.44c-.25.47-49.64-6.31-74.2-5.96,12.58-1.21,25.12-2.7,37.68-4.08Z" style="fill:url(#_Безымянный_градиент_181-6); stroke-width:0px;"/><path d="m173,86.85c.25,4.31.37,6.47.61,10.78-15.92-7.12-50.97-12.17-50.97-12.17,0-.02,33.53-.36,50.35,1.39Z" style="fill:url(#_Безымянный_градиент_4-8); mix-blend-mode:multiply; opacity:.5; stroke-width:0px;"/><path d="m70.2,82.95c-11.5.27-24.52,1.29-33.78,8.77-7.5-5.18-11.23-7.78-18.7-13.06,17.48,1.71,34.96,3.18,52.49,4.29Z" style="fill:url(#_Безымянный_градиент_4-9); mix-blend-mode:multiply; opacity:.5; stroke-width:0px;"/><path d="m71.37,83.03c-11.83-.67-28.16-2.06-38.44,4.71-6.56-3.88-9.83-5.83-16.39-9.78,18.26,2,36.51,3.73,54.83,5.07Z" style="fill:url(#_Безымянный_градиент_260); stroke-width:0px;"/><path d="m169.05,41.74c-25.72,1.88-51.31,4.02-77.12,4.23-26.11-2.07-52-5.18-77.92-8.92,52.11,5.71,102.69,6.74,155.03,4.69Z" style="fill:url(#_Безымянный_градиент_4-10); mix-blend-mode:multiply; opacity:.5; stroke-width:0px;"/></g></g></g></svg>