<?xml version="1.0" encoding="UTF-8"?><svg id="_Слой_2" xmlns="http://www.w3.org/2000/svg" width="248.36" height="131.47" xmlns:xlink="http://www.w3.org/1999/xlink" viewBox="0 0 248.36 131.47"><defs><linearGradient id="_Безымянный_градиент_182" x1="150.33" y1="120.79" x2="150.33" y2="13.48" gradientTransform="translate(1.51 15.15) rotate(-1.6)" gradientUnits="userSpaceOnUse"><stop offset="0" stop-color="#bcabba"/><stop offset="1" stop-color="#dee8e1"/></linearGradient><linearGradient id="_Безымянный_градиент_182-2" x1="150.3" y1="37.12" x2="150.3" y2="23.83" xlink:href="#_Безымянный_градиент_182"/><linearGradient id="_Безымянный_градиент_120" x1="178.39" y1="121.56" x2="178.39" y2="14.84" gradientTransform="translate(1.51 15.15) rotate(-1.6)" gradientUnits="userSpaceOnUse"><stop offset="0" stop-color="#982138"/><stop offset=".98" stop-color="#db2d15"/></linearGradient><linearGradient id="_Безымянный_градиент_116" x1="205.79" y1="122.32" x2="205.79" y2="16.17" gradientTransform="translate(1.51 15.15) rotate(-1.6)" gradientUnits="userSpaceOnUse"><stop offset="0" stop-color="#634995"/><stop offset="1" stop-color="#6874de"/></linearGradient><linearGradient id="_Безымянный_градиент_182-3" x1="177.58" y1="106.78" x2="177.58" y2="50.95" xlink:href="#_Безымянный_градиент_182"/><linearGradient id="_Безымянный_градиент_182-4" x1="179.32" y1="38.38" x2="179.32" y2="25.16" xlink:href="#_Безымянный_градиент_182"/><linearGradient id="_Безымянный_градиент_182-5" x1="179.54" y1="38.39" x2="179.54" y2="25.17" xlink:href="#_Безымянный_градиент_182"/><linearGradient id="_Безымянный_градиент_182-6" x1="206.63" y1="39.56" x2="206.63" y2="26.41" xlink:href="#_Безымянный_градиент_182"/><linearGradient id="_Безымянный_градиент_182-7" x1="233.79" y1="122.98" x2="233.79" y2="17.74" xlink:href="#_Безымянный_градиент_182"/><linearGradient id="_Безымянный_градиент_182-8" x1="235.7" y1="39.08" x2="235.7" y2="29.49" xlink:href="#_Безымянный_градиент_182"/><linearGradient id="_Безымянный_градиент_182-9" x1="231.13" y1="116.83" x2="231.13" y2="107.24" xlink:href="#_Безымянный_градиент_182"/><linearGradient id="_Безымянный_градиент_120-2" x1="7.05" y1="131.37" x2="7.05" y2="0" gradientTransform="matrix(1,0,0,1,0,0)" xlink:href="#_Безымянный_градиент_120"/><linearGradient id="_Безымянный_градиент_116-2" x1="25.62" y1="131.47" x2="25.62" y2="7.43" gradientTransform="matrix(1,0,0,1,0,0)" xlink:href="#_Безымянный_градиент_116"/></defs><g id="_Слой_1-2"><polygon points="167.07 131.35 140.3 131.34 139 24.78 167.05 25.33 167.07 131.35" style="fill:url(#_Безымянный_градиент_182); fill-rule:evenodd; stroke-width:0px;"/><polygon points="159.04 116.68 146.71 116.64 146.19 60.88 158.83 61.05 159.04 116.68" style="fill:#f6e0e3; fill-rule:evenodd; stroke-width:0px;"/><path d="m158.56,41.5c.01,3.66-2.63,6.59-5.92,6.54-3.28-.05-5.97-3.07-6-6.74-.03-3.67,2.62-6.6,5.92-6.54,3.3.06,5.99,3.08,6,6.74Z" style="fill:url(#_Безымянный_градиент_182-2); fill-rule:evenodd; stroke-width:0px;"/><path d="m156.4,41.47c.01,2.34-1.68,4.2-3.77,4.17-2.09-.03-3.81-1.96-3.83-4.3s1.67-4.21,3.77-4.17c2.1.04,3.81,1.96,3.83,4.3Z" style="fill:#5f597d; fill-rule:evenodd; stroke-width:0px;"/><polygon points="194.5 131.35 167.72 131.35 167.73 25.34 195.78 25.89 194.5 131.35" style="fill:url(#_Безымянный_градиент_120); fill-rule:evenodd; stroke-width:0px;"/><polygon points="221.28 131.36 194.5 131.35 195.78 25.89 223.82 26.43 221.28 131.36" style="fill:url(#_Безымянный_градиент_116); fill-rule:evenodd; stroke-width:0px;"/><polygon points="187.16 116.77 174.82 116.73 175 61.26 187.64 61.43 187.16 116.77" style="fill:url(#_Безымянный_градиент_182-3); fill-rule:evenodd; stroke-width:0px;"/><path d="m187.61,41.98c-.03,3.64-2.72,6.56-6,6.51-3.28-.05-5.93-3.05-5.92-6.71.01-3.65,2.7-6.57,6-6.51,3.3.06,5.95,3.06,5.92,6.71Z" style="fill:url(#_Безымянный_градиент_182-4); fill-rule:evenodd; stroke-width:0px;"/><path d="m185.45,41.95c-.02,2.32-1.73,4.18-3.82,4.15-2.09-.03-3.78-1.95-3.77-4.27.01-2.33,1.72-4.19,3.82-4.15,2.1.04,3.79,1.95,3.77,4.27Z" style="fill:#6a1620; fill-rule:evenodd; stroke-width:0px;"/><polygon points="187.37 116.77 175.03 116.73 175.22 61.27 187.85 61.43 187.37 116.77" style="fill:#f6e0e3; fill-rule:evenodd; stroke-width:0px;"/><path d="m187.83,41.99c-.03,3.64-2.72,6.56-6,6.51-3.28-.05-5.93-3.05-5.92-6.71s2.7-6.57,6-6.51c3.3.06,5.95,3.06,5.92,6.71Z" style="fill:url(#_Безымянный_градиент_182-5); fill-rule:evenodd; stroke-width:0px;"/><path d="m185.67,41.95c-.02,2.32-1.73,4.18-3.82,4.15-2.09-.03-3.78-1.95-3.77-4.27.01-2.33,1.72-4.19,3.82-4.15s3.79,1.95,3.77,4.27Z" style="fill:#6a1620; fill-rule:evenodd; stroke-width:0px;"/><polygon points="213.6 116.85 201.27 116.81 202.1 61.62 214.74 61.79 213.6 116.85" style="fill:#f6e0e3; fill-rule:evenodd; stroke-width:0px;"/><path d="m214.94,42.44c-.07,3.63-2.79,6.53-6.08,6.48-3.28-.05-5.9-3.04-5.84-6.67.06-3.63,2.78-6.53,6.08-6.48,3.3.06,5.91,3.05,5.84,6.67Z" style="fill:url(#_Безымянный_градиент_182-6); fill-rule:evenodd; stroke-width:0px;"/><path d="m212.78,42.4c-.05,2.31-1.78,4.16-3.87,4.13-2.09-.03-3.76-1.94-3.72-4.25.04-2.32,1.77-4.16,3.87-4.13s3.77,1.94,3.72,4.25Z" style="fill:#392b6c; fill-rule:evenodd; stroke-width:0px;"/><polygon points="244.7 131.37 226.01 131.36 228.78 26.53 248.36 26.91 244.7 131.37" style="fill:url(#_Безымянный_градиент_182-7); fill-rule:evenodd; stroke-width:0px;"/><polygon points="241.37 109.19 231.66 109.14 233.23 54.27 243.19 54.41 241.37 109.19" style="fill:#f6e0e3; fill-rule:evenodd; stroke-width:0px;"/><path d="m242.45,42.89c-.09,2.65-2.11,4.76-4.52,4.73-2.41-.04-4.3-2.22-4.23-4.87.08-2.65,2.1-4.77,4.52-4.73,2.42.04,4.31,2.22,4.23,4.87Z" style="fill:url(#_Безымянный_градиент_182-8); fill-rule:evenodd; stroke-width:0px;"/><path d="m240.86,42.87c-.05,1.69-1.34,3.04-2.88,3.01-1.54-.02-2.74-1.41-2.69-3.11.05-1.69,1.34-3.04,2.88-3.01,1.54.03,2.75,1.42,2.69,3.11Z" style="fill:#5f597d; fill-rule:evenodd; stroke-width:0px;"/><path d="m239.91,120.68c-.09,2.65-2.04,4.79-4.37,4.79-2.33,0-4.15-2.16-4.08-4.81.08-2.65,2.03-4.8,4.37-4.79,2.34,0,4.16,2.16,4.08,4.81Z" style="fill:url(#_Безымянный_градиент_182-9); fill-rule:evenodd; stroke-width:0px;"/><path d="m238.38,120.68c-.05,1.69-1.3,3.06-2.79,3.05-1.49,0-2.65-1.37-2.6-3.07.05-1.69,1.3-3.06,2.79-3.05,1.49,0,2.65,1.38,2.6,3.07Z" style="fill:#5f597d; fill-rule:evenodd; stroke-width:0px;"/><polygon points="228.78 26.53 223.56 29 221.28 131.36 226.01 131.36 228.78 26.53" style="fill:#5f597d; fill-rule:evenodd; stroke-width:0px;"/><polygon points="139 24.78 115.39 48.91 115.39 131.35 140.3 131.34 139 24.78" style="fill:#5f597d; fill-rule:evenodd; stroke-width:0px;"/><polygon points="105.6 30.65 80.98 48.5 63.78 58.69 22.43 131.37 89.58 131.37 105.6 47.62 105.6 30.65" style="fill:#ae6f8b; fill-rule:evenodd; stroke-width:0px;"/><polygon points="129.97 131.34 135.39 28.47 122.64 28.47 122.64 34.76 119.93 28.47 109.15 28.47 108.82 30.47 105.6 30.65 103.09 41.4 96.8 41.88 51.84 131.34 75.43 131.34 102.72 51.01 89.58 131.37 129.97 131.34" style="fill:#ebcdd6; fill-rule:evenodd; stroke-width:0px;"/><polygon points="119.93 28.47 114.19 131.47 122.64 34.76 122.64 28.47 119.93 28.47" style="fill:#b8829b; fill-rule:evenodd; stroke-width:0px;"/><polygon points="123.19 131.35 133.06 28.95 124.33 131.34 123.19 131.35" style="fill:#b8829b; fill-rule:evenodd; stroke-width:0px;"/><polygon points="0 0 14.1 0 14.1 131.35 0 131.37 0 0" style="fill:url(#_Безымянный_градиент_120-2); fill-rule:evenodd; stroke-width:0px;"/><polygon points="22.43 131.37 14.1 10.03 25.62 7.43 37.13 131.47 22.43 131.37" style="fill:url(#_Безымянный_градиент_116-2); fill-rule:evenodd; stroke-width:0px;"/><polygon points="22.43 131.37 14.1 131.35 14.1 10.03 22.43 131.37" style="fill:#392b6c; fill-rule:evenodd; stroke-width:0px;"/><polygon points="18.16 36.1 23.91 95.57 32.05 93.62 25.62 34.76 18.16 36.1" style="fill:#f1ccb9; fill-rule:evenodd; stroke-width:0px;"/><polygon points="2.63 95.57 2.63 28.47 11.51 28.95 10.55 95.57 2.63 95.57" style="fill:#f1ccb9; fill-rule:evenodd; stroke-width:0px;"/></g></svg>