<?xml version="1.0" encoding="UTF-8"?><svg xmlns="http://www.w3.org/2000/svg" width="599.05" height="694.91" xmlns:xlink="http://www.w3.org/1999/xlink" viewBox="0 0 599.05 694.91"><defs><linearGradient id="linear-gradient" x1="298.46" y1="677.38" x2="322.49" y2="35.85" gradientUnits="userSpaceOnUse"><stop offset=".02" stop-color="#503029"/><stop offset=".95" stop-color="#2d1010"/></linearGradient><clipPath id="clippath"><polygon points="379 663.31 195.6 658.83 194.24 66.09 428.52 52.47 379 663.31" style="clip-rule:evenodd; fill:none; stroke-width:0px;"/></clipPath><radialGradient id="_Безымянный_градиент_295" cx="313.7" cy="670.03" fx="313.7" fy="670.03" r="96.31" gradientTransform="translate(-6.23 15) scale(1 .98) skewX(-.05)" gradientUnits="userSpaceOnUse"><stop offset="0" stop-color="#502621"/><stop offset="1" stop-color="#3b1311"/></radialGradient><linearGradient id="_Безымянный_градиент_263" x1="327.41" y1="454.15" x2="327.41" y2="63.88" gradientTransform="translate(7.59 -6.58) rotate(1.23)" gradientUnits="userSpaceOnUse"><stop offset="0" stop-color="#c55729"/><stop offset="1" stop-color="#ad513a"/></linearGradient><linearGradient id="_Безымянный_градиент_258" x1="327.59" y1="433.56" x2="327.59" y2="91.12" gradientTransform="translate(7.59 -6.58) rotate(1.23)" gradientUnits="userSpaceOnUse"><stop offset="0" stop-color="#faf1d8"/><stop offset=".34" stop-color="#f9ecd4"/><stop offset=".69" stop-color="#f6e0c8"/><stop offset="1" stop-color="#f2cfb7"/></linearGradient><linearGradient id="_Безымянный_градиент_254" x1="324.23" y1="429.21" x2="324.23" y2="118.27" gradientTransform="translate(7.59 -6.58) rotate(1.23)" gradientUnits="userSpaceOnUse"><stop offset="0" stop-color="#de813e"/><stop offset="1" stop-color="#c6622b"/></linearGradient><linearGradient id="_Безымянный_градиент_254-2" x1="323.77" y1="235.35" x2="323.77" y2="225.63" xlink:href="#_Безымянный_градиент_254"/><linearGradient id="_Безымянный_градиент_254-3" x1="258.48" y1="229.14" x2="258.48" y2="129.14" xlink:href="#_Безымянный_градиент_254"/><linearGradient id="_Безымянный_градиент_254-4" x1="394.71" y1="229.07" x2="394.71" y2="129.07" xlink:href="#_Безымянный_градиент_254"/><radialGradient id="_Безымянный_градиент_439" cx="267.17" cy="291.18" fx="267.17" fy="291.18" r="138.01" gradientTransform="translate(703.74 -36.74) rotate(90.08) scale(1.27 .98) skewX(-.04)" gradientUnits="userSpaceOnUse"><stop offset="0" stop-color="#e06f1a"/><stop offset=".22" stop-color="#b45914"/><stop offset=".7" stop-color="#462208"/><stop offset="1" stop-color="#000"/></radialGradient><radialGradient id="_Безымянный_градиент_291" cx="233.11" cy="528.91" fx="233.11" fy="528.91" r="44.71" gradientTransform="translate(7.59 8.57) rotate(1.2) scale(1 .98) skewX(-.05)" gradientUnits="userSpaceOnUse"><stop offset="0" stop-color="#e0d7e1"/><stop offset="1" stop-color="#80698d"/></radialGradient><radialGradient id="_Безымянный_градиент_291-2" cx="275.23" cy="510.35" fx="275.23" fy="510.35" r="3.53" xlink:href="#_Безымянный_градиент_291"/><radialGradient id="_Безымянный_градиент_290" cx="191.94" cy="567.05" fx="191.94" fy="567.05" r="3.53" gradientTransform="translate(7.59 8.57) rotate(1.2) scale(1 .98) skewX(-.05)" gradientUnits="userSpaceOnUse"><stop offset="0" stop-color="#ae96b0"/><stop offset="1" stop-color="#80698d"/></radialGradient><radialGradient id="_Безымянный_градиент_261" cx="194.09" cy="528.43" fx="194.09" fy="528.43" r="31.14" gradientTransform="translate(7.59 8.57) rotate(1.2) scale(1 .98) skewX(-.05)" gradientUnits="userSpaceOnUse"><stop offset="0" stop-color="#e0d7e1"/><stop offset="1" stop-color="#9682a1"/></radialGradient><radialGradient id="_Безымянный_градиент_395" cx="655.89" cy="628" fx="655.89" fy="628" r="27.89" gradientTransform="translate(-74.15 6.85) rotate(1.2) scale(.49 .98) skewX(-.11)" gradientUnits="userSpaceOnUse"><stop offset=".02" stop-color="#3d2b44"/><stop offset=".99" stop-color="#291734"/></radialGradient><radialGradient id="_Безымянный_градиент_395-2" cx="440.57" cy="643.71" fx="440.57" fy="643.71" r="12.05" gradientTransform="translate(-217.85 3.83) rotate(1.2) scale(1 .98) skewX(-.05)" xlink:href="#_Безымянный_градиент_395"/><radialGradient id="_Безымянный_градиент_292" cx="647.1" cy="677.38" fx="647.1" fy="677.38" r="10.48" gradientTransform="translate(802.86 210.81) rotate(89.87) scale(.66 .87) skewX(-.07)" gradientUnits="userSpaceOnUse"><stop offset="0" stop-color="#ad96af"/><stop offset="1" stop-color="#735981"/></radialGradient><radialGradient id="_Безымянный_градиент_293" cx="312.65" cy="469.83" fx="312.65" fy="469.83" r="83.41" gradientTransform="translate(7.59 8.57) rotate(1.2) scale(1 .98) skewX(-.05)" gradientUnits="userSpaceOnUse"><stop offset="0" stop-color="#e0d7e1"/><stop offset="1" stop-color="#a797b0"/></radialGradient><linearGradient id="_Безымянный_градиент_294" x1="153.03" y1="575.61" x2="338.91" y2="575.61" gradientTransform="translate(7.59 -6.58) rotate(1.23)" gradientUnits="userSpaceOnUse"><stop offset="0" stop-color="#6a5f82"/><stop offset="1" stop-color="#3b2449"/></linearGradient><radialGradient id="_Безымянный_градиент_291-3" cx="312.14" cy="473.39" fx="312.14" fy="473.39" r="87.7" xlink:href="#_Безымянный_градиент_291"/><radialGradient id="_Безымянный_градиент_261-2" cx="197.23" cy="567.89" fx="197.23" fy="567.89" r="31.41" xlink:href="#_Безымянный_градиент_261"/><radialGradient id="_Безымянный_градиент_293-2" cx="339.13" cy="369.38" fx="339.13" fy="369.38" r="31.49" xlink:href="#_Безымянный_градиент_293"/><radialGradient id="_Безымянный_градиент_395-3" cx="288.52" cy="5317.44" fx="288.52" fy="5317.44" r="44.66" gradientTransform="translate(68.97 -2783.53) rotate(1.2) scale(1 .63) skewX(-.03)" xlink:href="#_Безымянный_градиент_395"/><radialGradient id="_Безымянный_градиент_271" cx="304.75" cy="5089.8" fx="304.75" fy="5089.8" r="131.44" gradientTransform="translate(68.97 -2783.53) rotate(1.2) scale(1 .63) skewX(-.03)" gradientUnits="userSpaceOnUse"><stop offset=".02" stop-color="#543649"/><stop offset=".99" stop-color="#291734"/></radialGradient><radialGradient id="_Безымянный_градиент_261-3" cx="227.92" cy="-4355.83" fx="227.92" fy="-4355.83" r="6.69" gradientTransform="translate(-241.18 10719.25) rotate(1.2) scale(1.2 2.32) skewX(-.11)" xlink:href="#_Безымянный_градиент_261"/><radialGradient id="_Безымянный_градиент_395-4" cx="230.94" cy="5404.72" fx="230.94" fy="5404.72" r="18.11" gradientTransform="translate(55.63 -2783.81) rotate(1.2) scale(1.2 .63) skewX(-.03)" xlink:href="#_Безымянный_градиент_395"/><radialGradient id="_Безымянный_градиент_395-5" cx="205.21" cy="627.4" fx="205.21" fy="627.4" r="27.89" gradientTransform="translate(.66 8.42) rotate(1.2) scale(1.1 .98) skewX(-.05)" xlink:href="#_Безымянный_градиент_395"/><radialGradient id="_Безымянный_градиент_395-6" cx="179.21" cy="642.19" fx="179.21" fy="642.19" r="12.05" gradientTransform="translate(7.59 8.57) rotate(1.2) scale(1 .98) skewX(-.05)" xlink:href="#_Безымянный_градиент_395"/><radialGradient id="_Безымянный_градиент_291-4" cx="263.4" cy="676.71" fx="263.4" fy="676.71" r="10.48" gradientTransform="translate(773.29 464.68) rotate(89.87) scale(.66 .87) skewX(-.07)" xlink:href="#_Безымянный_градиент_291"/><radialGradient id="_Безымянный_градиент_395-7" cx="37.29" cy="627.4" fx="37.29" fy="627.4" r="27.89" gradientTransform="translate(349.69 15.76) rotate(-178.8) scale(1.1 -.98) skewX(.05)" xlink:href="#_Безымянный_градиент_395"/><radialGradient id="_Безымянный_градиент_395-8" cx="-172.58" cy="627.4" fx="-172.58" fy="627.4" r="27.89" gradientTransform="translate(199.07 12.59) rotate(-178.8) scale(.49 -.98) skewX(.11)" xlink:href="#_Безымянный_градиент_395"/><radialGradient id="_Безымянный_градиент_395-9" cx="-5.19" cy="642.19" fx="-5.19" fy="642.19" r="12.05" gradientTransform="translate(342.76 15.61) rotate(-178.8) scale(1 -.98) skewX(.05)" xlink:href="#_Безымянный_градиент_395"/><radialGradient id="_Безымянный_градиент_292-2" cx="-13.96" cy="676.71" fx="-13.96" fy="676.71" r="10.48" gradientTransform="translate(919 639.42) rotate(-90.13) scale(.66 -.87) skewX(.07)" xlink:href="#_Безымянный_градиент_292"/><radialGradient id="_Безымянный_градиент_395-10" cx="35.78" cy="643.11" fx="35.78" fy="643.11" r="12.05" gradientTransform="translate(342.76 15.61) rotate(-178.8) scale(1 -.98) skewX(.05)" xlink:href="#_Безымянный_градиент_395"/><radialGradient id="_Безымянный_градиент_291-5" cx="47.66" cy="677.73" fx="47.66" fy="677.73" r="10.48" gradientTransform="translate(879.01 680.42) rotate(-90.13) scale(.66 -.87) skewX(.07)" xlink:href="#_Безымянный_градиент_291"/><radialGradient id="_Безымянный_градиент_291-6" cx="311.65" cy="529.39" fx="311.65" fy="529.39" r="44.71" xlink:href="#_Безымянный_градиент_291"/><radialGradient id="_Безымянный_градиент_291-7" cx="353.77" cy="510.83" fx="353.77" fy="510.83" r="3.53" xlink:href="#_Безымянный_градиент_291"/><radialGradient id="_Безымянный_градиент_290-2" cx="270.48" cy="567.53" fx="270.48" fy="567.53" r="3.53" xlink:href="#_Безымянный_градиент_290"/><radialGradient id="_Безымянный_градиент_261-4" cx="272.64" cy="528.91" fx="272.64" fy="528.91" r="31.14" xlink:href="#_Безымянный_градиент_261"/><radialGradient id="_Безымянный_градиент_279" cx="331.52" cy="376.45" fx="331.52" fy="376.45" r="28.23" gradientTransform="translate(7.59 8.57) rotate(1.2) scale(1 .98) skewX(-.05)" gradientUnits="userSpaceOnUse"><stop offset="0" stop-color="#786f76"/><stop offset="1" stop-color="#282737"/></radialGradient><radialGradient id="_Безымянный_градиент_279-2" cx="316.28" cy="443.7" fx="316.28" fy="443.7" r="14.14" xlink:href="#_Безымянный_градиент_279"/><linearGradient id="_Безымянный_градиент_289" x1="287.46" y1="463.38" x2="287.46" y2="445.86" gradientTransform="translate(7.59 -6.58) rotate(1.23)" gradientUnits="userSpaceOnUse"><stop offset="0" stop-color="#282737"/><stop offset="1" stop-color="#786f76"/></linearGradient><linearGradient id="_Безымянный_градиент_289-2" x1="289.38" y1="421" x2="289.38" y2="397.99" xlink:href="#_Безымянный_градиент_289"/><linearGradient id="_Безымянный_градиент_289-3" x1="304.63" y1="448.61" x2="325.03" y2="448.61" xlink:href="#_Безымянный_градиент_289"/><linearGradient id="_Безымянный_градиент_288" x1="286.03" y1="482.99" x2="333.35" y2="482.99" gradientTransform="translate(7.59 -6.58) rotate(1.23)" gradientUnits="userSpaceOnUse"><stop offset=".01" stop-color="#7b7894"/><stop offset=".97" stop-color="#d1bec0"/></linearGradient><linearGradient id="_Безымянный_градиент_287" x1="308.82" y1="480.94" x2="308.82" y2="466.21" gradientTransform="translate(7.59 -6.58) rotate(1.23)" gradientUnits="userSpaceOnUse"><stop offset=".01" stop-color="#7b7894"/><stop offset=".97" stop-color="#69658c"/></linearGradient><radialGradient id="_Безымянный_градиент_285" cx="296.9" cy="406.15" fx="296.9" fy="406.15" r="50.2" gradientTransform="translate(7.59 8.57) rotate(1.2) scale(1 .98) skewX(-.05)" gradientUnits="userSpaceOnUse"><stop offset=".03" stop-color="#88cfb2"/><stop offset=".99" stop-color="#457496"/></radialGradient><linearGradient id="_Безымянный_градиент_284" x1="322.2" y1="486.78" x2="322.2" y2="479.39" gradientTransform="translate(7.59 -6.58) rotate(1.23)" gradientUnits="userSpaceOnUse"><stop offset="0" stop-color="#000"/><stop offset="1" stop-color="#e06b34"/></linearGradient><radialGradient id="_Безымянный_градиент_282" cx="322.67" cy="418.19" fx="322.67" fy="418.19" r="18.29" gradientTransform="translate(7.59 8.57) rotate(1.2) scale(1 .98) skewX(-.05)" gradientUnits="userSpaceOnUse"><stop offset="0" stop-color="#a06d77"/><stop offset="1" stop-color="#6a125a"/></radialGradient><radialGradient id="_Безымянный_градиент_282-2" cx="313.71" cy="260.54" fx="313.71" fy="260.54" r="7.64" gradientTransform="translate(149.84 84.07) rotate(26.52) scale(1 .98) skewX(-1.04)" xlink:href="#_Безымянный_градиент_282"/><radialGradient id="_Безымянный_градиент_282-3" cx="288.01" cy="400.07" fx="288.01" fy="400.07" r="8.63" xlink:href="#_Безымянный_градиент_282"/><linearGradient id="_Безымянный_градиент_281" x1="308.29" y1="396.54" x2="308.29" y2="396.24" gradientTransform="translate(7.59 -6.58) rotate(1.23)" gradientUnits="userSpaceOnUse"><stop offset="0" stop-color="#efcbd1"/><stop offset="1" stop-color="#f8e8cc"/></linearGradient><radialGradient id="_Безымянный_градиент_280" cx="186.93" cy="415.94" fx="186.93" fy="415.94" r="66.7" gradientTransform="translate(7.59 8.57) rotate(1.2) scale(1 .98) skewX(-.05)" gradientUnits="userSpaceOnUse"><stop offset=".02" stop-color="#342135"/><stop offset=".99" stop-color="#291734"/></radialGradient><radialGradient id="_Безымянный_градиент_280-2" cx="169.56" cy="472.4" fx="169.56" fy="472.4" r="15.81" xlink:href="#_Безымянный_градиент_280"/><radialGradient id="_Безымянный_градиент_271-2" cx="186.34" cy="472.22" fx="186.34" fy="472.22" r="8.9" gradientTransform="translate(7.59 8.57) rotate(1.2) scale(1 .98) skewX(-.05)" xlink:href="#_Безымянный_градиент_271"/><radialGradient id="_Безымянный_градиент_280-3" cx="170.93" cy="482.85" fx="170.93" fy="482.85" r="19.92" xlink:href="#_Безымянный_градиент_280"/><radialGradient id="_Безымянный_градиент_271-3" cx="262.8" cy="415.94" fx="262.8" fy="415.94" r="39.95" gradientTransform="translate(7.59 8.57) rotate(1.2) scale(1 .98) skewX(-.05)" xlink:href="#_Безымянный_градиент_271"/><radialGradient id="_Безымянный_градиент_279-3" cx="187.25" cy="372.93" fx="187.25" fy="372.93" r="51.47" xlink:href="#_Безымянный_градиент_279"/><radialGradient id="_Безымянный_градиент_279-4" cx="244.02" cy="415.13" fx="244.02" fy="415.13" r="39.42" xlink:href="#_Безымянный_градиент_279"/><radialGradient id="_Безымянный_градиент_277" cx="376.82" cy="490.82" fx="376.82" fy="490.82" r="238.32" gradientTransform="translate(-25.09 7.88) rotate(1.2) scale(.89 .98) skewX(-.06)" gradientUnits="userSpaceOnUse"><stop offset=".02" stop-color="#984d23"/><stop offset=".99" stop-color="#803c39"/></radialGradient><linearGradient id="_Безымянный_градиент_243" x1="18.17" y1="673.22" x2="18.17" y2="505.73" gradientTransform="translate(7.59 -6.58) rotate(1.23)" gradientUnits="userSpaceOnUse"><stop offset=".02" stop-color="#803221"/><stop offset=".99" stop-color="#803c39"/></linearGradient><linearGradient id="_Безымянный_градиент_243-2" x1="584.42" y1="672.95" x2="584.42" y2="505.45" xlink:href="#_Безымянный_градиент_243"/><radialGradient id="_Безымянный_градиент_276" cx="300.65" cy="582.05" fx="300.65" fy="582.05" r="198.19" gradientTransform="translate(7.59 8.57) rotate(1.2) scale(1 .98) skewX(-.05)" gradientUnits="userSpaceOnUse"><stop offset=".02" stop-color="#884037"/><stop offset=".99" stop-color="#682238"/></radialGradient><radialGradient id="_Безымянный_градиент_275" cx="300.65" cy="582.05" fx="300.65" fy="582.05" r="198.19" gradientTransform="translate(7.59 8.57) rotate(1.2) scale(1 .98) skewX(-.05)" gradientUnits="userSpaceOnUse"><stop offset="0" stop-color="#a06d59"/><stop offset="1" stop-color="#6a0039"/></radialGradient><linearGradient id="_Безымянный_градиент_274" x1="103.86" y1="661.17" x2="103.86" y2="505.66" gradientTransform="translate(7.59 -6.58) rotate(1.23)" gradientUnits="userSpaceOnUse"><stop offset="0" stop-color="#750042"/><stop offset="1" stop-color="#e5916c"/></linearGradient><linearGradient id="_Безымянный_градиент_274-2" x1="455.62" y1="662.34" x2="455.62" y2="505.51" xlink:href="#_Безымянный_градиент_274"/><linearGradient id="_Безымянный_градиент_274-3" x1="534.83" y1="662.29" x2="534.83" y2="505.47" xlink:href="#_Безымянный_градиент_274"/><linearGradient id="_Безымянный_градиент_273" x1="366.13" y1="661.89" x2="366.13" y2="505.53" gradientTransform="translate(7.59 -6.58) rotate(1.23)" gradientUnits="userSpaceOnUse"><stop offset="0" stop-color="#000"/><stop offset="1" stop-color="#725827"/></linearGradient><linearGradient id="_Безымянный_градиент_273-2" x1="179.25" y1="661.21" x2="179.25" y2="505.65" xlink:href="#_Безымянный_градиент_273"/><linearGradient id="_Безымянный_градиент_273-3" x1="138.95" y1="613.39" x2="138.95" y2="505.67" xlink:href="#_Безымянный_градиент_273"/><linearGradient id="_Безымянный_градиент_272" x1="242.17" y1="661.58" x2="242.17" y2="519.48" gradientTransform="translate(7.59 -6.58) rotate(1.23)" gradientUnits="userSpaceOnUse"><stop offset="0" stop-color="#e5916c"/><stop offset="1" stop-color="#750042"/></linearGradient><linearGradient id="_Безымянный_градиент_272-2" x1="241.63" y1="661.29" x2="241.63" y2="551.8" xlink:href="#_Безымянный_градиент_272"/><linearGradient id="_Безымянный_градиент_272-3" x1="491.38" y1="662.34" x2="491.38" y2="535.74" xlink:href="#_Безымянный_градиент_272"/><linearGradient id="_Безымянный_градиент_272-4" x1="495.89" y1="661.87" x2="495.89" y2="551.67" xlink:href="#_Безымянный_градиент_272"/><linearGradient id="_Безымянный_градиент_222" x1="356.47" y1="476.71" x2="417.71" y2="476.71" gradientTransform="translate(7.59 -6.58) rotate(1.23)" gradientUnits="userSpaceOnUse"><stop offset=".02" stop-color="#db2d15"/><stop offset=".99" stop-color="#982138"/></linearGradient><radialGradient id="_Безымянный_градиент_270" cx="798.18" cy="202.77" fx="798.18" fy="202.77" r="417.3" gradientTransform="translate(42.75 -2.03) rotate(.41) scale(.43 1)" gradientUnits="userSpaceOnUse"><stop offset=".02" stop-color="#40201a"/><stop offset="1" stop-color="#311a1a"/></radialGradient><radialGradient id="_Безымянный_градиент_269" cx="1077.51" cy="231.15" fx="1077.51" fy="231.15" r="41.12" gradientTransform="translate(37.95 10.65) rotate(.41) scale(.36 .96)" gradientUnits="userSpaceOnUse"><stop offset=".02" stop-color="#40201a"/><stop offset="1" stop-color="#411a11"/></radialGradient><radialGradient id="_Безымянный_градиент_269-2" cx="737.69" cy="216.94" fx="737.69" fy="216.94" r="42.95" gradientTransform="translate(48.94 -1.98) rotate(.41) scale(.44 1)" xlink:href="#_Безымянный_градиент_269"/><radialGradient id="_Безымянный_градиент_266" cx="285.2" cy="376.1" fx="285.2" fy="376.1" r="35.85" gradientTransform="translate(107.3 -1.56) rotate(.41) scale(.8 1)" gradientUnits="userSpaceOnUse"><stop offset="0" stop-color="#aba4ce"/><stop offset="1" stop-color="#5b4339"/></radialGradient><radialGradient id="_Безымянный_градиент_267" cx="299.79" cy="359.51" fx="299.79" fy="359.51" r="12.91" gradientTransform="translate(107.3 -1.56) rotate(.41) scale(.8 1)" gradientUnits="userSpaceOnUse"><stop offset="0" stop-color="#645fb9"/><stop offset="1" stop-color="#3b1e18"/></radialGradient><radialGradient id="_Безымянный_градиент_266-2" cx="679.09" cy="359.22" fx="679.09" fy="359.22" r="10.75" gradientTransform="translate(-16.23 -2.45) rotate(.41) scale(.54 1)" xlink:href="#_Безымянный_градиент_266"/><radialGradient id="_Безымянный_градиент_265" cx="255.41" cy="347.49" fx="255.41" fy="347.49" r="245.9" gradientTransform="translate(107.3 -1.56) rotate(.41) scale(.8 1)" gradientUnits="userSpaceOnUse"><stop offset=".02" stop-color="#54231d"/><stop offset="1" stop-color="#40201a"/></radialGradient><radialGradient id="_Безымянный_градиент_264" cx="256.35" cy="384.32" fx="256.35" fy="384.32" r="26.39" gradientTransform="translate(107.3 -1.56) rotate(.41) scale(.8 1)" gradientUnits="userSpaceOnUse"><stop offset="0" stop-color="#e1deec"/><stop offset="1" stop-color="#9a8c85"/></radialGradient><linearGradient id="_Безымянный_градиент_223" x1="704.94" y1="254.18" x2="704.94" y2="213.66" gradientTransform="translate(1135.69 149.96) rotate(-169.83) scale(1.01 -.77)" gradientUnits="userSpaceOnUse"><stop offset="0" stop-color="#f8e8e4"/><stop offset="1" stop-color="#bcabba"/></linearGradient></defs><g style="isolation:isolate;"><g id="_Слой_2"><g id="_Слой_1-2"><polygon points="424.24 668.87 189.53 663.13 194.24 66.09 428.52 52.47 424.24 668.87" style="fill:#ffab88; fill-rule:evenodd; stroke-width:0px;"/><path d="m428.52,52.47l-4.28,616.41-228.63-5.74-1.37-597.04,234.28-13.62m-33.9-13.92l-213.43,13.92,2.24,620.6,255.75,2.64,4.33-623.14-48.9-14.02Z" style="fill:url(#linear-gradient); stroke-width:0px;"/><g style="clip-path:url(#clippath);"><rect x="171.24" y="657.27" width="271.17" height="25.46" transform="translate(14.14 -6.3) rotate(1.2)" style="fill:url(#_Безымянный_градиент_295); stroke-width:0px;"/><polygon points="127.01 67.71 131.69 450.34 510.13 458.29 539.94 68.75 127.01 67.71" style="fill:url(#_Безымянный_градиент_263); fill-rule:evenodd; stroke-width:0px;"/><polygon points="151.24 430.17 147.79 91.15 518.44 95.54 489.89 431.58 151.24 430.17" style="fill:url(#_Безымянный_градиент_258); fill-rule:evenodd; stroke-width:0px;"/><polygon points="170.45 426.22 167.81 115.31 490.59 122.09 473.59 429.8 170.45 426.22" style="fill:url(#_Безымянный_градиент_254); fill-rule:evenodd; stroke-width:0px;"/><polygon points="177.91 420.01 175.16 128.39 482.61 132.69 464.74 423.09 177.91 420.01" style="fill:#fff; fill-rule:evenodd; stroke-width:0px;"/><polygon points="176.09 227.59 476.67 229.17 476.57 233.9 176.14 232.45 176.09 227.59" style="fill:url(#_Безымянный_градиент_254-2); fill-rule:evenodd; stroke-width:0px;"/><polygon points="260.08 228.03 258.53 127.98 266.27 128.14 265.8 228.06 260.08 228.03" style="fill:url(#_Безымянный_градиент_254-3); fill-rule:evenodd; stroke-width:0px;"/><polygon points="393.31 230.83 395.96 130.87 403.42 131.02 399.04 230.86 393.31 230.83" style="fill:url(#_Безымянный_градиент_254-4); fill-rule:evenodd; stroke-width:0px;"/><polygon points="147.79 91.15 167.81 115.31 490.59 122.09 518.44 95.54 147.79 91.15" style="fill:#e59378; fill-rule:evenodd; mix-blend-mode:multiply; opacity:.5; stroke-width:0px;"/><polygon points="138.21 71.65 137.94 83.89 529.38 88.19 529.7 73.99 138.21 71.65" style="fill:#e2cbc9; fill-rule:evenodd; stroke-width:0px;"/><polygon points="143.75 93.33 137.51 103.27 532.97 107.66 523.42 97.38 143.75 93.33" style="fill:#cd8e80; fill-rule:evenodd; stroke-width:0px;"/><polygon points="143.26 115.65 137.02 125.59 532.48 129.98 522.93 119.7 143.26 115.65" style="fill:#cd8e80; fill-rule:evenodd; stroke-width:0px;"/><polygon points="142.77 137.96 136.53 147.91 531.98 152.3 522.44 142.02 142.77 137.96" style="fill:#cd8e80; fill-rule:evenodd; stroke-width:0px;"/><polygon points="142.28 160.28 136.04 170.23 531.49 174.62 521.94 164.34 142.28 160.28" style="fill:#cd8e80; fill-rule:evenodd; stroke-width:0px;"/><polygon points="141.79 182.6 135.55 192.55 531 196.94 521.45 186.66 141.79 182.6" style="fill:#cd8e80; fill-rule:evenodd; stroke-width:0px;"/><polygon points="141.3 204.92 135.06 214.87 530.51 219.25 520.96 208.98 141.3 204.92" style="fill:#cd8e80; fill-rule:evenodd; stroke-width:0px;"/><polygon points="140.81 227.24 134.57 237.19 530.02 241.57 520.47 231.3 140.81 227.24" style="fill:#cd8e80; fill-rule:evenodd; stroke-width:0px;"/><polygon points="140.32 249.56 134.08 259.51 529.53 263.89 519.98 253.61 140.32 249.56" style="fill:#cd8e80; fill-rule:evenodd; stroke-width:0px;"/><polygon points="139.82 271.88 133.59 281.83 529.04 286.21 519.49 275.93 139.82 271.88" style="fill:#cd8e80; fill-rule:evenodd; stroke-width:0px;"/><polygon points="139.33 294.2 133.1 304.14 528.55 308.53 519 298.25 139.33 294.2" style="fill:#cd8e80; fill-rule:evenodd; stroke-width:0px;"/><polygon points="138.84 316.52 132.61 326.46 528.06 330.85 518.51 320.57 138.84 316.52" style="fill:#cd8e80; fill-rule:evenodd; stroke-width:0px;"/><polygon points="138.35 338.84 132.12 348.78 527.57 353.17 518.02 342.89 138.35 338.84" style="fill:#cd8e80; fill-rule:evenodd; stroke-width:0px;"/><polygon points="137.86 361.16 131.63 371.1 527.08 375.49 517.53 365.21 137.86 361.16" style="fill:#cd8e80; fill-rule:evenodd; stroke-width:0px;"/><polygon points="137.37 383.47 131.14 393.42 526.59 397.81 517.04 387.53 137.37 383.47" style="fill:#cd8e80; fill-rule:evenodd; stroke-width:0px;"/><polygon points="136.88 405.79 130.65 415.74 526.1 420.13 516.55 409.85 136.88 405.79" style="fill:#cd8e80; fill-rule:evenodd; stroke-width:0px;"/><polygon points="136.39 428.11 130.16 438.06 525.61 442.45 516.06 432.17 136.39 428.11" style="fill:#cd8e80; fill-rule:evenodd; stroke-width:0px;"/><rect x="178.91" y="84.35" width="2.01" height="347.78" transform="translate(-1 .7) rotate(-.22)" style="fill:#cd8e80; stroke-width:0px;"/><polygon points="459.45 441.62 457.45 441.51 478.79 87.15 480.8 87.27 459.45 441.62" style="fill:#cd8e80; stroke-width:0px;"/><ellipse cx="418.61" cy="301.91" rx="134.92" ry="175.29" transform="translate(108.56 714.53) rotate(-88.88)" style="fill:url(#_Безымянный_градиент_439); mix-blend-mode:screen; stroke-width:0px;"/><path d="m270.17,519.63s-17.66-24.61-65.86-27.61c0,0-21.1,37.4-11.77,79.93l-10.24-1.16s5.12-51.1,19.23-83.31c0,0,34.9,3.72,74.33,20.95,0,0-.23,10.65-5.69,11.2Z" style="fill:url(#_Безымянный_градиент_291); fill-rule:evenodd; stroke-width:0px;"/><path d="m274.51,513.19c-.05,2.26-1.31,4.07-2.81,4.04-1.5-.03-2.68-1.89-2.63-4.15.05-2.26,1.31-4.07,2.81-4.04s2.68,1.89,2.63,4.15Z" style="fill:url(#_Безымянный_градиент_291-2); fill-rule:evenodd; stroke-width:0px;"/><path d="m190.02,566.86c-.05,2.26-1.31,4.07-2.81,4.04s-2.68-1.89-2.63-4.15c.05-2.26,1.31-4.07,2.81-4.04s2.68,1.89,2.63,4.15Z" style="fill:url(#_Безымянный_градиент_290); fill-rule:evenodd; stroke-width:0px;"/><path d="m201.53,487.48l-7.47-.16s-15.58,44.32-14.91,83.4l3.15.07s6.64-51.48,19.23-83.31Z" style="fill:url(#_Безымянный_градиент_261); fill-rule:evenodd; stroke-width:0px;"/><path d="m203.66,493.6s40.59.67,66.51,26.03c0,0-15.33-24.11-65.73-28.27l-.78,2.24Z" style="fill:#523660; fill-rule:evenodd; stroke-width:0px;"/><path d="m249.96,613.68l-31.23,17.78s-2.37,4.51-3.01,9.58l2.76.06s1.86-4.08,2.86-5.29c2.2-2.66,30.15-8.96,30.15-8.96l3.74-13.06-5.28-.11Z" style="fill:#1c1321; fill-rule:evenodd; stroke-width:0px;"/><path d="m248.73,613.66l-31.23,17.78s-2.37,4.51-3.01,9.58l2.76.06s1.86-4.08,2.86-5.29c2.2-2.66,30.15-8.96,30.15-8.96l.51-2.34-2.04-10.82Z" style="fill:url(#_Безымянный_градиент_395); fill-rule:evenodd; stroke-width:0px;"/><path d="m223.66,645c-.12,5.32-4.62,9.54-10.06,9.42-5.44-.11-9.76-4.52-9.64-9.84s4.62-9.54,10.06-9.42c5.44.11,9.76,4.52,9.64,9.84Z" style="fill:url(#_Безымянный_градиент_395-2); fill-rule:evenodd; stroke-width:0px;"/><ellipse cx="210.4" cy="644.72" rx="7.48" ry="5.7" transform="translate(-439.05 840.03) rotate(-88.66)" style="fill:url(#_Безымянный_градиент_292); stroke-width:0px;"/><path d="m298.8,385.92s-31.51,102.7-55.43,183.51l85.38-6.25s36.94-84.7,48.01-182.46c0,0-31.57-6.94-77.96,5.2Z" style="fill:url(#_Безымянный_градиент_293); fill-rule:evenodd; stroke-width:0px;"/><path d="m148.26,570.55s92.7,11.83,185.77,6.94c0,0-53.48-7.21-97.24-7.02l-88.53.08Z" style="fill:url(#_Безымянный_градиент_294); fill-rule:evenodd; stroke-width:0px;"/><path d="m236.9,564.93s57.23-.71,91.85-1.75c0,0,28.68-84.38,48.17-183.64l5.4.11s-18.69,115.29-48.29,197.83c0,0-26.52,2.23-97.24-7.02l.12-5.54Z" style="fill:url(#_Безымянный_градиент_291-3); fill-rule:evenodd; stroke-width:0px;"/><polygon points="236.9 564.93 148.42 563.07 148.26 570.55 236.78 570.47 236.9 564.93" style="fill:url(#_Безымянный_градиент_261-2); fill-rule:evenodd; stroke-width:0px;"/><path d="m382.32,379.65s-43.05-28.55-87.46,4.66c0,0,36.26-10.23,81.9-3.59l5.56-1.07Z" style="fill:url(#_Безымянный_градиент_293-2); fill-rule:evenodd; stroke-width:0px;"/><path d="m148.42,563.07s-1.09-11.54,3.55-15.33c0,0,91.97-4.56,170.95,10.13l5.34,5.38-90.12,1.67-89.72-1.84Z" style="fill:url(#_Безымянный_градиент_395-3); fill-rule:evenodd; stroke-width:0px;"/><path d="m236.9,564.93l4.17-10.7-89.1-6.49s-4.87,3.53-3.55,15.33l88.48,1.86Z" style="fill:#3d2940; fill-rule:evenodd; mix-blend-mode:screen; opacity:.5; stroke-width:0px;"/><path d="m151.97,547.74l80.86,6.53s54.74-.75,90.09,3.59c0,0-70.14-14.67-170.95-10.13Z" style="fill:#674b69; fill-rule:evenodd; stroke-width:0px;"/><path d="m322.93,557.86s29.44-80.68,36.97-113.42c0,0-11.64-49.08,9.25-65.07l7.62,1.34s-26.12,126.91-48.49,182.52l-5.34-5.38Z" style="fill:#1c1321; fill-rule:evenodd; stroke-width:0px;"/><path d="m369.14,379.38s-33-25.89-74.28,4.93c0,0-18.75,26.62-13.79,58.59l-31.76,105.98s48.21,3.65,73.61,8.99c0,0,31.03-83.98,36.97-113.42,0,0-6.98-37.16,9.25-65.07Z" style="fill:url(#_Безымянный_градиент_271); fill-rule:evenodd; stroke-width:0px;"/><path d="m230.16,576.99l51.74,1.09s-12.54,7.4-27.48,7.09c-14.93-.31-24.26-8.18-24.26-8.18Z" style="fill:#1c1321; fill-rule:evenodd; stroke-width:0px;"/><polygon points="248.61 584.65 249.53 609.79 259.06 609.99 260.56 584.85 248.61 584.65" style="fill:url(#_Безымянный_градиент_261-3); fill-rule:evenodd; stroke-width:0px;"/><polygon points="247.14 599.88 261.36 600.18 259.36 626.44 248.26 626.21 247.14 599.88" style="fill:url(#_Безымянный_градиент_395-4); fill-rule:evenodd; stroke-width:0px;"/><path d="m247.99,613.05l-69.67,16.97s-5.21,4.45-6.49,9.5l6.21.13s4.06-4.03,6.28-5.22c4.87-2.6,67.49-8.17,67.49-8.17l1.08-2.33-4.89-10.88Z" style="fill:url(#_Безымянный_градиент_395-5); fill-rule:evenodd; stroke-width:0px;"/><path d="m187.83,642.77c-.12,5.32-4.62,9.54-10.06,9.42s-9.76-4.52-9.64-9.84,4.62-9.54,10.06-9.42c5.44.11,9.76,4.52,9.64,9.84Z" style="fill:url(#_Безымянный_градиент_395-6); fill-rule:evenodd; stroke-width:0px;"/><ellipse cx="180.83" cy="643.51" rx="7.48" ry="5.7" transform="translate(-466.73 809.29) rotate(-88.66)" style="fill:url(#_Безымянный_градиент_291-4); stroke-width:0px;"/><path d="m260.38,613.31l68.86,19.88s5.01,4.67,6.07,9.77l-6.21-.13s-3.88-4.2-6.04-5.47c-4.75-2.8-67.07-11-67.07-11l-.98-2.38,5.36-10.67Z" style="fill:url(#_Безымянный_градиент_395-7); fill-rule:evenodd; stroke-width:0px;"/><path d="m259.81,613.3l30.42,19.07s2.17,4.61,2.58,9.69l-2.76-.06s-1.68-4.15-2.62-5.4c-2.08-2.75-29.73-10.21-29.73-10.21l-3.17-13.2,5.28.11Z" style="fill:#674b69; fill-rule:evenodd; stroke-width:0px;"/><path d="m254.53,613.19l30.42,19.07s2.17,4.61,2.58,9.69l-2.76-.06s-1.68-4.15-2.62-5.4c-2.08-2.75-29.73-10.21-29.73-10.21l-.4-2.36,2.52-10.73Z" style="fill:url(#_Безымянный_градиент_395-8); fill-rule:evenodd; stroke-width:0px;"/><path d="m319.18,645.53c-.12,5.32,4.2,9.72,9.64,9.84,5.44.11,9.95-4.11,10.06-9.42s-4.2-9.72-9.64-9.84c-5.44-.11-9.95,4.11-10.06,9.42Z" style="fill:url(#_Безымянный_градиент_395-9); fill-rule:evenodd; stroke-width:0px;"/><ellipse cx="326.14" cy="646.57" rx="7.48" ry="5.7" transform="translate(-327.86 957.54) rotate(-88.66)" style="fill:url(#_Безымянный_градиент_292-2); stroke-width:0px;"/><path d="m290.23,632.37l-5.28-.11s2.21,4.74,2.58,9.69l5.28.11s-.49-6.24-2.58-9.69Z" style="fill:#443354; fill-rule:evenodd; stroke-width:0px;"/><path d="m278.2,645.56c-.12,5.32,4.2,9.72,9.64,9.84s9.95-4.11,10.06-9.42c.12-5.32-4.2-9.72-9.64-9.84-5.44-.11-9.95,4.11-10.06,9.42Z" style="fill:url(#_Безымянный_градиент_395-10); fill-rule:evenodd; stroke-width:0px;"/><ellipse cx="285.16" cy="646.6" rx="7.48" ry="5.7" transform="translate(-367.92 916.6) rotate(-88.66)" style="fill:url(#_Безымянный_градиент_291-5); stroke-width:0px;"/><path d="m348.69,521.75s-17.66-24.6-65.86-27.61c0,0-21.1,37.4-11.77,79.93l-10.24-1.16s5.12-51.1,19.23-83.31c0,0,34.9,3.72,74.33,20.95,0,0-.23,10.65-5.69,11.2Z" style="fill:url(#_Безымянный_градиент_291-6); fill-rule:evenodd; stroke-width:0px;"/><path d="m353.03,515.31c-.05,2.26-1.31,4.07-2.81,4.04s-2.68-1.89-2.63-4.15c.05-2.26,1.31-4.07,2.81-4.04s2.68,1.89,2.63,4.15Z" style="fill:url(#_Безымянный_градиент_291-7); fill-rule:evenodd; stroke-width:0px;"/><path d="m268.54,568.98c-.05,2.26-1.31,4.07-2.81,4.04s-2.68-1.89-2.63-4.15c.05-2.26,1.31-4.07,2.81-4.04s2.68,1.89,2.63,4.15Z" style="fill:url(#_Безымянный_градиент_290-2); fill-rule:evenodd; stroke-width:0px;"/><path d="m280.05,489.6l-7.47-.16s-15.58,44.32-14.91,83.4l3.15.07s6.64-51.48,19.23-83.31Z" style="fill:url(#_Безымянный_градиент_261-4); fill-rule:evenodd; stroke-width:0px;"/><path d="m282.18,495.72s40.59.67,66.51,26.03c0,0-15.33-24.11-65.73-28.27l-.78,2.24Z" style="fill:#523660; fill-rule:evenodd; stroke-width:0px;"/><path d="m292.74,394.31s16.29-18.55,34.22-20.04c24.16-2.01,34.76,14.4,34.76,14.4,0,0,2.04-6.47,7.42-9.3,0,0-37.68-19.71-72.67,4.97,0,0-4.6,3.08-3.73,9.96Z" style="fill:url(#_Безымянный_градиент_279); fill-rule:evenodd; mix-blend-mode:screen; opacity:.5; stroke-width:0px;"/><path d="m283.34,442.84l75.24-.23s-13.63,1.44-30.15,3.03c-18.91,1.82-45.09-2.8-45.09-2.8Z" style="fill:#271a2d; fill-rule:evenodd; stroke-width:0px;"/><path d="m294.9,445.59c-2,.37,4.61,4.73,17.41,5.99,12.8,1.26,22.59-5.36,21.73-5.17-.85.19-6.72,1.73-19.75,1.13-13.05-.61-19.11-2-19.4-1.95Z" style="fill:url(#_Безымянный_градиент_279-2); fill-rule:evenodd; mix-blend-mode:screen; opacity:.3; stroke-width:0px;"/><path d="m289.36,445.47c-6.05-1.07-10.3,15.38-9.88,17.05.42,1.67,2.87-6.46,5.95-7.85,6.06-2.74,6.78-8.7,3.94-9.2Z" style="fill:url(#_Безымянный_градиент_289); fill-rule:evenodd; mix-blend-mode:screen; opacity:.3; stroke-width:0px;"/><path d="m285.19,420.48s-1.62-15.75,5.1-22.91c3.48,4.61-3.76,11.43-5.1,22.91Z" style="fill:url(#_Безымянный_градиент_289-2); fill-rule:evenodd; mix-blend-mode:screen; opacity:.55; stroke-width:0px;"/><path d="m302.56,446.65s2.23,2.4,9.46,3.65c7.23,1.25,10.92-2.66,10.92-2.66,0,0-14.71-.24-20.38-.99Z" style="fill:url(#_Безымянный_градиент_289-3); fill-rule:evenodd; mix-blend-mode:screen; opacity:.55; stroke-width:0px;"/><path d="m281.07,457.85l4.77-2.83,37.69-54.26.71-3.85s6.56,1.06,8.53,4.04l-6.39,1.69-36.73,54.88-.04,4.46s-5.31-.21-8.54-4.13Z" style="fill:#4f425a; stroke-width:0px;"/><polygon points="283.1 486.25 285.17 480.96 328.92 479.62 330.41 487.24 283.1 486.25" style="fill:url(#_Безымянный_градиент_288); stroke-width:0px;"/><path d="m295.22,480.65s6.91-2.19,9.81-14.52l2.59.05s.99,10.01,9.21,13.8l-21.6.66Z" style="fill:url(#_Безымянный_градиент_287); stroke-width:0px;"/><path d="m340.03,429.75c-.07,2.98-.53,5.87-1.37,8.6-4.17,13.88-17.46,23.87-32.96,23.55-1.79-.04-3.56-.21-5.28-.53-11.68-2.05-21.21-9.99-25.36-20.51h0c-1.55-3.89-2.34-8.12-2.25-12.53.13-5.73,1.74-11.08,4.49-15.7,3.87-6.57,10.01-11.7,17.34-14.37,3.89-1.43,8.11-2.17,12.5-2.08h.21c.1,0,.2,0,.29.02,10.28.35,19.34,5.21,25.24,12.57,1.59,1.97,2.95,4.12,4.04,6.43,2.1,4.41,3.22,9.35,3.11,14.54Z" style="fill:url(#_Безымянный_градиент_285); stroke-width:0px;"/><path d="m279.32,456.76l-2.9,4.95c11,7.15,46.84,14.92,64.89-10.28,19.42-27.11-.5-57.1-15.22-64.11l-4.5,8.11c16.41,8.44,27.58,27.84,18.61,48.06-12.18,27.46-45.96,23.34-60.89,13.27Z" style="fill:#4f425a; stroke-width:0px;"/><polygon points="313.78 480.08 314.74 486.91 324.88 487.13 325.04 479.74 313.78 480.08" style="fill:url(#_Безымянный_градиент_284); mix-blend-mode:screen; stroke-width:0px;"/><g style="opacity:.5;"><path d="m340.03,429.75c-.07,2.98-.53,5.87-1.37,8.6-1.27.12-2.57-.04-3.64-.53-1.71-.77-3.48-1.36-5.2-2.22-3.45-1.75-2.95-4.7-4.24-7.86-.57-1.37-.89-2.61-1.62-3.88-.72-1.29-1.98-2.45-2.54-3.74-2.13.57.73,2.56,1.06,3.3.69,1.59-.68,2.74-1.16,4.12-1,2.87-.55,6.32-3.48,7.96-1.05.57-2.1,1.35-3.12,1.79-1.08.45-2.35.18-3.52.52-1.73.53-5.26,4.68-6.65,2.54-.83-1.29.62-2.71.4-3.87-.24-1.21-1.24-1.79-1.32-3.2-.09-1.3-.13-2.49-.22-3.7-.08-1.14-.24-2.18-.46-3.46-.2-1.23.07-2.56-.1-3.86-.09-.7-.48-1.07-.44-1.81.03-.65.54-1.18.55-1.83,0-1.69-1.42-1.81.39-2.97.65-.41,2.44-1.25,3.12-1.39.98-.18,2.38.02,3.51-.11,1.19-.13,2.44-.15,3.58.08,1.36.28,2.76,1.16,4.12,1.3,1.07.1,2.42.02,3.58.03.4-1.5-2.54-2.97-3.81-3.59-.66,3.77-4.3-.15-5.77-.21,1.31-2.36,3.15-4.5,5.71-4.67,2.06-.14,5.76-.55,7.5.46-2.05,3.28,5.79,4.09,7.3,5.05,1.31.83,2.78,1.88,4.34,2.49.15.06.29.11.43.16,2.1,4.41,3.22,9.35,3.11,14.54Z" style="fill:url(#_Безымянный_градиент_282); fill-rule:evenodd; mix-blend-mode:multiply; opacity:.5; stroke-width:0px;"/><path d="m319.47,449.51c-.45-1.3-2.32-2.55-3.4-3.39-1.66-1.28-2.76-.91-4.62-1.24-1.07-.19-.83-.34-1.66-.73-.8-.38-1.34-.83-2.31-.74-2.06.2-2.29,2-3.41,3.47-1.01,1.32-2.31,3.22-3.52,4.3.68.32,1.42.41,2,.63.94.35,1.6.96,2.38,1.41,1.45.82,2.38,1.97,3.71,2.93,3.13,2.25,6.88-.06,9.37-2.22.9-.79,3.62-3.59,1.47-4.42Z" style="fill:url(#_Безымянный_градиент_282-2); fill-rule:evenodd; mix-blend-mode:multiply; opacity:.5; stroke-width:0px;"/><path d="m296.31,402.44c-.64,1.18-2.58,2.67-3.71,3.39-1.45.94-2.66,2.44-4.34,3.06-3.17,1.13-10,5.26-10.95,3.74,3.87-6.57,10.01-11.7,17.34-14.37,1.26,1.02,2.32,2.97,1.66,4.18Z" style="fill:url(#_Безымянный_градиент_282-3); fill-rule:evenodd; mix-blend-mode:multiply; opacity:.5; stroke-width:0px;"/></g><path d="m307.36,396.19c-.05.1-.08.19-.12.29l.05-.29h.07Z" style="fill:url(#_Безымянный_градиент_281); fill-rule:evenodd; stroke-width:0px;"/><path d="m310.09,473.6l-9.91,3.14s3.2-4.23,4.11-7.96l3.85.02s.64,2.8,1.95,4.8Z" style="fill:#794264; fill-rule:evenodd; mix-blend-mode:multiply; opacity:.5; stroke-width:0px;"/><polygon points="108.77 472.6 111.82 370.62 262.32 365.43 258.06 475.74 108.77 472.6" style="fill:url(#_Безымянный_градиент_280); fill-rule:evenodd; stroke-width:0px;"/><polygon points="146.17 473.39 146.49 459.04 193.94 460.04 196.71 474.45 146.17 473.39" style="fill:#1c1321; fill-rule:evenodd; stroke-width:0px;"/><polygon points="148.13 485.59 154.99 461.41 185.81 462.06 180.66 485.93 148.13 485.59" style="fill:url(#_Безымянный_градиент_280-2); fill-rule:evenodd; stroke-width:0px;"/><polygon points="185.81 462.06 186.57 473.93 185.31 485.98 180.66 485.93 185.81 462.06" style="fill:url(#_Безымянный_градиент_271-2); fill-rule:evenodd; stroke-width:0px;"/><polygon points="196.17 486.1 196.22 483.84 141.99 481.57 139.96 485.42 196.17 486.1" style="fill:url(#_Безымянный_градиент_280-3); fill-rule:evenodd; stroke-width:0px;"/><polygon points="262.32 365.43 264.71 366.63 261.98 475.18 258.06 475.74 262.32 365.43" style="fill:url(#_Безымянный_градиент_271-3); fill-rule:evenodd; stroke-width:0px;"/><polygon points="114.98 372.66 126.17 386.91 231.48 382.28 258.9 367.3 114.98 372.66" style="fill:url(#_Безымянный_градиент_279-3); fill-rule:evenodd; mix-blend-mode:screen; opacity:.5; stroke-width:0px;"/><polygon points="231.48 382.28 226.51 465.14 252.25 472.09 258.9 367.3 231.48 382.28" style="fill:url(#_Безымянный_градиент_279-4); fill-rule:evenodd; mix-blend-mode:screen; opacity:.2; stroke-width:0px;"/><polygon points="126.17 386.91 124.5 462.94 112.86 469.16 114.98 372.66 126.17 386.91" style="fill:#271a2d; fill-rule:evenodd; mix-blend-mode:multiply; opacity:.2; stroke-width:0px;"/><polygon points="264.32 384.59 277.34 384.86 275.19 396.41 264.06 396.18 264.32 384.59" style="fill:#f3d45e; fill-rule:evenodd; stroke-width:0px;"/><polygon points="263.91 403.12 273.86 403.32 273.7 410.69 263.61 410.48 263.91 403.12" style="fill:#97d440; fill-rule:evenodd; stroke-width:0px;"/><polygon points=".98 499.13 0 483.77 599.05 490.13 596.23 511.64 .98 499.13" style="fill:url(#_Безымянный_градиент_277); fill-rule:evenodd; stroke-width:0px;"/><polygon points=".98 499.13 7.56 666.79 25.22 667.16 22.56 499.59 .98 499.13" style="fill:url(#_Безымянный_градиент_243); fill-rule:evenodd; stroke-width:0px;"/><polygon points="574.64 511.18 562.21 678.44 579.87 678.82 596.23 511.64 574.64 511.18" style="fill:url(#_Безымянный_градиент_243-2); fill-rule:evenodd; stroke-width:0px;"/><polygon points="25.22 667.16 45.49 661.83 53.8 500.24 22.56 499.59 25.22 667.16" style="fill:#501620; fill-rule:evenodd; stroke-width:0px;"/><polygon points="562.21 678.44 543.42 672.29 542.22 510.5 574.64 511.18 562.21 678.44" style="fill:#501620; fill-rule:evenodd; stroke-width:0px;"/><polygon points="33.82 654.87 28.9 499.72 565.89 511 556.51 667.65 33.82 654.87" style="fill:url(#_Безымянный_градиент_276); fill-rule:evenodd; stroke-width:0px;"/><polygon points="556.51 667.65 552.6 667.56 554.98 528.07 45.61 517.37 39.52 655.01 33.82 654.87 28.9 499.72 565.89 511 556.51 667.65" style="fill:url(#_Безымянный_градиент_275); fill-rule:evenodd; mix-blend-mode:multiply; opacity:.5; stroke-width:0px;"/><polygon points="596.23 511.64 574.64 511.18 574.58 512.09 596.21 512.55 596.23 511.64" style="fill:#501620; fill-rule:evenodd; stroke-width:0px;"/><polygon points="22.56 499.59 .98 499.13 1.03 500.43 22.55 500.23 22.56 499.59" style="fill:#501620; fill-rule:evenodd; stroke-width:0px;"/><polygon points="232.42 503.99 232.82 486.07 292.94 486.66 284.72 505.09 232.42 503.99" style="fill:#e89f55; fill-rule:evenodd; mix-blend-mode:soft-light; opacity:.5; stroke-width:0px;"/><polygon points="289.47 505.19 305.85 486.79 321.47 486.94 302.04 505.46 289.47 505.19" style="fill:#e89f55; fill-rule:evenodd; mix-blend-mode:soft-light; opacity:.5; stroke-width:0px;"/><polygon points="33.82 654.87 28.9 499.72 131.23 501.87 131.58 609.62 137.33 625.9 140.06 502.05 167.22 502.63 168.9 658.21 33.82 654.87" style="fill:url(#_Безымянный_градиент_274); fill-rule:evenodd; mix-blend-mode:multiply; opacity:.2; stroke-width:0px;"/><polygon points="432.73 664.59 433.68 508.22 470.81 509 456.84 665.56 432.73 664.59" style="fill:url(#_Безымянный_градиент_274-2); fill-rule:evenodd; mix-blend-mode:multiply; opacity:.2; stroke-width:0px;"/><polygon points="493.63 666.1 521.52 510.07 565.89 511 556.51 667.65 493.63 666.1" style="fill:url(#_Безымянный_градиент_274-3); fill-rule:evenodd; mix-blend-mode:multiply; opacity:.2; stroke-width:0px;"/><polygon points="289.11 661.19 289.47 505.19 433.68 508.22 432.73 664.59 422.27 664.37 423.07 527.4 351.17 531.87 324.41 662.06 289.11 661.19" style="fill:url(#_Безымянный_градиент_273); fill-rule:evenodd; mix-blend-mode:screen; opacity:.2; stroke-width:0px;"/><polygon points="178.86 658.46 184.65 502.99 167.22 502.63 168.9 658.21 178.86 658.46" style="fill:url(#_Безымянный_градиент_273-2); fill-rule:evenodd; mix-blend-mode:screen; opacity:.2; stroke-width:0px;"/><polygon points="131.58 609.62 131.23 501.87 140.06 502.05 137.69 609.75 131.58 609.62" style="fill:url(#_Безымянный_градиент_273-3); fill-rule:evenodd; mix-blend-mode:screen; opacity:.2; stroke-width:0px;"/><polygon points="186.73 658.65 186.44 586.79 212.39 539.58 254.98 518.33 288.64 542.95 286.04 661.11 284.01 661.09 284.91 550.6 251.9 530 214.8 548.48 189.58 588.22 190.07 658.74 186.73 658.65" style="fill:url(#_Безымянный_градиент_272); fill-rule:evenodd; mix-blend-mode:multiply; opacity:.2; stroke-width:0px;"/><polygon points="202.18 658.91 203.39 603.71 219.72 571.84 231.18 560.45 252.12 550.6 269 601.77 264.32 660.22 261.27 660.15 267.27 603.56 260.92 583.02 245.95 560.76 232.62 564.63 219.99 575 205.08 604.29 204.38 659.09 202.18 658.91" style="fill:url(#_Безымянный_градиент_272-2); fill-rule:evenodd; mix-blend-mode:multiply; opacity:.2; stroke-width:0px;"/><polygon points="456.84 665.56 465.09 573.12 482.58 550.57 496.41 539.79 515.01 546.47 514.24 550.78 496.25 546.76 481.68 555.42 469.38 574.09 460.24 665.27 456.84 665.56" style="fill:url(#_Безымянный_градиент_272-3); fill-rule:evenodd; mix-blend-mode:multiply; opacity:.2; stroke-width:0px;"/><polygon points="467.39 664.48 483.91 593.04 493.32 566.62 513.29 556.08 511.55 565.86 497.01 568.86 493.34 573.43 485.1 593.06 471.11 665.4 467.39 664.48" style="fill:url(#_Безымянный_градиент_272-4); fill-rule:evenodd; mix-blend-mode:multiply; opacity:.2; stroke-width:0px;"/><polygon points="357.45 469.9 353.54 486.81 411.98 487.43 415.16 469.87 357.45 469.9" style="fill:url(#_Безымянный_градиент_222); fill-rule:evenodd; stroke-width:0px;"/><polygon points="415.16 469.87 456.08 479.37 455.14 480.46 417.85 472.27 414.81 485.99 455 486.84 455.37 487.89 411.98 487.43 415.16 469.87" style="fill:#6c2138; fill-rule:evenodd; stroke-width:0px;"/><polygon points="453.52 480.11 453.27 486.8 414.32 485.98 416.91 472.07 453.52 480.11" style="fill:#a88097; fill-rule:evenodd; stroke-width:0px;"/><polygon points="366.3 483.3 368.57 472.94 403.34 473.06 400.85 483.57 366.3 483.3" style="fill:#fff; fill-rule:evenodd; mix-blend-mode:soft-light; stroke-width:0px;"/><path d="m363.21,478.26c-.02.93-.67,1.66-1.45,1.65s-1.39-.78-1.37-1.71.67-1.66,1.45-1.65,1.39.78,1.37,1.71Z" style="fill:#fff; fill-rule:evenodd; mix-blend-mode:soft-light; stroke-width:0px;"/><path d="m409.05,478.55c-.02.89-.64,1.6-1.39,1.59s-1.34-.75-1.32-1.64.64-1.6,1.39-1.59,1.34.75,1.32,1.64Z" style="fill:#fff; fill-rule:evenodd; mix-blend-mode:soft-light; stroke-width:0px;"/><polygon points="360.91 439.21 357 456.12 415.44 456.74 418.62 439.18 360.91 439.21" style="fill:#80bcc3; fill-rule:evenodd; stroke-width:0px;"/><polygon points="418.62 439.18 459.54 448.69 458.6 449.78 421.31 441.59 418.27 455.31 458.46 456.15 458.83 457.2 415.44 456.74 418.62 439.18" style="fill:#466f80; fill-rule:evenodd; stroke-width:0px;"/><polygon points="456.98 449.42 456.73 456.12 417.78 455.3 420.37 441.38 456.98 449.42" style="fill:#a88097; fill-rule:evenodd; stroke-width:0px;"/><polygon points="369.77 452.62 372.04 442.26 406.8 442.37 404.31 452.89 369.77 452.62" style="fill:#fff; fill-rule:evenodd; mix-blend-mode:soft-light; stroke-width:0px;"/><path d="m366.67,447.58c-.02.93-.67,1.66-1.45,1.65s-1.39-.78-1.37-1.71.67-1.66,1.45-1.65,1.39.78,1.37,1.71Z" style="fill:#fff; fill-rule:evenodd; mix-blend-mode:soft-light; stroke-width:0px;"/><path d="m412.51,447.87c-.02.89-.64,1.6-1.39,1.59s-1.34-.75-1.32-1.64.64-1.6,1.39-1.59,1.34.75,1.32,1.64Z" style="fill:#fff; fill-rule:evenodd; mix-blend-mode:soft-light; stroke-width:0px;"/><polygon points="456.57 457.18 454.14 478.92 415.16 469.87 358.93 469.9 359.25 468.16 415.19 467.99 452.51 476.13 453.96 459.75 416.68 459.08 359.98 458.52 359.83 456.15 456.57 457.18" style="fill:#39216b; fill-rule:evenodd; stroke-width:0px;"/><polygon points="419.48 459.14 418 468.6 452.51 476.13 453.96 459.75 419.48 459.14" style="fill:#a88097; fill-rule:evenodd; stroke-width:0px;"/><polygon points="363.64 458.56 364.45 468.15 415.19 467.99 418 468.6 419.48 459.14 414.91 458.93 363.64 458.56" style="fill:#ebcdd6; fill-rule:evenodd; stroke-width:0px;"/><polygon points="415.19 467.99 414.84 469.87 358.93 469.9 359.25 468.16 415.19 467.99" style="fill:#5e61c1; fill-rule:evenodd; stroke-width:0px;"/><polygon points="359.98 458.52 359.83 456.15 413.83 456.72 413.78 458.9 359.98 458.52" style="fill:#5e61c1; fill-rule:evenodd; stroke-width:0px;"/></g><path d="m317.73,694.91c1.51-231.63.99-463.27,2.13-694.91,48.65,19.66,97.31,39.3,146.07,58.68-2.69,205.5-5.13,411-7.62,616.5-46.93,6.15-93.65,13.59-140.58,19.73Z" style="fill:url(#_Безымянный_градиент_270); fill-rule:evenodd; stroke-width:0px;"/><path d="m407.86,542.86c.15,41.63.17,83.26,0,124.9,12.76-2.41,25.56-4.64,38.37-6.77.35-39.18.66-78.36.93-117.54-13.1-.28-26.2-.58-39.3-.59Z" style="fill:#7e6744; fill-rule:evenodd; mix-blend-mode:soft-light; stroke-width:0px;"/><path d="m407.85,667.76c.78-1.91,1.17-2.86,1.94-4.76.15-38.35.14-76.7.03-115.05,11.82-.05,23.64.12,35.45.29.75-1.92,1.13-2.88,1.89-4.8-13.1-.28-26.2-.58-39.3-.59.15,41.63.17,83.26,0,124.9Z" style="fill:#361218; fill-rule:evenodd; mix-blend-mode:multiply; opacity:.5; stroke-width:0px;"/><path d="m407.86,542.86c.79,2.04,1.18,3.06,1.96,5.09,11.82-.05,23.64.12,35.45.29.75-1.92,1.13-2.88,1.89-4.8-13.1-.28-26.2-.58-39.3-.59Z" style="fill:#361218; fill-rule:evenodd; mix-blend-mode:multiply; opacity:.4; stroke-width:0px;"/><path d="m409.79,663c-.77,1.9-1.16,2.85-1.94,4.76,12.76-2.41,25.56-4.64,38.37-6.77-.71-.68-1.06-1.02-1.77-1.69-11.57,1.16-23.12,2.38-34.67,3.71Z" style="fill:#b2b992; fill-rule:evenodd; mix-blend-mode:soft-light; stroke-width:0px;"/><path d="m409.79,663c2.61-4.59,3.9-6.88,6.44-11.44,10.03-.99,20.08-1.84,30.13-2.65-.77,4.15-1.15,6.23-1.91,10.39-11.57,1.16-23.12,2.38-34.67,3.71Z" style="fill:#2e0811; fill-rule:evenodd; mix-blend-mode:multiply; opacity:.5; stroke-width:0px;"/><path d="m416.86,561.29c-.15,30.09-.35,60.18-.63,90.27-2.55,4.56-3.83,6.85-6.44,11.44.15-38.35.14-76.7.03-115.05,2.86,5.33,4.26,7.99,7.04,13.34Z" style="fill:#633329; fill-rule:evenodd; mix-blend-mode:multiply; opacity:.4; stroke-width:0px;"/><path d="m409.82,547.96c2.86,5.33,4.26,7.99,7.04,13.34,10.08-.14,20.16-.15,30.23-.16-.73-5.16-1.09-7.73-1.82-12.88-11.82-.17-23.64-.34-35.45-.29Z" style="fill:#b2b992; fill-rule:evenodd; mix-blend-mode:soft-light; stroke-width:0px;"/><path d="m406,217.43c.6,94.1,1.63,188.19,2.2,282.28,13.16.6,26.31,1.48,39.46,2.31.57-90.05,1.06-180.1,1.7-270.15-14.46-4.81-28.9-9.66-43.37-14.45Z" style="fill:#7e6744; fill-rule:evenodd; mix-blend-mode:soft-light; stroke-width:0px;"/><path d="m408.2,499.71c.77-1.77,1.15-2.65,1.92-4.42-.52-90.64-1.43-181.29-1.98-271.93,13.07,4.21,26.1,8.53,39.15,12.76.83-1.7,1.24-2.55,2.08-4.25-14.46-4.81-28.9-9.66-43.37-14.45.6,94.1,1.63,188.19,2.2,282.28Z" style="fill:#361218; fill-rule:evenodd; mix-blend-mode:multiply; opacity:.5; stroke-width:0px;"/><path d="m406,217.43c.86,2.37,1.29,3.56,2.14,5.93,13.07,4.21,26.1,8.53,39.15,12.76.83-1.7,1.24-2.55,2.08-4.25-14.46-4.81-28.9-9.66-43.37-14.45Z" style="fill:#361218; fill-rule:evenodd; mix-blend-mode:multiply; opacity:.4; stroke-width:0px;"/><path d="m410.12,495.29c-.77,1.77-1.15,2.65-1.92,4.42,13.16.6,26.31,1.48,39.46,2.31-.74-1.94-1.1-2.91-1.84-4.86-11.9-.68-23.8-1.38-35.7-1.87Z" style="fill:#b2b992; fill-rule:evenodd; mix-blend-mode:soft-light; stroke-width:0px;"/><path d="m410.12,495.29c2.63-4.84,3.93-7.25,6.53-12.06,10.39.67,20.78,1.47,31.17,2.23-.8,4.68-1.2,7.02-2,11.71-11.9-.68-23.8-1.38-35.7-1.87Z" style="fill:#2e0811; fill-rule:evenodd; mix-blend-mode:multiply; opacity:.5; stroke-width:0px;"/><path d="m449.33,247.67c-.81-4.61-1.22-6.92-2.04-11.55.82,4.62,1.22,6.93,2.04,11.55Z" style="fill:#633329; fill-rule:evenodd; mix-blend-mode:multiply; opacity:.4; stroke-width:0px;"/><path d="m415.87,237.3c.17,81.98.59,163.96.78,245.93-2.6,4.81-3.9,7.22-6.53,12.06-.52-90.64-1.43-181.29-1.98-271.93,3.11,5.58,4.66,8.37,7.74,13.94Z" style="fill:#633329; fill-rule:evenodd; mix-blend-mode:multiply; opacity:.4; stroke-width:0px;"/><path d="m408.14,223.36c3.11,5.58,4.66,8.37,7.74,13.94,11.15,3.45,22.29,6.95,33.45,10.38-.81-4.61-1.22-6.92-2.04-11.55-13.06-4.24-26.09-8.56-39.15-12.76Z" style="fill:url(#_Безымянный_градиент_269); fill-rule:evenodd; stroke-width:0px;"/><path d="m340.51,27.97c-.11,45.93-.1,91.86-.01,137.79,18.09,5.39,36.08,11.09,54.16,16.53-.15-43.94-.15-87.88.05-131.82-18.12-7.35-36.13-15.02-54.2-22.5Z" style="fill:#7e6744; fill-rule:evenodd; mix-blend-mode:soft-light; stroke-width:0px;"/><path d="m340.5,165.76c1.08-1.65,1.61-2.47,2.68-4.12-.1-42.29-.14-84.59-.06-126.88,16.34,6.66,32.65,13.41,49,20.03,1.03-1.73,1.55-2.59,2.58-4.32-18.12-7.35-36.13-15.02-54.2-22.5-.11,45.93-.1,91.86-.01,137.79Z" style="fill:#361218; fill-rule:evenodd; mix-blend-mode:multiply; opacity:.5; stroke-width:0px;"/><path d="m340.51,27.97c1.04,2.72,1.56,4.08,2.61,6.79,16.34,6.66,32.65,13.41,49,20.03,1.03-1.73,1.55-2.59,2.58-4.32-18.12-7.35-36.13-15.02-54.2-22.5Z" style="fill:#361218; fill-rule:evenodd; mix-blend-mode:multiply; opacity:.4; stroke-width:0px;"/><path d="m343.18,161.64c-1.07,1.65-1.61,2.47-2.68,4.12,18.09,5.39,36.08,11.09,54.16,16.53-1.02-2.37-1.53-3.56-2.55-5.93-16.36-4.73-32.58-9.91-48.92-14.71Z" style="fill:#b2b992; fill-rule:evenodd; mix-blend-mode:soft-light; stroke-width:0px;"/><path d="m343.18,161.64c3.86-4.63,5.78-6.94,9.58-11.55,14.14,4.42,28.21,9.05,42.36,13.41-1.21,5.14-1.82,7.71-3.03,12.85-16.36-4.73-32.58-9.91-48.92-14.71Z" style="fill:#2e0811; fill-rule:evenodd; mix-blend-mode:multiply; opacity:.5; stroke-width:0px;"/><path d="m353.26,50.95c-.23,33.05-.39,66.09-.49,99.14-3.8,4.61-5.72,6.92-9.58,11.55-.1-42.29-.14-84.59-.06-126.88,4.05,6.49,6.08,9.72,10.14,16.19Z" style="fill:#633329; fill-rule:evenodd; mix-blend-mode:multiply; opacity:.4; stroke-width:0px;"/><path d="m343.12,34.76c4.05,6.49,6.08,9.72,10.14,16.19,13.99,5.51,27.95,11.11,41.98,16.55-1.25-5.08-1.87-7.62-3.11-12.71-16.36-6.62-32.66-13.37-49-20.03Z" style="fill:#b2b992; fill-rule:evenodd; mix-blend-mode:soft-light; stroke-width:0px;"/><path d="m341.46,543.18c-.03,43.6-.16,87.21-.4,130.81,18.53-1.89,37.11-3.6,55.57-6.14.31-41.96.39-83.91.31-125.87-18.49.57-36.99.79-55.48,1.2Z" style="fill:#7e6744; fill-rule:evenodd; mix-blend-mode:soft-light; stroke-width:0px;"/><path d="m341.06,673.99c1.24-2.02,1.85-3.02,3.08-5.04.2-40.16.3-80.32.31-120.48,16.7-.46,33.41-.79,50.11-1.35.96-2.06,1.43-3.09,2.38-5.14-18.49.57-36.99.79-55.48,1.2-.03,43.6-.16,87.21-.4,130.81Z" style="fill:#361218; fill-rule:evenodd; mix-blend-mode:multiply; opacity:.5; stroke-width:0px;"/><path d="m341.46,543.18c1.2,2.12,1.8,3.17,2.99,5.29,16.7-.46,33.41-.79,50.11-1.35.96-2.06,1.43-3.09,2.38-5.14-18.49.57-36.99.79-55.48,1.2Z" style="fill:#361218; fill-rule:evenodd; mix-blend-mode:multiply; opacity:.4; stroke-width:0px;"/><path d="m344.14,668.95c-1.23,2.01-1.85,3.02-3.08,5.04,18.53-1.89,37.11-3.6,55.57-6.14-.94-1.87-1.41-2.81-2.36-4.67-16.65,2.35-33.41,4-50.13,5.78Z" style="fill:#b2b992; fill-rule:evenodd; mix-blend-mode:soft-light; stroke-width:0px;"/><path d="m344.14,668.95c4.17-4.9,6.24-7.35,10.29-12.23,14.12-1.38,28.24-2.71,42.32-4.5-.98,4.38-1.48,6.57-2.48,10.96-16.65,2.35-33.41,4-50.13,5.78Z" style="fill:#2e0811; fill-rule:evenodd; mix-blend-mode:multiply; opacity:.5; stroke-width:0px;"/><path d="m355.33,562.2c-.23,31.51-.52,63.01-.89,94.52-4.05,4.89-6.12,7.33-10.29,12.23.2-40.16.3-80.32.31-120.48,4.38,5.5,6.57,8.24,10.88,13.73Z" style="fill:#633329; fill-rule:evenodd; mix-blend-mode:multiply; opacity:.4; stroke-width:0px;"/><path d="m344.45,548.47c4.38,5.5,6.57,8.24,10.88,13.73,13.9-.54,27.82-.97,41.71-1.69-.98-5.36-1.48-8.03-2.48-13.38-16.7.56-33.41.89-50.11,1.35Z" style="fill:#b2b992; fill-rule:evenodd; mix-blend-mode:soft-light; stroke-width:0px;"/><path d="m407.29,57.33c-.25,43.41-.33,86.81-.3,130.22,14.55,4.86,29.09,9.77,43.64,14.63.49-41.72,1.01-83.44,1.57-125.16-14.99-6.53-29.95-13.12-44.92-19.68Z" style="fill:#7e6744; fill-rule:evenodd; mix-blend-mode:soft-light; stroke-width:0px;"/><path d="m406.99,187.55c.93-1.57,1.4-2.35,2.33-3.92,0-39.97.09-79.94.32-119.9,13.38,5.81,26.76,11.63,40.15,17.43.97-1.66,1.45-2.49,2.42-4.15-14.99-6.53-29.95-13.12-44.92-19.68-.25,43.41-.33,86.81-.3,130.22Z" style="fill:#361218; fill-rule:evenodd; mix-blend-mode:multiply; opacity:.5; stroke-width:0px;"/><path d="m407.29,57.33c.94,2.56,1.41,3.84,2.36,6.4,13.38,5.81,26.76,11.63,40.15,17.43.97-1.66,1.45-2.49,2.42-4.15-14.99-6.53-29.95-13.12-44.92-19.68Z" style="fill:#361218; fill-rule:evenodd; mix-blend-mode:multiply; opacity:.4; stroke-width:0px;"/><path d="m409.32,183.63c-.93,1.57-1.4,2.35-2.33,3.92,14.55,4.86,29.09,9.77,43.64,14.63-.89-2.24-1.34-3.36-2.23-5.61-13.03-4.29-26.04-8.65-39.08-12.94Z" style="fill:#b2b992; fill-rule:evenodd; mix-blend-mode:soft-light; stroke-width:0px;"/><path d="m409.32,183.63c3.03-5.06,4.55-7.59,7.59-12.64,11.19,3.92,22.37,7.87,33.58,11.75-.84,5.53-1.26,8.3-2.09,13.82-13.03-4.29-26.04-8.65-39.08-12.94Z" style="fill:#2e0811; fill-rule:evenodd; mix-blend-mode:multiply; opacity:.5; stroke-width:0px;"/><path d="m417.97,77.26c-.42,31.24-.77,62.49-1.06,93.73-3.04,5.05-4.56,7.57-7.59,12.64,0-39.97.09-79.94.32-119.9,3.34,5.42,5,8.13,8.33,13.53Z" style="fill:#633329; fill-rule:evenodd; mix-blend-mode:multiply; opacity:.4; stroke-width:0px;"/><path d="m409.64,63.73c3.34,5.42,5,8.13,8.33,13.53,11.24,4.78,22.47,9.56,33.72,14.31-.76-4.16-1.14-6.24-1.9-10.41-13.39-5.8-26.76-11.62-40.15-17.43Z" style="fill:#b2b992; fill-rule:evenodd; mix-blend-mode:soft-light; stroke-width:0px;"/><path d="m340.52,198.28c.28,99.8.77,199.6.87,299.4,18.45.19,36.9.6,55.35.76-.47-95.05-1.49-190.1-2-285.16-18.09-4.96-36.11-10.14-54.22-15Z" style="fill:#7e6744; fill-rule:evenodd; mix-blend-mode:soft-light; stroke-width:0px;"/><path d="m341.39,497.68c1.19-1.9,1.78-2.84,2.95-4.74-.18-96.13-.73-192.25-1.09-288.38,16.37,4.28,32.63,8.95,48.99,13.24,1-1.81,1.5-2.71,2.49-4.51-18.09-4.96-36.11-10.14-54.22-15,.28,99.8.77,199.6.87,299.4Z" style="fill:#361218; fill-rule:evenodd; mix-blend-mode:multiply; opacity:.5; stroke-width:0px;"/><path d="m340.52,198.28c1.09,2.51,1.64,3.77,2.74,6.28,16.37,4.28,32.63,8.95,48.99,13.24,1-1.81,1.5-2.71,2.49-4.51-18.09-4.96-36.11-10.14-54.22-15Z" style="fill:#361218; fill-rule:evenodd; mix-blend-mode:multiply; opacity:.4; stroke-width:0px;"/><path d="m344.34,492.94c-1.18,1.89-1.77,2.84-2.95,4.74,18.45.19,36.9.6,55.35.76-.97-2.01-1.45-3.01-2.43-5.01-16.66-.13-33.31-.38-49.97-.49Z" style="fill:#b2b992; fill-rule:evenodd; mix-blend-mode:soft-light; stroke-width:0px;"/><path d="m344.34,492.94c4.03-5.21,6.03-7.81,9.95-12.99,14.14.3,28.28.78,42.43,1.05-.96,4.96-1.44,7.45-2.41,12.42-16.66-.13-33.31-.38-49.97-.49Z" style="fill:#2e0811; fill-rule:evenodd; mix-blend-mode:multiply; opacity:.5; stroke-width:0px;"/><path d="m394.92,229.96c-1.07-4.86-1.6-7.3-2.67-12.17,1.07,4.87,1.6,7.31,2.67,12.17Z" style="fill:#633329; fill-rule:evenodd; mix-blend-mode:multiply; opacity:.4; stroke-width:0px;"/><path d="m353.28,219.29c.34,86.89.85,173.77,1.01,260.66-3.92,5.18-5.92,7.78-9.95,12.99-.18-96.13-.73-192.25-1.09-288.38,4.01,5.91,6.03,8.85,10.02,14.73Z" style="fill:#633329; fill-rule:evenodd; mix-blend-mode:multiply; opacity:.4; stroke-width:0px;"/><path d="m343.26,204.56c4.01,5.91,6.03,8.85,10.02,14.73,13.9,3.47,27.74,7.19,41.63,10.67-1.07-4.86-1.6-7.3-2.67-12.17-16.36-4.29-32.62-8.95-48.99-13.24Z" style="fill:url(#_Безымянный_градиент_269-2); fill-rule:evenodd; stroke-width:0px;"/><path d="m323.11,326.28c.19,33.26.38,66.52.57,99.77,1.15-.09,1.73-.14,2.89-.23-.3-33.23-.62-66.45-.92-99.68-1.01.06-1.52.08-2.53.14Z" style="fill:#281113; fill-rule:evenodd; stroke-width:0px;"/><path d="m325.64,326.14c5.31,1.05,8,1.58,13.34,2.62-.11,32.47-.23,64.94-.39,97.41-4.81-.14-7.23-.21-12.03-.35-.3-33.23-.62-66.45-.92-99.68Z" style="fill:url(#_Безымянный_градиент_266); fill-rule:evenodd; stroke-width:0px;"/><path d="m340.53,372.93c1.36,10.79-.44,20.21-4.04,21.06-3.6.85-7.61-7.23-8.91-18.06-1.31-10.83.52-20.28,4.08-21.09,3.56-.81,7.52,7.3,8.88,18.09Z" style="fill:#3f3323; fill-rule:evenodd; mix-blend-mode:multiply; opacity:.8; stroke-width:0px;"/><path d="m331.19,411.81c-.16-6.78-.25-10.16-.41-16.94,1.46-.13,2.18-.19,3.64-.32-.15,6.82-.22,10.22-.37,17.04-1.14.09-1.72.13-2.86.22Z" style="fill:#281113; fill-rule:evenodd; stroke-width:0px;"/><path d="m337.9,354.55c-3.37,1.52-5.07,2.29-8.45,3.82,0,2.68,0,4.02,0,6.7,3.39.17,5.09.26,8.49.43-.02-4.38-.02-6.57-.04-10.95Z" style="fill:#281113; fill-rule:evenodd; stroke-width:0px;"/><path d="m354.46,358.98c.07,6.89-4.56,12.79-10.45,13.18-5.89.39-10.72-4.9-10.74-11.83s4.75-12.84,10.59-13.19c5.84-.35,10.53,4.95,10.6,11.84Z" style="fill:url(#_Безымянный_градиент_267); fill-rule:evenodd; stroke-width:0px;"/><path d="m353.84,359.02c.05,5.76-2.55,10.6-5.86,10.82-3.31.22-6.04-4.28-6.07-10.06-.03-5.78,2.63-10.62,5.92-10.82,3.29-.2,5.96,4.31,6.01,10.06Z" style="fill:url(#_Безымянный_градиент_266-2); fill-rule:evenodd; stroke-width:0px;"/><path d="m344.93,352.78c0,1.41-.95,2.6-2.14,2.68-1.19.07-2.17-1.01-2.17-2.41,0-1.41.96-2.61,2.15-2.68,1.19-.07,2.16,1.01,2.17,2.41Z" style="fill:#fff; fill-rule:evenodd; stroke-width:0px;"/><path d="m319.86,0c-8.2.58-12.3.86-20.5,1.44,1.27,229.43,2.74,458.85,4.11,688.27,5.47,2.08,8.36,3.12,14.26,5.19,1.51-231.63.99-463.27,2.13-694.91Z" style="fill:url(#_Безымянный_градиент_265); fill-rule:evenodd; stroke-width:0px;"/><path d="m299.89,305.64c7.43-5.77,11.32-8.65,19.1-14.37.1-60.36.2-120.71.37-181.07-6.62,9.07-13.22,18.16-19.78,27.27.1,56.06.2,112.11.31,168.17Z" style="fill:#e3d1d7; fill-rule:evenodd; mix-blend-mode:soft-light; opacity:.69; stroke-width:0px;"/><path d="m300.43,549.02c6.85-8.04,10.51-12.06,17.9-20.06.11-9.37.17-14.05.28-23.41-7.63,7.32-11.41,10.99-18.48,18.35.12,10.05.18,15.07.31,25.12Z" style="fill:#e3d1d7; fill-rule:evenodd; mix-blend-mode:soft-light; opacity:.69; stroke-width:0px;"/><path d="m299.69,351.34c6.96-.96,10.61-1.44,17.99-2.41.24,22.84.48,45.69.72,68.53-7.48.81-11.17,1.22-18.17,2.02-.18-22.71-.36-45.43-.54-68.14Z" style="fill:url(#_Безымянный_градиент_264); fill-rule:evenodd; stroke-width:0px;"/><path d="m317.67,348.94c.45.35.67.52,1.13.87.11,22.53.22,45.07.33,67.6-.3.02-.44.04-.74.06-.24-22.84-.48-45.69-.72-68.53Z" style="fill:#281113; fill-rule:evenodd; stroke-width:0px;"/><path d="m304.2,378.39c3.14-.51,4.74-.77,7.98-1.28-.03,5.87-.04,8.81-.07,14.68-3,.22-4.49.33-7.42.55-.2-5.58-.3-8.37-.49-13.95Z" style="fill:#281113; fill-rule:evenodd; stroke-width:0px;"/><polygon points="422.91 219.7 424.17 196.04 381.83 180.84 379.94 205.5 422.91 219.7" style="fill:url(#_Безымянный_градиент_223); fill-rule:evenodd; stroke-width:0px;"/><path d="m386.74,197.94l2.8-8.01.41.14.84,9.26.33.11-.28,2.43-.45-.15.19-1.65-3.8-1.31-.19,1.65-.45-.16.28-2.43.33.11Zm2.86-6.74l-2.36,6.91,3.06,1.05-.67-7.95h-.03Z" style="stroke-width:0px;"/><path d="m392,199.45l2.79-4.9.53.18-.76,6.71-.46-.16.64-5.64-2.78,4.91-.53-.18.76-6.71.45.15-.64,5.64Z" style="stroke-width:0px;"/><path d="m396.56,195.14l-.15,1.28c.52-.82,1.08-1.12,1.7-.91.54.19.96.68,1.24,1.49.28.81.37,1.7.26,2.67s-.4,1.78-.85,2.32c-.45.55-.97.72-1.53.53s-1-.81-1.29-1.83l-.47,4.1-.44-.15,1.1-9.64.44.15Zm2.58,4.34c.08-.74.01-1.43-.21-2.07s-.55-1.03-.97-1.17-.8.02-1.15.48-.56,1.07-.65,1.82c-.08.7,0,1.38.22,2.03.23.66.54,1.05.93,1.19.42.15.81-.01,1.17-.47s.58-1.07.66-1.83Z" style="stroke-width:0px;"/><path d="m403.89,201.38l-3.41-1.17c-.08.79-.02,1.45.2,1.99.22.54.55.89.99,1.04.62.21,1.1-.04,1.44-.76l.52.18c-.55,1.18-1.23,1.63-2.03,1.36-.59-.2-1.03-.69-1.32-1.47-.29-.78-.37-1.69-.25-2.75s.4-1.8.85-2.32c.45-.52.96-.68,1.55-.48s1.02.73,1.28,1.58c.24.79.3,1.72.18,2.8Zm-.38-.83c-.01-1.59-.43-2.53-1.24-2.81-.39-.13-.74-.03-1.04.3s-.52.83-.66,1.5l2.94,1.01Z" style="stroke-width:0px;"/><path d="m405.37,198.18l-.76,6.71-.44-.15.76-6.71.44.15Zm1.01,7.32l-1.38-4.13,2.04-2.62.56.19-2.12,2.56,1.48,4.19-.58-.2Z" style="stroke-width:0px;"/><path d="m407.92,206.03l.68-5.95-.94-.32.09-.76,2.33.8-.09.76-.95-.33-.68,5.95-.44-.15Z" style="stroke-width:0px;"/><path d="m409.93,203.23c.11-.98.39-1.74.85-2.29.45-.55.95-.73,1.51-.54s.98.69,1.28,1.5c.3.81.39,1.71.27,2.69-.11.99-.39,1.75-.84,2.3-.45.55-.95.73-1.51.54s-.98-.69-1.27-1.51c-.3-.81-.39-1.71-.28-2.69Zm.46.17c-.09.79-.03,1.49.19,2.11.22.61.55.99.99,1.14s.85.03,1.18-.38c.33-.41.54-1.03.63-1.84s.04-1.54-.17-2.13c-.21-.59-.55-.97-1.02-1.13s-.85-.03-1.18.38c-.33.41-.54,1.03-.63,1.85Z" style="stroke-width:0px;"/><path d="m415.27,201.56l-.15,1.28c.52-.82,1.08-1.12,1.7-.91.54.19.96.68,1.24,1.49.28.81.37,1.7.26,2.67-.11,1-.4,1.78-.85,2.32-.45.55-.97.72-1.53.53s-1-.81-1.29-1.83l-.47,4.1-.44-.15,1.1-9.64.44.15Zm2.58,4.34c.08-.74.01-1.43-.21-2.07s-.55-1.03-.97-1.17-.8.02-1.15.48-.56,1.07-.65,1.82c-.08.7,0,1.38.22,2.03.23.66.54,1.05.93,1.19.42.15.81-.01,1.17-.47s.58-1.07.66-1.83Z" style="stroke-width:0px;"/></g></g></g></svg>