<?xml version="1.0" encoding="UTF-8"?><svg id="_Слой_2" xmlns="http://www.w3.org/2000/svg" width="1921.28" height="114.22" xmlns:xlink="http://www.w3.org/1999/xlink" viewBox="0 0 1921.28 114.22"><defs><linearGradient id="linear-gradient" x1="957.32" y1="297.21" x2="962.76" y2="-43.53" gradientUnits="userSpaceOnUse"><stop offset=".02" stop-color="#503029"/><stop offset=".95" stop-color="#2d1010"/></linearGradient><radialGradient id="_Безымянный_градиент_53" cx="1067.22" cy="-171.87" fx="1067.22" fy="-171.87" r="994.6" gradientTransform="translate(-27.16 250.43) scale(1.03 1.3)" gradientUnits="userSpaceOnUse"><stop offset="0" stop-color="#503323"/><stop offset="1" stop-color="#3b2116"/></radialGradient></defs><g id="_Слой_1-2"><polygon id="_Плинтус" points="1239.47 0 1.91 21.43 1.91 37.51 1921.28 37.51 1921.28 8.93 1239.47 0" style="fill:url(#linear-gradient); fill-rule:evenodd; stroke-width:0px;"/><polygon id="_Пол" points="1241.06 14.29 .15 21.62 .15 114.22 1920 114.22 1920 21.08 1241.06 14.29" style="fill:url(#_Безымянный_градиент_53); fill-rule:evenodd; stroke-width:0px;"/><polygon points="1920 51.83 720.26 18.87 698.39 19.21 1920 52.77 1920 51.83" style="fill:#ae9470; stroke-width:0px;"/><polygon points="1920 92.43 499.63 22.3 485.13 22.53 1920 93.37 1920 92.43" style="fill:#ae9470; stroke-width:0px;"/><polygon points="1674.42 114.22 111.27 28.33 97.91 28.54 1657.29 114.22 1674.42 114.22" style="fill:#ae9470; stroke-width:0px;"/><polygon points="1084.61 114.22 0 41.97 0 42.91 1070.47 114.22 1084.61 114.22" style="fill:#ae9470; stroke-width:0px;"/><polygon points="475.09 114.22 0 80.09 0 81.04 461.97 114.22 475.09 114.22" style="fill:#ae9470; stroke-width:0px;"/></g></svg>