<?xml version="1.0" encoding="UTF-8"?><svg xmlns="http://www.w3.org/2000/svg" width="126.59" height="165.5" xmlns:xlink="http://www.w3.org/1999/xlink" viewBox="0 0 126.59 165.5"><defs><linearGradient id="linear-gradient" x1="111.24" y1="-1.67" x2="91.8" y2="26.49" gradientUnits="userSpaceOnUse"><stop offset="0" stop-color="#dee8e1"/><stop offset="1" stop-color="#a894a7"/></linearGradient><linearGradient id="_Безымянный_градиент_237" x1="23.07" y1="2.98" x2="32.47" y2="34.39" gradientUnits="userSpaceOnUse"><stop offset="0" stop-color="#dee8e1"/><stop offset="1" stop-color="#bcabba"/></linearGradient><linearGradient id="_Безымянный_градиент_237-2" x1="87.52" y1="4.02" x2="33.43" y2="68.82" xlink:href="#_Безымянный_градиент_237"/><linearGradient id="_Безымянный_градиент_237-3" x1="84.22" y1="-18.76" x2="60.77" y2="36.77" xlink:href="#_Безымянный_градиент_237"/><linearGradient id="_Безымянный_градиент_191" x1="94.97" y1="-21.1" x2="21.31" y2="213.12" gradientUnits="userSpaceOnUse"><stop offset="0" stop-color="#7b77f2"/><stop offset="1" stop-color="#5353c3"/></linearGradient><linearGradient id="_Безымянный_градиент_191-2" x1="-115.08" y1="231.21" x2="16.5" y2="121.69" xlink:href="#_Безымянный_градиент_191"/><linearGradient id="_Безымянный_градиент_191-3" x1="48.09" y1="141.55" x2="58.1" y2="74.21" xlink:href="#_Безымянный_градиент_191"/><linearGradient id="_Безымянный_градиент_191-4" x1="68.36" y1="23.67" x2="44.4" y2="110.05" xlink:href="#_Безымянный_градиент_191"/></defs><g style="isolation:isolate;"><g id="_Слой_2"><g id="_Слой_1-2"><polygon points="75.1 15.26 81.63 18.67 89.74 16.76 91.55 24.53 97.2 25.63 101.72 29.54 112.02 28.56 112.77 35.52 77.23 37.1 69.82 18.92 75.1 15.26" style="fill:url(#linear-gradient); fill-rule:evenodd; stroke-width:0px;"/><polygon points="13.06 35.15 13.81 23.92 28.88 22.46 33.15 18.55 42.7 19.53 48.98 23.92 52.49 37.35 13.06 35.15" style="fill:url(#_Безымянный_градиент_237); fill-rule:evenodd; stroke-width:0px;"/><polygon points="48.98 23.92 42.7 19.53 33.91 18.63 34.73 29.03 23.23 31.24 13.54 28.03 13.06 35.15 52.49 37.35 48.98 23.92" style="fill:#9673a3; fill-rule:evenodd; mix-blend-mode:multiply; opacity:.3; stroke-width:0px;"/><polygon points="94.44 18.06 85.65 19.53 85.4 29.29 80.12 28.07 79.12 22.95 70.58 2.2 64.3 0 43.7 12.69 42.95 17.82 38.68 18.31 40.69 28.8 30.14 37.59 95.19 39.06 99.96 26.36 94.44 18.06" style="fill:url(#_Безымянный_градиент_237-2); fill-rule:evenodd; stroke-width:0px;"/><polygon points="89.41 38.57 87.89 19.15 85.65 19.53 85.4 29.29 80.12 28.07 80 27.44 78.36 29.54 57.77 27.34 49.48 15.38 44.97 11.91 43.7 12.69 42.95 17.82 39.19 18.25 46.72 20.99 55.76 26.61 59.25 38.25 64.57 38.37 89.41 38.57" style="fill:url(#_Безымянный_градиент_237-3); fill-rule:evenodd; stroke-width:0px;"/><polygon points="15.07 165.5 109 165.01 121.56 35.15 5.02 34.17 15.07 165.5" style="fill:url(#_Безымянный_градиент_191); fill-rule:evenodd; stroke-width:0px;"/><path d="m42.94,154.95c-6.95-2.7-10.11-75.97-10.91-120.55l-27.01-.23,10.05,131.33,65.81-.34c-19.64-5.21-33.67-8.55-37.93-10.21Z" style="fill:url(#_Безымянный_градиент_191-2); fill-rule:evenodd; stroke-width:0px;"/><path d="m9.54,53.7c30.49-6.5,71.08-9.03,110.67-4.6l1.08-11.17-116.05-.92,4.3,16.69Z" style="fill:url(#_Безымянный_градиент_191-3); fill-rule:evenodd; stroke-width:0px;"/><polygon points="0 42.47 2.01 32.22 125.08 33.2 126.59 44.43 0 42.47" style="fill:url(#_Безымянный_градиент_191-4); fill-rule:evenodd; stroke-width:0px;"/><path d="m71.55,32.77l-42.21-.34c.1,3.4.2,6.95.3,10.49l43.51.67-1.59-10.83Z" style="fill:#fffdbe; fill-rule:evenodd; mix-blend-mode:soft-light; opacity:.5; stroke-width:0px;"/><polygon points="107.18 33.06 93.55 32.95 95.31 43.94 109.6 44.16 107.18 33.06" style="fill:#fffdbe; fill-rule:evenodd; mix-blend-mode:soft-light; opacity:.5; stroke-width:0px;"/><path d="m13.54,28.03l-.29,4.28-11.24-.09-2.01,10.25,5.66.09,9.41,122.94,35.56-.09-14.7-132.75c-22.68-.35-22.11-8.73-22.11-8.73l-.28,4.11Z" style="fill:#6d2464; mix-blend-mode:multiply; opacity:.5; stroke-width:0px;"/></g></g></g></svg>