<?xml version="1.0" encoding="UTF-8"?><svg xmlns="http://www.w3.org/2000/svg" width="147.88" height="242.37" xmlns:xlink="http://www.w3.org/1999/xlink" viewBox="0 0 147.88 242.37"><defs><radialGradient id="_Безымянный_градиент_278" cx="1297.73" cy="171.9" fx="1297.73" fy="171.9" r="47.58" gradientTransform="translate(1409.18 19.08) rotate(-178.45) scale(1.03 -1)" gradientUnits="userSpaceOnUse"><stop offset="0" stop-color="#606a80"/><stop offset=".99" stop-color="#302a3e"/></radialGradient><linearGradient id="_Безымянный_градиент_104" x1="1329.7" y1="253.26" x2="1329.7" y2="194.38" gradientTransform="translate(1409.96 19.1) rotate(-178.45) scale(1 -1)" gradientUnits="userSpaceOnUse"><stop offset="0" stop-color="#302a3e"/><stop offset="1" stop-color="#606a80"/></linearGradient><linearGradient id="_Безымянный_градиент_73" x1="1329.65" y1="259.45" x2="1329.65" y2="240.67" gradientTransform="translate(1409.96 19.1) rotate(-178.45) scale(1 -1)" gradientUnits="userSpaceOnUse"><stop offset="0" stop-color="#d2d4e1"/><stop offset="1" stop-color="#fff3ef"/></linearGradient><linearGradient id="_Безымянный_градиент_134" x1="1335" y1="170.02" x2="1335" y2="17.22" gradientTransform="translate(1409.96 19.1) rotate(-178.45) scale(1 -1)" gradientUnits="userSpaceOnUse"><stop offset="0" stop-color="#302a3e"/><stop offset="1" stop-color="#2f3b59"/></linearGradient><linearGradient id="_Безымянный_градиент_286" x1="1338.03" y1="191.57" x2="1346.12" y2="176.99" gradientTransform="translate(1409.96 19.1) rotate(-178.45) scale(1 -1)" gradientUnits="userSpaceOnUse"><stop offset="0" stop-color="#000024"/><stop offset="1" stop-color="#a5a0a5"/></linearGradient><radialGradient id="_Безымянный_градиент_283" cx="1902.77" cy="899.8" fx="1902.77" fy="899.8" r="25.69" gradientTransform="translate(1480.28 269.32) rotate(-138.46) scale(.58 -1.01) skewX(2.71)" gradientUnits="userSpaceOnUse"><stop offset="0" stop-color="#46496e"/><stop offset=".18" stop-color="#363956"/><stop offset=".55" stop-color="#191a27"/><stop offset=".84" stop-color="#06070a"/><stop offset="1" stop-color="#000"/></radialGradient><radialGradient id="_Безымянный_градиент_283-2" cx="1902.77" cy="899.8" fx="1902.77" fy="899.8" r="9.63" xlink:href="#_Безымянный_градиент_283"/></defs><g style="isolation:isolate;"><g id="_Слой_2"><g id="_Слой_1-2"><path d="m102.84,189.22s-3.65-34.77-26.56-36.18c-22.91-1.42-30.39,35.69-30.39,35.69l56.96.5Z" style="fill:url(#_Безымянный_градиент_278); stroke-width:0px;"/><path d="m147.53,236.1s-11.96-55.11-69.92-58.61C19.66,173.98.3,234.25.3,234.25l147.23,1.86Z" style="fill:url(#_Безымянный_градиент_104); stroke-width:0px;"/><path d="m147.52,236.11c-6.75-6.91-28.44-10.59-53.2-11.81-13-.65-26.81-.62-39.78-.03-26.88,1.23-50.05,4.89-54.25,9.97-8.09,9.77,156.32,11.14,147.23,1.87Z" style="fill:url(#_Безымянный_градиент_73); stroke-width:0px;"/><path d="m54.54,224.28c2.48,8.16,10.14,14.22,19.32,14.47s17.86-5.89,20.45-14.44c-13-.65-26.81-.62-39.78-.03Z" style="fill:#fffdef; stroke-width:0px;"/><polygon points="76.28 153.03 73.44 .11 69.53 0 73.67 152.95 76.28 153.03" style="fill:url(#_Безымянный_градиент_134); stroke-width:0px;"/><path d="m75.31,153.87s-5.07.14-8.45,8.04c-3.38,7.9-3.56,14.49-3.56,14.49l-12.46,2.47s6.6-25.48,24.48-25Z" style="fill:url(#_Безымянный_градиент_286); mix-blend-mode:screen; opacity:.3; stroke-width:0px;"/><path d="m21.72,193.12c-9.81,10.48-12.77,23.4-6.62,28.85,6.15,5.45,19.09,1.37,28.9-9.11,9.81-10.48,12.77-23.4,6.62-28.85-6.15-5.45-19.09-1.37-28.9,9.11Z" style="fill:url(#_Безымянный_градиент_283); mix-blend-mode:screen; stroke-width:0px;"/><path d="m28.68,199.3c-3.68,3.93-4.79,8.77-2.48,10.81,2.31,2.04,7.15.51,10.83-3.41,3.68-3.93,4.79-8.77,2.48-10.81-2.31-2.04-7.15-.51-10.83,3.41Z" style="fill:url(#_Безымянный_градиент_283-2); mix-blend-mode:screen; stroke-width:0px;"/></g></g></g></svg>