<?xml version="1.0" encoding="UTF-8"?><svg xmlns="http://www.w3.org/2000/svg" width="147.89" height="245.07" xmlns:xlink="http://www.w3.org/1999/xlink" viewBox="0 0 147.89 245.07"><defs><radialGradient id="_Безымянный_градиент_278" cx="94.47" cy="157.71" fx="94.47" fy="157.71" r="47.58" gradientTransform="translate(-23.09 1.87) rotate(-1.18) scale(1.03 1)" gradientUnits="userSpaceOnUse"><stop offset="0" stop-color="#606a80"/><stop offset=".99" stop-color="#302a3e"/></radialGradient><linearGradient id="_Безымянный_градиент_104" x1="71.48" y1="239.07" x2="71.48" y2="180.19" gradientTransform="translate(-2.4 1.44) rotate(-1.18)" gradientUnits="userSpaceOnUse"><stop offset="0" stop-color="#302a3e"/><stop offset="1" stop-color="#606a80"/></linearGradient><linearGradient id="_Безымянный_градиент_73" x1="71.43" y1="245.26" x2="71.43" y2="226.48" gradientTransform="translate(-2.4 1.44) rotate(-1.18)" gradientUnits="userSpaceOnUse"><stop offset="0" stop-color="#d2d4e1"/><stop offset="1" stop-color="#fff3ef"/></linearGradient><linearGradient id="_Безымянный_градиент_134" x1="75.37" y1="155.83" x2="75.37" y2=".2" gradientTransform="translate(-2.4 1.44) rotate(-1.18)" gradientUnits="userSpaceOnUse"><stop offset="0" stop-color="#302a3e"/><stop offset="1" stop-color="#2f3b59"/></linearGradient><linearGradient id="_Безымянный_градиент_286" x1="103.3" y1="219.75" x2="114.94" y2="198.76" gradientTransform="translate(-2.4 1.44) rotate(-1.18)" gradientUnits="userSpaceOnUse"><stop offset="0" stop-color="#000024"/><stop offset="1" stop-color="#a5a0a5"/></linearGradient><linearGradient id="_Безымянный_градиент_286-2" x1="10.87" y1="235.79" x2="36.23" y2="190.05" xlink:href="#_Безымянный_градиент_286"/><linearGradient id="_Безымянный_градиент_286-3" x1="79.82" y1="177.38" x2="87.9" y2="162.8" xlink:href="#_Безымянный_градиент_286"/><radialGradient id="_Безымянный_градиент_283" cx="71.99" cy="-408.12" fx="71.99" fy="-408.12" r="20.71" gradientTransform="translate(360.88 529.8) rotate(-41.17) scale(.58 1.01) skewX(2.71)" gradientUnits="userSpaceOnUse"><stop offset="0" stop-color="#46496e"/><stop offset=".18" stop-color="#363956"/><stop offset=".55" stop-color="#191a27"/><stop offset=".84" stop-color="#06070a"/><stop offset="1" stop-color="#000"/></radialGradient><radialGradient id="_Безымянный_градиент_283-2" cx="71.99" cy="-408.12" fx="71.99" fy="-408.12" r="7.76" xlink:href="#_Безымянный_градиент_283"/></defs><g style="isolation:isolate;"><g id="_Слой_2"><g id="_Слой_1-2"><path d="m45.35,191.77s3.87-34.74,26.8-36.01c22.92-1.27,30.16,35.88,30.16,35.88l-56.96.13Z" style="fill:url(#_Безымянный_градиент_278); stroke-width:0px;"/><path d="m.36,238.37s12.32-55.03,70.29-58.16c57.98-3.13,76.95,57.26,76.95,57.26L.36,238.37Z" style="fill:url(#_Безымянный_градиент_104); stroke-width:0px;"/><path d="m.37,238.38c6.8-6.87,28.51-10.41,53.28-11.47,13-.56,26.81-.45,39.77.23,26.87,1.4,50.01,5.21,54.18,10.32,8.03,9.82-156.39,10.13-147.24.91Z" style="fill:url(#_Безымянный_градиент_73); stroke-width:0px;"/><path d="m93.42,227.14c-2.53,8.15-10.23,14.15-19.42,14.34s-17.83-6-20.36-14.57c13-.56,26.81-.45,39.77.23Z" style="fill:#fffdef; stroke-width:0px;"/><polygon points="72.15 155.76 73.08 .08 76.98 0 74.75 155.7 72.15 155.76" style="fill:url(#_Безымянный_градиент_134); stroke-width:0px;"/><path d="m115.61,197.26s6.37,5.03,11.71,12.41c0,0-16.04,1.31-29.22,4.73l-5.96-2.4s11.87-11.52,23.47-14.75Z" style="fill:url(#_Безымянный_градиент_286); mix-blend-mode:screen; opacity:.3; stroke-width:0px;"/><path d="m38.25,190.97s-21.23,13.89-32.95,41.75c0,0,3.76-3.86,25.01-7.66,0,0-12.06-11.81,7.94-34.09Z" style="fill:url(#_Безымянный_градиент_286-2); mix-blend-mode:screen; opacity:.3; stroke-width:0px;"/><path d="m73.1,156.6s5.07.18,8.4,8.1c3.33,7.92,3.47,14.51,3.47,14.51l12.44,2.55s-6.43-25.52-24.32-25.15Z" style="fill:url(#_Безымянный_градиент_286-3); mix-blend-mode:screen; opacity:.3; stroke-width:0px;"/><path d="m121.12,191.04c7.85,8.5,10.17,18.93,5.18,23.3-4.99,4.36-15.4,1.01-23.25-7.49-7.85-8.5-10.17-18.93-5.18-23.3,4.99-4.36,15.4-1.01,23.25,7.49Z" style="fill:url(#_Безымянный_градиент_283); mix-blend-mode:screen; stroke-width:0px;"/><path d="m115.47,195.98c2.94,3.19,3.81,7.09,1.94,8.73-1.87,1.63-5.77.38-8.71-2.81-2.94-3.19-3.81-7.09-1.94-8.73,1.87-1.63,5.77-.38,8.71,2.81Z" style="fill:url(#_Безымянный_градиент_283-2); mix-blend-mode:screen; stroke-width:0px;"/></g></g></g></svg>