<?xml version="1.0" encoding="UTF-8"?><svg xmlns="http://www.w3.org/2000/svg" width="147.89" height="162.81" xmlns:xlink="http://www.w3.org/1999/xlink" viewBox="0 0 147.89 162.81"><defs><radialGradient id="_Безымянный_градиент_278" cx="85.52" cy="69.78" fx="85.52" fy="69.78" r="47.58" gradientTransform="translate(-11.57 7.04) rotate(-.98) scale(1.03 1)" gradientUnits="userSpaceOnUse"><stop offset="0" stop-color="#606a80"/><stop offset=".99" stop-color="#302a3e"/></radialGradient><linearGradient id="_Безымянный_градиент_104" x1="72.61" y1="151.14" x2="72.61" y2="92.26" gradientTransform="translate(-1.2 6.86) rotate(-.98)" gradientUnits="userSpaceOnUse"><stop offset="0" stop-color="#302a3e"/><stop offset="1" stop-color="#606a80"/></linearGradient><linearGradient id="_Безымянный_градиент_73" x1="72.56" y1="157.34" x2="72.56" y2="138.55" gradientTransform="translate(-1.2 6.86) rotate(-.98)" gradientUnits="userSpaceOnUse"><stop offset="0" stop-color="#d2d4e1"/><stop offset="1" stop-color="#fff3ef"/></linearGradient><linearGradient id="_Безымянный_градиент_134" x1="75.08" y1="67.9" x2="75.08" y2="-5.53" gradientTransform="translate(-1.2 6.86) rotate(-.98)" gradientUnits="userSpaceOnUse"><stop offset="0" stop-color="#302a3e"/><stop offset="1" stop-color="#2f3b59"/></linearGradient><linearGradient id="_Безымянный_градиент_286" x1="80.94" y1="89.46" x2="89.03" y2="74.88" gradientTransform="translate(-1.2 6.86) rotate(-.98)" gradientUnits="userSpaceOnUse"><stop offset="0" stop-color="#000024"/><stop offset="1" stop-color="#a5a0a5"/></linearGradient><radialGradient id="_Безымянный_градиент_283" cx="282.42" cy="-238.26" fx="282.42" fy="-238.26" r="20.71" gradientTransform="translate(151.62 401.81) rotate(-40.97) scale(.58 1.01) skewX(2.71)" gradientUnits="userSpaceOnUse"><stop offset="0" stop-color="#46496e"/><stop offset=".18" stop-color="#363956"/><stop offset=".55" stop-color="#191a27"/><stop offset=".84" stop-color="#06070a"/><stop offset="1" stop-color="#000"/></radialGradient><radialGradient id="_Безымянный_градиент_283-2" cx="282.42" cy="-238.26" fx="282.42" fy="-238.26" r="7.76" xlink:href="#_Безымянный_градиент_283"/></defs><g style="isolation:isolate;"><g id="_Слой_2"><g id="_Слой_1-2"><path d="m45.51,109.42s3.99-34.73,26.92-35.92c22.93-1.19,30.04,35.99,30.04,35.99l-56.96-.07Z" style="fill:url(#_Безымянный_градиент_278); stroke-width:0px;"/><path d="m.36,155.86s12.51-54.98,70.49-57.92c57.99-2.93,76.75,57.52,76.75,57.52l-147.24.4Z" style="fill:url(#_Безымянный_градиент_104); stroke-width:0px;"/><path d="m.37,155.87c6.82-6.85,28.55-10.31,53.32-11.28,13-.52,26.82-.36,39.77.37,26.87,1.49,50,5.39,54.15,10.51,7.99,9.85-156.42,9.59-147.24.41Z" style="fill:url(#_Безымянный_градиент_73); stroke-width:0px;"/><path d="m93.46,144.96c-2.56,8.14-10.28,14.12-19.47,14.28-9.61.17-17.81-6.07-20.31-14.64,13-.52,26.82-.36,39.77.37Z" style="fill:#fffdef; stroke-width:0px;"/><polygon points="72.43 73.5 72.48 .07 76.39 0 75.04 73.45 72.43 73.5" style="fill:url(#_Безымянный_градиент_134); stroke-width:0px;"/><path d="m73.39,74.35s5.07.19,8.37,8.13c3.31,7.93,3.42,14.52,3.42,14.52l12.44,2.59s-6.35-25.55-24.23-25.24Z" style="fill:url(#_Безымянный_градиент_286); mix-blend-mode:screen; opacity:.3; stroke-width:0px;"/><path d="m121.29,108.95c7.82,8.53,10.11,18.97,5.1,23.31-5,4.35-15.4.96-23.23-7.57-7.82-8.53-10.11-18.97-5.1-23.31,5-4.35,15.4-.96,23.23,7.57Z" style="fill:url(#_Безымянный_градиент_283); mix-blend-mode:screen; stroke-width:0px;"/><path d="m115.62,113.87c2.93,3.2,3.79,7.11,1.91,8.74-1.88,1.63-5.77.36-8.7-2.84-2.93-3.2-3.79-7.11-1.91-8.74,1.88-1.63,5.77-.36,8.7,2.84Z" style="fill:url(#_Безымянный_градиент_283-2); mix-blend-mode:screen; stroke-width:0px;"/></g></g></g></svg>