<?xml version="1.0" encoding="UTF-8"?><svg xmlns="http://www.w3.org/2000/svg" width="164.34" height="225.18" xmlns:xlink="http://www.w3.org/1999/xlink" viewBox="0 0 164.34 225.18"><defs><linearGradient id="_Безымянный_градиент_301" x1="-35.6" y1="51.53" x2="45.79" y2="108.68" gradientTransform="translate(-5.44 16.78) rotate(-4.12)" gradientUnits="userSpaceOnUse"><stop offset="0" stop-color="#291d43"/><stop offset="1" stop-color="#343146"/></linearGradient><linearGradient id="_Безымянный_градиент_301-2" x1="86.51" y1="60.92" x2="110.25" y2="-2.94" xlink:href="#_Безымянный_градиент_301"/><linearGradient id="_Безымянный_градиент_301-3" x1="46.34" y1="226.88" x2="60.99" y2="187.49" xlink:href="#_Безымянный_градиент_301"/><linearGradient id="_Безымянный_градиент_307" x1="40.24" y1="63.71" x2="56.29" y2="-22.49" gradientTransform="translate(-5.44 16.78) rotate(-4.12)" gradientUnits="userSpaceOnUse"><stop offset="0" stop-color="#392e51"/><stop offset="1" stop-color="#49475a"/></linearGradient></defs><g style="isolation:isolate;"><g id="_Слой_2"><g id="_Слой_1-2"><path d="m8.33,54.32c.11-5.5,26.85-16.81,26.85-16.81l-.18-4.84L.02,50.29c-.66,19,17.54,89.11,52.07,155.45l10.22-7.71C23.91,123.51,8.22,59.82,8.33,54.32Z" style="fill:url(#_Безымянный_градиент_301); fill-rule:evenodd; stroke-width:0px;"/><path d="m18.63,93.76c-8.46-25.84-10.35-36.69-10.29-39.44.11-5.5,43.14-22.88,43.14-22.88l-2.48-5.81L.02,50.29c-.32,9.16,2.93,25.14,10.33,51.67,1.35-2.26,6.79-5.78,8.28-8.2Z" style="fill:#191a30; fill-rule:evenodd; stroke-width:0px;"/><path d="m38.49,52.19c-3.01-9.51-3.6-22.94-3.6-22.94,0,0,66.98-31.7,104.13-29.1,0,0,15.35,4.52,25.33,14.66-48.9,16.1-95.06,30.76-125.85,37.38Z" style="fill:url(#_Безымянный_градиент_301-2); fill-rule:evenodd; stroke-width:0px;"/><path d="m15.35,224.18l101.11-7.19,1.76-11.1s-39.39-19.15-69.7-12.51c-30.31,6.64-36.92,21.58-36.92,21.58l3.75,9.21Z" style="fill:url(#_Безымянный_градиент_301-3); fill-rule:evenodd; stroke-width:0px;"/><path d="m96.94,10.23c-.97-1.09-1.84-2.2-2.76-3.31-30.37,8.65-59.29,22.33-59.29,22.33,0,0,.6,13.43,3.6,22.94,20.98-4.51,49.09-12.75,80.33-22.64-7.68-5.25-15.11-11.72-21.89-19.33Z" style="fill:#191a30; fill-rule:evenodd; stroke-width:0px;"/><path d="m46.72,38.33c-.26-3.6-1.85-6.42-3.54-6.3-1.69.12-2.85,3.13-2.59,6.73s1.85,6.42,3.54,6.3c1.69-.12,2.85-3.13,2.59-6.73Z" style="fill:url(#_Безымянный_градиент_307); fill-rule:evenodd; stroke-width:0px;"/><path d="m19.23,205.94c-7.2,5.31-9.29,10.02-9.29,10.02l3.75,9.21,101.11-7.19,1.51-9.52c-29.19,3.51-94.24,9.9-97.08-2.52Z" style="fill:#191a30; fill-rule:evenodd; stroke-width:0px;"/><path d="m67.98,30.48c-3.1.27-6.31.69-9.59,1.23,10.09,6.48,18.44,14.04,24.65,20.52,2.03-.66,4.05-1.32,6.1-1.98-6.83-5.91-14.8-13.12-21.16-19.77Z" style="fill:#cbc5fc; fill-rule:evenodd; mix-blend-mode:soft-light; opacity:.5; stroke-width:0px;"/></g></g></g></svg>