<?xml version="1.0" encoding="UTF-8"?><svg xmlns="http://www.w3.org/2000/svg" width="85.51" height="131.73" xmlns:xlink="http://www.w3.org/1999/xlink" viewBox="0 0 85.51 131.73"><defs><linearGradient id="_Безымянный_градиент_240" x1="-684.32" y1="90.24" x2="-684.32" y2="15.39" gradientTransform="translate(-633.61) rotate(-180) scale(1 -1)" gradientUnits="userSpaceOnUse"><stop offset="0" stop-color="#6e6317"/><stop offset="1" stop-color="#515013"/></linearGradient><linearGradient id="_Безымянный_градиент_240-2" x1="-664.77" y1="74.11" x2="-701.7" y2="11.96" xlink:href="#_Безымянный_градиент_240"/><linearGradient id="_Безымянный_градиент_61" x1="-662.32" y1="69" x2="-697.13" y2="10.43" gradientTransform="translate(-633.61) rotate(-180) scale(1 -1)" gradientUnits="userSpaceOnUse"><stop offset="0" stop-color="#79741b"/><stop offset="1" stop-color="#998920"/></linearGradient><linearGradient id="_Безымянный_градиент_61-2" x1="-671.03" y1="75.13" x2="-701.04" y2="24.62" xlink:href="#_Безымянный_градиент_61"/><linearGradient id="_Безымянный_градиент_61-3" x1="-694.93" y1="86.94" x2="-705.67" y2="68.88" xlink:href="#_Безымянный_градиент_61"/><linearGradient id="_Безымянный_градиент_61-4" x1="-662.65" y1="66.52" x2="-673.93" y2="47.54" xlink:href="#_Безымянный_градиент_61"/><linearGradient id="_Безымянный_градиент_61-5" x1="-677.16" y1="67.28" x2="-707.5" y2="16.23" xlink:href="#_Безымянный_градиент_61"/><linearGradient id="_Безымянный_градиент_61-6" x1="-652.42" y1="83.68" x2="-662.55" y2="66.63" xlink:href="#_Безымянный_градиент_61"/><radialGradient id="_Безымянный_градиент_6" cx="61.28" cy="89.45" fx="61.28" fy="89.45" r="51.88" gradientUnits="userSpaceOnUse"><stop offset="0" stop-color="#f0d59b"/><stop offset="1" stop-color="#e59c6f"/></radialGradient><linearGradient id="_Безымянный_градиент_5" x1="32.98" y1="131.72" x2="32.98" y2="89.84" gradientUnits="userSpaceOnUse"><stop offset="0" stop-color="#85505c"/><stop offset="1" stop-color="#b77251"/></linearGradient><linearGradient id="_Безымянный_градиент_49" x1="24.3" y1="111.38" x2="75.68" y2="111.38" gradientUnits="userSpaceOnUse"><stop offset="0" stop-color="#c58f8d"/><stop offset="1" stop-color="#a46f80"/></linearGradient><linearGradient id="_Безымянный_градиент_89" x1="41.67" y1="91.54" x2="74.29" y2="91.54" gradientUnits="userSpaceOnUse"><stop offset="0" stop-color="#000024"/><stop offset="1" stop-color="#ecb761"/></linearGradient><linearGradient id="_Безымянный_градиент_89-2" x1="62.98" y1="127.14" x2="62.98" y2="89.84" xlink:href="#_Безымянный_градиент_89"/></defs><g style="isolation:isolate;"><g id="_Слой_2"><g id="_Слой_1-2"><polygon points="49.75 90.24 51.67 89.84 51.03 59.28 50.39 15.39 49.75 60.38 49.75 90.24" style="fill:url(#_Безымянный_градиент_240); stroke-width:0px;"/><path d="m50.23,78.63s25.51-10.41,31.02-19.01l-30.22,17.62s25.8-16.95,34.48-29.22c0,0-31.39,24.13-34.48,27.72l-.8-3.51s28.52-22.13,35.28-31.48c0,0-26.97,23.04-32.48,25.8,0,0,20.62-26.38,24.8-40.16,0,0-22.38,29.39-26.8,39.16,0,0,17.2-28.44,23.32-47.81,0,0-16.98,26.3-23.96,43.87,0,0,12.72-38.2,14.05-51,0,0-10.84,30.79-14.21,42.5,0,0,5.81-28.81,5.67-48.4,0,0-5.22,28.9-5.67,41.12,0,0,1.75-30.1.8-43.57,0,0-2.51,25.49-2.62,33.4,0,0-1.78-21.37-6.12-30.95,0,0,.64,26.52,4.56,41.12,0,0-5.64-15.18-11.17-25.75,0,0,8.61,31.88,11.39,39.65,0,0-16.14-32.64-20.04-45.44,0,0,10.5,36.79,20.93,53.25,0,0-10.69-18.96-21.6-25.69,0,0,12.03,21.75,20.77,28.71,0,0-23.55-24.54-36.8-31.22,0,0,20.96,21.49,37.59,33.4,0,0-17.66-9.11-30.46-11.12,0,0,20.4,13.58,30.46,13.57,0,0-24-12.73-37.59-13.49,0,0,28.01,17.6,39.89,16.94Z" style="fill:url(#_Безымянный_градиент_240-2); stroke-width:0px;"/><path d="m51.03,80.83s21.79-19.71,27.54-40.43l-24.05,34.81s10.23-16.97,16.77-32.89c0,0-13.64,24.18-17.06,28.3,0,0,10.66-33.84,12.91-53.02,0,0-11.81,34.61-14.36,44.62,0,0,4.84-32.5,6.51-50.96,0,0-8.26,37.25-8.9,43.18,0,0-1.79-40.07-2.64-52.18l.18,48.33L45.97,0s-2.6,33-2.17,47.25c0,0-8.67-30.86-13.41-40.11,0,0,7.32,31.48,13.41,49.41,0,0-13.76-24.93-21.84-34.42,0,0,14.43,32.6,20.22,39,0,0-17.24-17.39-27.25-24.77,0,0,19.19,22.21,23.56,25.6,0,0-10.39-15.24-20.49-33.68,0,0,16.61,36.04,24.18,44.45,0,0-17.96-14.35-26.03-23.69,0,0,21.27,30.18,34.88,31.78Z" style="fill:url(#_Безымянный_градиент_61); stroke-width:0px;"/><path d="m50.97,83.18s5.16-47.41,2.92-66.61c0,0-8.93,52.12-2.92,66.61Z" style="fill:url(#_Безымянный_градиент_61-2); stroke-width:0px;"/><path d="m52.99,78.65s13.59-10.48,15.23-11.43c1.64-.95,13.28,9.19,13.28,9.19,0,0-11.06-4.85-13.26-6.55,0,0-11.51,10.64-17.22,10.97l1.96-2.17Z" style="fill:url(#_Безымянный_градиент_61-3); stroke-width:0px;"/><path d="m50.23,78.63s-5.52-24.7-8.33-30.16c0,0-25.93,2.2-33.83,5.58,0,0,19.81-4.36,31.34-3.91,0,0,6.42,25.97,10.82,28.49Z" style="fill:url(#_Безымянный_градиент_61-4); stroke-width:0px;"/><path d="m52.99,72.89s9.14-42.7,11.45-62.27c0,0-12.39,46.1-11.45,62.27Z" style="fill:url(#_Безымянный_градиент_61-5); stroke-width:0px;"/><path d="m47.75,77.81s-17.32-10.28-22.48-10.35c-5.16-.07-25.27,5.04-25.27,5.04,0,0,18.92-3.8,25.27-3.1,6.35.7,22.48,8.41,22.48,8.41Z" style="fill:url(#_Безымянный_градиент_61-6); stroke-width:0px;"/><polygon points="38.24 131.73 41.67 89.84 74.29 89.84 75.68 131.63 38.24 131.73" style="fill:url(#_Безымянный_градиент_6); stroke-width:0px;"/><polygon points="41.67 89.84 26.45 91.13 24.3 131.64 41.67 131.72 41.67 89.84" style="fill:url(#_Безымянный_градиент_5); stroke-width:0px;"/><path d="m26.45,91.13s4.31,33.18,6.53,35.12c8.86,7.74,37.77,2.56,39.35,1.36,1.58-1.2,2.45-23.1,2.45-23.1l.9,27.11H24.3s2.15-40.5,2.15-40.5Z" style="fill:url(#_Безымянный_градиент_49); mix-blend-mode:multiply; opacity:.5; stroke-width:0px;"/><path d="m41.67,89.84s10.51,3.16,20.93,3.38c10.42.22,11.7-3.38,11.7-3.38h-32.63Z" style="fill:url(#_Безымянный_градиент_89); mix-blend-mode:screen; opacity:.5; stroke-width:0px;"/><polygon points="51.67 89.84 54.45 127.14 60.16 126.16 74.29 89.84 51.67 89.84" style="fill:url(#_Безымянный_градиент_89-2); mix-blend-mode:screen; opacity:.5; stroke-width:0px;"/></g></g></g></svg>