<?xml version="1.0" encoding="UTF-8"?><svg xmlns="http://www.w3.org/2000/svg" width="316.4" height="236.57" xmlns:xlink="http://www.w3.org/1999/xlink" viewBox="0 0 316.4 236.57"><defs><linearGradient id="_Безымянный_градиент_63" x1="163.63" y1="243.87" x2="178.05" y2="183.77" gradientUnits="userSpaceOnUse"><stop offset="0" stop-color="#2f2b40"/><stop offset=".99" stop-color="#271b40"/></linearGradient><linearGradient id="_Безымянный_градиент_59" x1="206.78" y1="213.15" x2="185.82" y2="254.56" gradientUnits="userSpaceOnUse"><stop offset="0" stop-color="#49475a"/><stop offset=".99" stop-color="#392e51"/></linearGradient><linearGradient id="_Безымянный_градиент_301" x1="126.29" y1="195.66" x2="126.29" y2="-19.23" gradientTransform="translate(27.33 12.51) scale(1 1.04) skewX(5.75)" gradientUnits="userSpaceOnUse"><stop offset="0" stop-color="#291d43"/><stop offset="1" stop-color="#343146"/></linearGradient><linearGradient id="_Безымянный_градиент_307" x1="162.17" y1="197.32" x2="162.17" y2="13.49" gradientUnits="userSpaceOnUse"><stop offset="0" stop-color="#392e51"/><stop offset="1" stop-color="#49475a"/></linearGradient><linearGradient id="_Безымянный_градиент_319" x1="81.81" y1="211.87" x2="81.81" y2="66.45" gradientUnits="userSpaceOnUse"><stop offset="0" stop-color="#490066"/><stop offset="1" stop-color="#8e9096"/></linearGradient></defs><g style="isolation:isolate;"><g id="_Слой_2"><g id="_Слой_1-2"><path d="m21.11,0h-9.16C4.65,0-.67,5.75.07,12.85l18.33,176.87c.74,7.1,7.25,12.85,14.55,12.85h11.99L21.11,0Z" style="fill:#191a30; fill-rule:evenodd; stroke-width:0px;"/><polygon points="138.49 192.44 124.59 192.44 131.54 230.37 149.4 232.23 138.49 192.44" style="fill:#191a30; fill-rule:evenodd; stroke-width:0px;"/><polygon points="190.59 192.44 136.5 192.44 141.96 231.86 205.98 231.86 190.59 192.44" style="fill:url(#_Безымянный_градиент_63); fill-rule:evenodd; stroke-width:0px;"/><polygon points="103.33 227.41 143.07 227.41 143.29 236.57 101.39 236.57 103.33 227.41" style="fill:#191a30; fill-rule:evenodd; stroke-width:0px;"/><polygon points="249.29 227.41 139.88 227.41 139.29 236.57 254.61 236.57 249.29 227.41" style="fill:url(#_Безымянный_градиент_59); fill-rule:evenodd; stroke-width:0px;"/><polygon points="129.69 220.28 198.59 212.94 190.59 192.44 183.72 192.44 125.04 194.89 129.69 220.28" style="fill:#784264; fill-rule:evenodd; mix-blend-mode:multiply; stroke-width:0px;"/><path d="m283.45,0H19.89c-7.3,0-12.62,5.75-11.89,12.85l18.33,176.87c.74,7.1,7.25,12.85,14.55,12.85h263.56c7.3,0,12.62-5.75,11.89-12.85l-18.33-176.87c-.74-7.1-7.25-12.85-14.55-12.85Z" style="fill:url(#_Безымянный_градиент_301); fill-rule:evenodd; stroke-width:0px;"/><path d="m271.55,11.82H33.86c-6.58,0-11.38,5.07-10.72,11.32l16.53,155.81c.66,6.25,6.54,11.32,13.12,11.32h237.69c6.58,0,11.38-5.07,10.72-11.32l-16.53-155.81c-.66-6.25-6.54-11.32-13.12-11.32Z" style="fill:url(#_Безымянный_градиент_307); fill-rule:evenodd; stroke-width:0px;"/><path d="m316.33,189.72l-18.33-176.87c-.74-7.1-7.25-12.85-14.55-12.85h-121.21l129.52,202.57h12.69c7.3,0,12.62-5.75,11.89-12.85Z" style="fill:#cbc5fc; fill-rule:evenodd; mix-blend-mode:soft-light; opacity:.5; stroke-width:0px;"/><path d="m26.34,189.72c.74,7.1,7.25,12.85,14.55,12.85h108.65L14.07,71.37l12.26,118.35Z" style="fill:url(#_Безымянный_градиент_319); fill-rule:evenodd; mix-blend-mode:multiply; opacity:.2; stroke-width:0px;"/><path d="m206.34,194.99h-46.51c-.76,0-1.37.6-1.37,1.34h0c0,.74.61,1.34,1.37,1.34h46.51c.76,0,1.37-.6,1.37-1.34h0c0-.74-.62-1.34-1.37-1.34Z" style="fill:#784264; fill-rule:evenodd; mix-blend-mode:multiply; stroke-width:0px;"/><path d="m48.06,195.58c-.2-1.33-1.47-2.41-2.84-2.41s-2.32,1.08-2.13,2.41c.2,1.33,1.47,2.41,2.84,2.41s2.32-1.08,2.13-2.41Z" style="fill:#689aa2; fill-rule:evenodd; stroke-width:0px;"/></g></g></g></svg>