<?xml version="1.0" encoding="UTF-8"?><svg xmlns="http://www.w3.org/2000/svg" width="620.38" height="290.96" xmlns:xlink="http://www.w3.org/1999/xlink" viewBox="0 0 620.38 290.96"><defs><linearGradient id="_Безымянный_градиент_93" x1="539.75" y1="321.89" x2="625.71" y2="57.95" gradientUnits="userSpaceOnUse"><stop offset="0" stop-color="#40271b"/><stop offset="1" stop-color="#492e21"/></linearGradient><linearGradient id="_Безымянный_градиент_1047" x1="430.84" y1="335.34" x2="689.04" y2="-65.31" gradientUnits="userSpaceOnUse"><stop offset="0" stop-color="#421f15"/><stop offset="1" stop-color="#77597a"/></linearGradient><linearGradient id="_Безымянный_градиент_11" x1="204.63" y1="78.6" x2="198.8" y2="159.55" gradientUnits="userSpaceOnUse"><stop offset="0" stop-color="#830944"/><stop offset="1" stop-color="#b1093f"/></linearGradient><linearGradient id="linear-gradient" x1="175.93" y1="81.81" x2="174.02" y2="42.17" gradientUnits="userSpaceOnUse"><stop offset="0" stop-color="#87829c"/><stop offset="1" stop-color="#77597a"/></linearGradient><radialGradient id="_Безымянный_градиент_53" cx="522.43" cy="70.32" fx="522.43" fy="70.32" r="197.67" gradientTransform="translate(-88.35) scale(.85 1)" gradientUnits="userSpaceOnUse"><stop offset="0" stop-color="#503323"/><stop offset="1" stop-color="#3b2116"/></radialGradient><linearGradient id="_Безымянный_градиент_93-2" x1="-10.75" y1="322.81" x2="96.9" y2="71.52" gradientTransform="translate(42.03 -5.06) scale(1 .99) skewX(6.09)" xlink:href="#_Безымянный_градиент_93"/><linearGradient id="_Безымянный_градиент_140" x1="-107.56" y1="344.97" x2="152.43" y2="-58.45" gradientTransform="translate(42.03 -5.06) scale(1 .99) skewX(6.09)" gradientUnits="userSpaceOnUse"><stop offset="0" stop-color="#412a1f"/><stop offset="1" stop-color="#391d18"/></linearGradient><linearGradient id="_Безымянный_градиент_131" x1="19.05" y1="155.84" x2="73.42" y2="-60.21" gradientUnits="userSpaceOnUse"><stop offset=".04" stop-color="#665877"/><stop offset=".49" stop-color="#3e241a"/><stop offset="1" stop-color="#391d18"/></linearGradient><linearGradient id="_Безымянный_градиент_93-3" x1="362.34" y1="152.42" x2="359.28" y2="-69.07" xlink:href="#_Безымянный_градиент_93"/></defs><g style="isolation:isolate;"><g id="_Слой_2"><g id="_Слой_1-2"><rect x="114.56" y="30.52" width="400.37" height="39.68" style="fill:#190d0b; stroke-width:0px;"/><polygon points="610.37 27.72 589.01 27.72 575 290.96 596.35 290.96 610.37 27.72" style="fill:url(#_Безымянный_градиент_93); fill-rule:evenodd; stroke-width:0px;"/><polygon points="607.59 79.96 610.37 27.72 589.01 27.72 585.94 85.44 607.59 79.96" style="fill:#9673a3; fill-rule:evenodd; mix-blend-mode:multiply; opacity:.3; stroke-width:0px;"/><polygon points="599.02 19.33 508.26 19.33 494.91 290.96 585.68 290.96 599.02 19.33" style="fill:url(#_Безымянный_градиент_1047); fill-rule:evenodd; stroke-width:0px;"/><path d="m500.7,173.31c27.95-29.21,72.18-75.88,95.71-100.74l2.62-53.24h-75.75l-15.13,2.31-7.45,151.68Z" style="fill:#9673a3; fill-rule:evenodd; mix-blend-mode:multiply; opacity:.5; stroke-width:0px;"/><polygon points="267.28 50.74 195.52 48.45 145.15 53.41 146.49 69.05 266.61 69.05 267.28 50.74" style="fill:url(#_Безымянный_градиент_11); stroke-width:0px;"/><path d="m197.04,52.67c.4-1.26,54.39,3.21,70.02,4.08l.22-6.01-71.75-2.29-50.37,4.96,1.33,15.64h52.66c-2.61-4.58-3.94-10.53-2.11-16.38Z" style="fill:#9673a3; mix-blend-mode:multiply; opacity:.5; stroke-width:0px;"/><path d="m192.13,53.03c0,4.57,1.41,11.28,1.41,11.28l-43.91.29-.76-7.88,43.26-3.7Z" style="fill:#9673a3; mix-blend-mode:multiply; opacity:.5; stroke-width:0px;"/><path d="m192.13,53.03l-35.89,3.07c.62,2.76,1.07,5.68,1.39,8.45l35.91-.24s-1.41-6.71-1.41-11.28Z" style="fill:url(#linear-gradient); stroke-width:0px;"/><path d="m188.79,57.86c0,2,.27,4.4.58,6.48l4.17-.03s-1.41-6.71-1.41-11.28l-35.89,3.07c.33,1.46.61,2.97.84,4.48l31.71-2.71Z" style="fill:#9673a3; mix-blend-mode:multiply; opacity:.5; stroke-width:0px;"/><polygon points="496.47 259.41 589.59 211.4 591.5 172.45 497.45 239.46 496.47 259.41" style="fill:#9673a3; fill-rule:evenodd; mix-blend-mode:multiply; opacity:.5; stroke-width:0px;"/><polygon points="599.02 19.33 508.26 19.33 494.91 290.96 585.68 290.96 599.02 19.33" style="fill:#432015; fill-rule:evenodd; mix-blend-mode:multiply; opacity:.5; stroke-width:0px;"/><polygon points="118.12 66.89 119.47 73.76 593.24 73.76 593.35 66.89 118.12 66.89" style="fill:url(#_Безымянный_градиент_53); fill-rule:evenodd; stroke-width:0px;"/><polygon points="120.91 30.93 99.55 30.93 110.11 290.96 131.47 290.96 120.91 30.93" style="fill:url(#_Безымянный_градиент_93-2); fill-rule:evenodd; stroke-width:0px;"/><polygon points="108.78 22.64 12.68 29.76 30.03 290.96 120.79 290.96 108.78 22.64" style="fill:url(#_Безымянный_градиент_140); fill-rule:evenodd; stroke-width:0px;"/><polygon points="108.78 22.64 12.68 29.76 20.37 145.47 109.72 43.67 108.78 22.64" style="fill:#9673a3; fill-rule:evenodd; mix-blend-mode:multiply; opacity:.5; stroke-width:0px;"/><polygon points="100.12 0 0 12.97 3.37 47.64 104.44 35.1 100.12 0" style="fill:url(#_Безымянный_градиент_131); fill-rule:evenodd; stroke-width:0px;"/><polygon points="620.38 0 100.1 0 103.42 35.1 620.38 35.1 620.38 0" style="fill:url(#_Безымянный_градиент_93-3); fill-rule:evenodd; stroke-width:0px;"/><polygon points="481.6 66.89 480.05 73.76 538.64 73.76 540.4 66.89 481.6 66.89" style="fill:#fffdbe; fill-rule:evenodd; mix-blend-mode:soft-light; opacity:.5; stroke-width:0px;"/><polygon points="265.53 66.89 264.76 73.76 293.77 73.76 294.64 66.89 265.53 66.89" style="fill:#fffdbe; fill-rule:evenodd; mix-blend-mode:soft-light; opacity:.5; stroke-width:0px;"/></g></g></g></svg>