<?xml version="1.0" encoding="UTF-8"?><svg xmlns="http://www.w3.org/2000/svg" width="408.31" height="810.6" xmlns:xlink="http://www.w3.org/1999/xlink" viewBox="0 0 408.31 810.6"><defs><linearGradient id="_Безымянный_градиент_253" x1="262.43" y1="810.6" x2="262.43" y2="0" gradientUnits="userSpaceOnUse"><stop offset=".02" stop-color="#3e1f10"/><stop offset=".99" stop-color="#5f3826"/></linearGradient><radialGradient id="_Безымянный_градиент_250" cx="243.84" cy="250.19" fx="243.84" fy="250.19" r="108.41" gradientTransform="translate(53.84 12.76) scale(.86 .97)" gradientUnits="userSpaceOnUse"><stop offset="0" stop-color="#645940"/><stop offset="1" stop-color="#372115"/></radialGradient><radialGradient id="_Безымянный_градиент_251" cx="253.16" cy="117.7" fx="253.16" fy="117.7" r="141.16" gradientTransform="translate(53.84) scale(.86 1)" gradientUnits="userSpaceOnUse"><stop offset=".02" stop-color="#4d3223"/><stop offset=".99" stop-color="#4c251c"/></radialGradient><radialGradient id="_Безымянный_градиент_252" cx="241.47" cy="379.7" fx="241.47" fy="379.7" r="106.03" gradientTransform="translate(53.84) scale(.86 1)" gradientUnits="userSpaceOnUse"><stop offset="0" stop-color="#5f3826"/><stop offset=".98" stop-color="#3e1f1c"/></radialGradient><radialGradient id="_Безымянный_градиент_250-2" cx="241.47" cy="415.72" fx="241.47" fy="415.72" r="108.16" gradientTransform="translate(53.84) scale(.86 1)" xlink:href="#_Безымянный_градиент_250"/><radialGradient id="_Безымянный_градиент_250-3" cy="283.55" fy="283.55" r="112.7" gradientTransform="translate(53.84) scale(.86 1)" xlink:href="#_Безымянный_градиент_250"/><radialGradient id="_Безымянный_градиент_251-2" cx="255.07" cy="602.39" fx="255.07" fy="602.39" r="148.18" gradientTransform="translate(53.84 32.15) scale(.86 .92)" xlink:href="#_Безымянный_градиент_251"/><radialGradient id="_Безымянный_градиент_250-4" cx="237.97" cy="588.82" fx="237.97" fy="588.82" r="145.42" gradientTransform="translate(53.84) scale(.86 1)" xlink:href="#_Безымянный_градиент_250"/><radialGradient id="_Безымянный_градиент_250-5" cx="310" cy="684.6" fx="310" fy="684.6" r="9.49" gradientTransform="translate(-40.5 117.09) scale(1 .72)" xlink:href="#_Безымянный_градиент_250"/><radialGradient id="_Безымянный_градиент_246" cx="252.85" cy="609.16" fx="252.85" fy="609.16" r="4.76" gradientTransform="translate(53.84) scale(.86 1)" gradientUnits="userSpaceOnUse"><stop offset="0" stop-color="#3d2419"/><stop offset="1" stop-color="#2b1515"/></radialGradient><clipPath id="clippath"><path d="m279.22,609.16c0,3.25-2.25,5.89-5.04,5.89s-5.04-2.64-5.04-5.89,2.25-5.89,5.04-5.89,5.04,2.64,5.04,5.89Z" style="clip-rule:evenodd; fill:none; stroke-width:0px;"/></clipPath><radialGradient id="_Безымянный_градиент_250-6" cx="335.38" cy="684.6" fx="335.38" fy="684.6" r="9.49" gradientTransform="translate(-40.5 117.09) scale(1 .72)" xlink:href="#_Безымянный_градиент_250"/><radialGradient id="_Безымянный_градиент_246-2" cx="282.66" fx="282.66" r="4.76" xlink:href="#_Безымянный_градиент_246"/><clipPath id="clippath-1"><path d="m304.72,609.16c0,3.25-2.25,5.89-5.04,5.89s-5.04-2.64-5.04-5.89,2.25-5.89,5.04-5.89,5.04,2.64,5.04,5.89Z" style="clip-rule:evenodd; fill:none; stroke-width:0px;"/></clipPath><radialGradient id="_Безымянный_градиент_250-7" cx="310" cy="132.86" fx="310" fy="132.86" r="9.49" gradientTransform="translate(-40.5 117.09) scale(1 .72)" xlink:href="#_Безымянный_градиент_250"/><radialGradient id="_Безымянный_градиент_246-3" cy="209.36" fy="209.36" r="4.76" xlink:href="#_Безымянный_градиент_246"/><clipPath id="clippath-2"><ellipse cx="274.18" cy="209.36" rx="5.04" ry="5.89" style="fill:none; stroke-width:0px;"/></clipPath><radialGradient id="_Безымянный_градиент_250-8" cx="332.34" cy="136.24" fx="332.34" fy="136.24" r="9.49" gradientTransform="translate(-40.5 117.09) scale(1 .72)" xlink:href="#_Безымянный_градиент_250"/><radialGradient id="_Безымянный_градиент_246-4" cx="279.09" cy="211.81" fx="279.09" fy="211.81" r="4.76" xlink:href="#_Безымянный_градиент_246"/><clipPath id="clippath-3"><path d="m301.67,211.81c0,3.25-2.25,5.89-5.04,5.89s-5.03-2.64-5.03-5.89,2.25-5.89,5.03-5.89,5.04,2.64,5.04,5.89Z" style="clip-rule:evenodd; fill:none; stroke-width:0px;"/></clipPath><linearGradient id="_Безымянный_градиент_244" x1="132.46" y1="111.44" x2="207.55" y2="111.44" gradientUnits="userSpaceOnUse"><stop offset="0" stop-color="#42211c"/><stop offset="1" stop-color="#4f3324"/></linearGradient><linearGradient id="_Безымянный_градиент_245" x1="356.66" y1="233.94" x2="356.66" y2="19.68" gradientUnits="userSpaceOnUse"><stop offset="0" stop-color="#000"/><stop offset="1" stop-color="#4d3223"/></linearGradient><linearGradient id="_Безымянный_градиент_244-2" x1="321.24" y1="231.82" x2="321.24" y2="17.05" xlink:href="#_Безымянный_градиент_244"/><linearGradient id="_Безымянный_градиент_244-3" x1="215.71" y1="793.44" x2="215.71" y2="585.88" xlink:href="#_Безымянный_градиент_244"/><linearGradient id="_Безымянный_градиент_245-2" x1="351.33" y1="794.47" x2="351.33" y2="588.03" xlink:href="#_Безымянный_градиент_245"/><linearGradient id="_Безымянный_градиент_244-4" x1="162.7" y1="794.47" x2="162.7" y2="585.31" xlink:href="#_Безымянный_градиент_244"/><linearGradient id="_Безымянный_градиент_245-3" x1="30.71" y1="810.6" x2="30.71" y2="12.68" xlink:href="#_Безымянный_градиент_245"/><linearGradient id="_Безымянный_градиент_244-5" x1="96.35" y1="810.6" x2="96.35" y2="0" xlink:href="#_Безымянный_градиент_244"/><linearGradient id="_Безымянный_градиент_116" x1="171.92" y1="370.58" x2="171.92" y2="262.85" gradientUnits="userSpaceOnUse"><stop offset="0" stop-color="#634995"/><stop offset="1" stop-color="#6874de"/></linearGradient></defs><g style="isolation:isolate;"><g id="_Слой_2"><g id="_Слой_1-2"><polygon points="119.08 810.6 116.54 0 408.31 26.23 398.31 810.6 119.08 810.6" style="fill:url(#_Безымянный_градиент_253); fill-rule:evenodd; stroke-width:0px;"/><polygon points="116.54 0 0 24.69 11.46 810.6 119.08 810.6 116.54 0" style="fill:#301311; fill-rule:evenodd; stroke-width:0px;"/><polygon points="132.46 579.15 388.04 579.15 392.36 245.09 132.46 235.39 132.46 579.15" style="fill:#301311; fill-rule:evenodd; stroke-width:0px;"/><polygon points="278.24 579.15 272.49 275.19 132.46 269.77 132.46 579.15 278.24 579.15" style="fill:#351e18; fill-rule:evenodd; stroke-width:0px;"/><polygon points="272.49 275.19 392.36 245.09 132.46 235.39 132.46 269.77 272.49 275.19" style="fill:url(#_Безымянный_градиент_250); fill-rule:evenodd; mix-blend-mode:multiply; opacity:.5; stroke-width:0px;"/><rect x="122.46" width="9.99" height="224.54" style="fill:#301311; stroke-width:0px;"/><polygon points="132.46 224.54 407.41 235.39 408.31 26.23 132.46 0 132.46 224.54" style="fill:url(#_Безымянный_градиент_251); fill-rule:evenodd; stroke-width:0px;"/><polygon points="122.46 224.54 132.46 219.35 407.41 235.39 400.71 238.17 122.46 224.54" style="fill:#180706; fill-rule:evenodd; stroke-width:0px;"/><polygon points="280.74 227.53 284.08 14.42 285.88 14.59 281.33 227.56 280.74 227.53" style="fill:#301311; fill-rule:evenodd; stroke-width:0px;"/><polygon points="387.78 377.37 132.46 368.91 132.46 383.65 388.31 390.48 387.78 377.37" style="fill:url(#_Безымянный_градиент_252); fill-rule:evenodd; stroke-width:0px;"/><polygon points="388.31 390.48 278.24 447.78 132.46 447.78 132.46 383.65 388.31 390.48" style="fill:url(#_Безымянный_градиент_250-2); fill-rule:evenodd; mix-blend-mode:multiply; opacity:.5; stroke-width:0px;"/><polygon points="392.36 245.09 275.33 331.71 132.46 331.71 132.46 235.39 392.36 245.09" style="fill:url(#_Безымянный_градиент_250-3); fill-rule:evenodd; mix-blend-mode:multiply; opacity:.5; stroke-width:0px;"/><polygon points="134.68 793.44 132.46 585.31 143 585.31 143 793.44 134.68 793.44" style="fill:#301311; fill-rule:evenodd; stroke-width:0px;"/><polygon points="143 585.31 405.47 589.31 401.27 794.93 143 793.44 143 585.31" style="fill:url(#_Безымянный_градиент_251-2); fill-rule:evenodd; stroke-width:0px;"/><polygon points="285.17 587.46 285.17 793.44 286.84 793.44 286.84 587.52 285.17 587.46" style="fill:#301311; fill-rule:evenodd; stroke-width:0px;"/><polygon points="394.27 794.93 389.24 802.9 128.38 802.9 125.05 601.32 132.46 585.31 134.68 793.44 394.27 794.93" style="fill:url(#_Безымянный_градиент_250-4); fill-rule:evenodd; mix-blend-mode:multiply; opacity:.5; stroke-width:0px;"/><path d="m276.91,613.16c0,4.84-2.63,8.76-5.87,8.76s-5.87-3.92-5.87-8.76,2.63-8.76,5.87-8.76,5.87,3.92,5.87,8.76Z" style="fill:url(#_Безымянный_градиент_250-5); fill-rule:evenodd; mix-blend-mode:multiply; opacity:.5; stroke-width:0px;"/><path d="m274.18,609.16c0,2.63-1.82,4.76-4.07,4.76s-4.07-2.13-4.07-4.76,1.82-4.76,4.07-4.76,4.07,2.13,4.07,4.76Z" style="fill:url(#_Безымянный_градиент_246); fill-rule:evenodd; stroke-width:0px;"/><g style="clip-path:url(#clippath);"><rect x="269.15" y="603.27" width="10.07" height="11.77" style="fill:#41271d; stroke-width:0px;"/><path d="m266.81,607.35c0-2.52,2.73-4.57,6.1-4.57s6.1,2.05,6.1,4.57-2.73,4.57-6.1,4.57-6.1-2.05-6.1-4.57Z" style="fill:#41271d; stroke-width:0px;"/><ellipse cx="272.91" cy="607.35" rx="6.02" ry="4.52" style="fill:#41271e; stroke-width:0px;"/><path d="m266.95,607.35c0-2.46,2.67-4.46,5.95-4.46s5.95,2,5.95,4.46-2.67,4.46-5.95,4.46-5.95-2-5.95-4.46Z" style="fill:#41271e; stroke-width:0px;"/><path d="m267.02,607.35c0-2.43,2.63-4.41,5.88-4.41s5.88,1.97,5.88,4.41-2.63,4.41-5.88,4.41-5.88-1.97-5.88-4.41Z" style="fill:#42281e; stroke-width:0px;"/><ellipse cx="272.91" cy="607.35" rx="5.81" ry="4.35" style="fill:#42281e; stroke-width:0px;"/><path d="m267.17,607.35c0-2.38,2.57-4.3,5.74-4.3s5.74,1.93,5.74,4.3-2.57,4.3-5.74,4.3-5.74-1.93-5.74-4.3Z" style="fill:#43281e; stroke-width:0px;"/><path d="m267.24,607.35c0-2.35,2.54-4.25,5.67-4.25s5.67,1.9,5.67,4.25-2.54,4.25-5.67,4.25-5.67-1.9-5.67-4.25Z" style="fill:#43281e; stroke-width:0px;"/><ellipse cx="272.91" cy="607.35" rx="5.59" ry="4.19" style="fill:#44291e; stroke-width:0px;"/><path d="m267.38,607.35c0-2.29,2.47-4.14,5.52-4.14s5.52,1.85,5.52,4.14-2.47,4.14-5.52,4.14-5.52-1.85-5.52-4.14Z" style="fill:#44291f; stroke-width:0px;"/><path d="m267.45,607.35c0-2.26,2.44-4.09,5.45-4.09s5.45,1.83,5.45,4.09-2.44,4.09-5.45,4.09-5.45-1.83-5.45-4.09Z" style="fill:#44291f; stroke-width:0px;"/><path d="m267.53,607.35c0-2.23,2.41-4.03,5.38-4.03s5.38,1.81,5.38,4.03-2.41,4.03-5.38,4.03-5.38-1.8-5.38-4.03Z" style="fill:#442a1f; stroke-width:0px;"/><path d="m267.6,607.35c0-2.2,2.38-3.98,5.31-3.98s5.31,1.78,5.31,3.98-2.38,3.98-5.31,3.98-5.31-1.78-5.31-3.98Z" style="fill:#452a1f; stroke-width:0px;"/><ellipse cx="272.91" cy="607.35" rx="5.24" ry="3.92" style="fill:#452a20; stroke-width:0px;"/><path d="m267.74,607.35c0-2.14,2.31-3.87,5.16-3.87s5.16,1.73,5.16,3.87-2.31,3.87-5.16,3.87-5.16-1.73-5.16-3.87Z" style="fill:#462b23; stroke-width:0px;"/><path d="m267.81,607.35c0-2.11,2.28-3.82,5.09-3.82s5.09,1.71,5.09,3.82-2.28,3.82-5.09,3.82-5.09-1.71-5.09-3.82Z" style="fill:#472b23; stroke-width:0px;"/><ellipse cx="272.91" cy="607.35" rx="5.02" ry="3.76" style="fill:#492c25; stroke-width:0px;"/><path d="m267.96,607.35c0-2.05,2.22-3.71,4.95-3.71s4.95,1.66,4.95,3.71-2.22,3.71-4.95,3.71-4.95-1.66-4.95-3.71Z" style="fill:#492e28; stroke-width:0px;"/><path d="m268.03,607.35c0-2.02,2.18-3.66,4.88-3.66s4.88,1.64,4.88,3.66-2.18,3.66-4.88,3.66-4.88-1.64-4.88-3.66Z" style="fill:#4b302b; stroke-width:0px;"/><path d="m268.1,607.35c0-1.99,2.15-3.6,4.81-3.6s4.81,1.61,4.81,3.6-2.15,3.6-4.81,3.6-4.81-1.61-4.81-3.6Z" style="fill:#4d322b; stroke-width:0px;"/><path d="m268.17,607.35c0-1.96,2.12-3.55,4.73-3.55s4.73,1.59,4.73,3.55-2.12,3.55-4.73,3.55-4.73-1.59-4.73-3.55Z" style="fill:#4f342d; stroke-width:0px;"/><ellipse cx="272.91" cy="607.35" rx="4.66" ry="3.49" style="fill:#513530; stroke-width:0px;"/><path d="m268.31,607.35c0-1.9,2.06-3.44,4.59-3.44s4.59,1.54,4.59,3.44-2.06,3.44-4.59,3.44-4.59-1.54-4.59-3.44Z" style="fill:#533732; stroke-width:0px;"/><path d="m268.39,607.35c0-1.87,2.02-3.39,4.52-3.39s4.52,1.52,4.52,3.39-2.02,3.39-4.52,3.39-4.52-1.52-4.52-3.39Z" style="fill:#533932; stroke-width:0px;"/><ellipse cx="272.91" cy="607.35" rx="4.45" ry="3.33" style="fill:#553b35; stroke-width:0px;"/><path d="m268.53,607.35c0-1.81,1.96-3.28,4.38-3.28s4.38,1.47,4.38,3.28-1.96,3.28-4.38,3.28-4.38-1.47-4.38-3.28Z" style="fill:#573d3a; stroke-width:0px;"/><path d="m268.6,607.35c0-1.78,1.93-3.23,4.3-3.23s4.3,1.44,4.3,3.23-1.93,3.23-4.3,3.23-4.3-1.44-4.3-3.23Z" style="fill:#593f3a; stroke-width:0px;"/><path d="m268.67,607.35c0-1.75,1.89-3.17,4.23-3.17s4.23,1.42,4.23,3.17-1.89,3.17-4.23,3.17-4.23-1.42-4.23-3.17Z" style="fill:#5b413d; stroke-width:0px;"/><path d="m268.75,607.35c0-1.72,1.86-3.12,4.16-3.12s4.16,1.4,4.16,3.12-1.86,3.12-4.16,3.12-4.16-1.4-4.16-3.12Z" style="fill:#5d4340; stroke-width:0px;"/><ellipse cx="272.91" cy="607.35" rx="4.09" ry="3.06" style="fill:#5f4542; stroke-width:0px;"/><path d="m268.89,607.35c0-1.66,1.8-3.01,4.02-3.01s4.02,1.35,4.02,3.01-1.8,3.01-4.02,3.01-4.02-1.35-4.02-3.01Z" style="fill:#614742; stroke-width:0px;"/><path d="m268.96,607.35c0-1.63,1.77-2.96,3.94-2.96s3.94,1.32,3.94,2.96-1.77,2.96-3.94,2.96-3.94-1.32-3.94-2.96Z" style="fill:#634945; stroke-width:0px;"/><ellipse cx="272.91" cy="607.35" rx="3.87" ry="2.9" style="fill:#654b47; stroke-width:0px;"/><path d="m269.1,607.35c0-1.57,1.7-2.85,3.8-2.85s3.8,1.28,3.8,2.85-1.7,2.85-3.8,2.85-3.8-1.28-3.8-2.85Z" style="fill:#674c4a; stroke-width:0px;"/><path d="m269.18,607.35c0-1.54,1.67-2.8,3.73-2.8s3.73,1.25,3.73,2.8-1.67,2.8-3.73,2.8-3.73-1.25-3.73-2.8Z" style="fill:#694c4a; stroke-width:0px;"/><ellipse cx="272.91" cy="607.35" rx="3.66" ry="2.74" style="fill:#694e4d; stroke-width:0px;"/><path d="m269.32,607.35c0-1.48,1.61-2.69,3.59-2.69s3.59,1.2,3.59,2.69-1.61,2.69-3.59,2.69-3.59-1.2-3.59-2.69Z" style="fill:#6b504f; stroke-width:0px;"/><ellipse cx="272.91" cy="607.35" rx="3.51" ry="2.63" style="fill:#6d5252; stroke-width:0px;"/><path d="m269.46,607.35c0-1.42,1.54-2.58,3.44-2.58s3.44,1.16,3.44,2.58-1.54,2.58-3.44,2.58-3.44-1.16-3.44-2.58Z" style="fill:#6f5452; stroke-width:0px;"/><path d="m269.53,607.35c0-1.4,1.51-2.53,3.37-2.53s3.37,1.13,3.37,2.53-1.51,2.53-3.37,2.53-3.37-1.13-3.37-2.53Z" style="fill:#705655; stroke-width:0px;"/><ellipse cx="272.91" cy="607.35" rx="3.3" ry="2.47" style="fill:#725857; stroke-width:0px;"/><path d="m269.68,607.35c0-1.34,1.44-2.42,3.23-2.42s3.23,1.08,3.23,2.42-1.44,2.42-3.23,2.42-3.23-1.08-3.23-2.42Z" style="fill:#725a5a; stroke-width:0px;"/><path d="m269.75,607.35c0-1.31,1.41-2.37,3.16-2.37s3.16,1.06,3.16,2.37-1.41,2.37-3.16,2.37-3.16-1.06-3.16-2.37Z" style="fill:#745c5a; stroke-width:0px;"/><ellipse cx="272.91" cy="607.35" rx="3.08" ry="2.31" style="fill:#76605c; stroke-width:0px;"/><path d="m269.89,607.35c0-1.25,1.35-2.26,3.01-2.26s3.01,1.01,3.01,2.26-1.35,2.26-3.01,2.26-3.01-1.01-3.01-2.26Z" style="fill:#78625f; stroke-width:0px;"/><path d="m269.96,607.35c0-1.22,1.32-2.2,2.94-2.2s2.94.99,2.94,2.2-1.32,2.2-2.94,2.2-2.94-.99-2.94-2.2Z" style="fill:#7a645f; stroke-width:0px;"/><path d="m270.04,607.35c0-1.19,1.28-2.15,2.87-2.15s2.87.96,2.87,2.15-1.28,2.15-2.87,2.15-2.87-.96-2.87-2.15Z" style="fill:#7c6562; stroke-width:0px;"/><path d="m270.11,607.35c0-1.16,1.25-2.1,2.8-2.1s2.8.94,2.8,2.1-1.25,2.1-2.8,2.1-2.8-.94-2.8-2.1Z" style="fill:#7e6764; stroke-width:0px;"/><ellipse cx="272.91" cy="607.35" rx="2.73" ry="2.04" style="fill:#806b67; stroke-width:0px;"/><path d="m270.25,607.35c0-1.1,1.19-1.99,2.65-1.99s2.65.89,2.65,1.99-1.19,1.99-2.65,1.99-2.65-.89-2.65-1.99Z" style="fill:#826d67; stroke-width:0px;"/><path d="m270.32,607.35c0-1.07,1.16-1.94,2.58-1.94s2.58.87,2.58,1.94-1.16,1.94-2.58,1.94-2.58-.87-2.58-1.94Z" style="fill:#846f6a; stroke-width:0px;"/><ellipse cx="272.91" cy="607.35" rx="2.51" ry="1.88" style="fill:#86716c; stroke-width:0px;"/><path d="m270.47,607.35c0-1.01,1.09-1.83,2.44-1.83s2.44.82,2.44,1.83-1.09,1.83-2.44,1.83-2.44-.82-2.44-1.83Z" style="fill:#88736f; stroke-width:0px;"/><path d="m270.54,607.35c0-.98,1.06-1.77,2.37-1.77s2.37.79,2.37,1.77-1.06,1.77-2.37,1.77-2.37-.79-2.37-1.77Z" style="fill:#88756f; stroke-width:0px;"/><ellipse cx="272.91" cy="607.35" rx="2.3" ry="1.72" style="fill:#8a7771; stroke-width:0px;"/><path d="m270.68,607.35c0-.92,1-1.67,2.22-1.67s2.22.75,2.22,1.67-1,1.67-2.22,1.67-2.22-.75-2.22-1.67Z" style="fill:#8c7974; stroke-width:0px;"/><ellipse cx="272.91" cy="607.35" rx="2.15" ry="1.61" style="fill:#8e7b77; stroke-width:0px;"/><path d="m270.82,607.35c0-.86.93-1.56,2.08-1.56s2.08.7,2.08,1.56-.93,1.56-2.08,1.56-2.08-.7-2.08-1.56Z" style="fill:#907c77; stroke-width:0px;"/><path d="m270.9,607.35c0-.83.9-1.51,2.01-1.51s2.01.67,2.01,1.51-.9,1.51-2.01,1.51-2.01-.67-2.01-1.51Z" style="fill:#927e79; stroke-width:0px;"/><ellipse cx="272.91" cy="607.35" rx="1.94" ry="1.45" style="fill:#92807c; stroke-width:0px;"/><path d="m271.04,607.35c0-.77.83-1.4,1.86-1.4s1.86.63,1.86,1.4-.84,1.4-1.86,1.4-1.86-.63-1.86-1.4Z" style="fill:#94827e; stroke-width:0px;"/><path d="m271.11,607.35c0-.74.8-1.34,1.79-1.34s1.79.6,1.79,1.34-.8,1.34-1.79,1.34-1.79-.6-1.79-1.34Z" style="fill:#96847e; stroke-width:0px;"/><ellipse cx="272.91" cy="607.35" rx="1.72" ry="1.29" style="fill:#988681; stroke-width:0px;"/><path d="m271.26,607.35c0-.68.74-1.24,1.65-1.24s1.65.55,1.65,1.24-.74,1.24-1.65,1.24-1.65-.55-1.65-1.24Z" style="fill:#9a8884; stroke-width:0px;"/><ellipse cx="272.91" cy="607.35" rx="1.58" ry="1.18" style="fill:#9c8a86; stroke-width:0px;"/><path d="m271.4,607.35c0-.62.67-1.13,1.51-1.13s1.51.51,1.51,1.13-.67,1.13-1.51,1.13-1.51-.51-1.51-1.13Z" style="fill:#9e8c86; stroke-width:0px;"/><path d="m271.47,607.35c0-.59.64-1.08,1.43-1.08s1.43.48,1.43,1.08-.64,1.08-1.43,1.08-1.43-.48-1.43-1.08Z" style="fill:#a08e89; stroke-width:0px;"/><ellipse cx="272.91" cy="607.35" rx="1.36" ry="1.02" style="fill:#a2908c; stroke-width:0px;"/><path d="m271.61,607.35c0-.53.58-.97,1.29-.97s1.29.43,1.29.97-.58.97-1.29.97-1.29-.43-1.29-.97Z" style="fill:#a4928c; stroke-width:0px;"/><path d="m271.69,607.35c0-.5.55-.91,1.22-.91s1.22.41,1.22.91-.55.91-1.22.91-1.22-.41-1.22-.91Z" style="fill:#a6938e; stroke-width:0px;"/><ellipse cx="272.91" cy="607.35" rx="1.15" ry=".86" style="fill:#a89591; stroke-width:0px;"/><path d="m271.83,607.35c0-.45.48-.81,1.08-.81s1.08.36,1.08.81-.48.81-1.08.81-1.08-.36-1.08-.81Z" style="fill:#a89793; stroke-width:0px;"/><path d="m271.9,607.35c0-.42.45-.75,1-.75s1,.34,1,.75-.45.75-1,.75-1-.34-1-.75Z" style="fill:#aa9993; stroke-width:0px;"/><path d="m271.97,607.35c0-.39.42-.7.93-.7s.93.31.93.7-.42.7-.93.7-.93-.31-.93-.7Z" style="fill:#ac9b96; stroke-width:0px;"/><path d="m272.04,607.35c0-.36.39-.64.86-.64s.86.29.86.64-.39.65-.86.65-.86-.29-.86-.65Z" style="fill:#ae9d99; stroke-width:0px;"/><ellipse cx="272.91" cy="607.35" rx=".79" ry=".59" style="fill:#b09f9b; stroke-width:0px;"/><path d="m272.19,607.35c0-.3.32-.54.72-.54s.72.24.72.54-.32.54-.72.54-.72-.24-.72-.54Z" style="fill:#b2a19e; stroke-width:0px;"/><path d="m272.26,607.35c0-.27.29-.48.65-.48s.65.22.65.48-.29.48-.65.48-.65-.22-.65-.48Z" style="fill:#b2a3a1; stroke-width:0px;"/><ellipse cx="272.91" cy="607.35" rx=".57" ry=".43" style="fill:#b4a5a3; stroke-width:0px;"/><path d="m272.4,607.35c0-.21.22-.38.5-.38s.5.17.5.38-.22.38-.5.38-.5-.17-.5-.38Z" style="fill:#b6a7a6; stroke-width:0px;"/><path d="m272.47,607.35c0-.18.19-.32.43-.32s.43.14.43.32-.19.32-.43.32-.43-.14-.43-.32Z" style="fill:#b8a9a6; stroke-width:0px;"/><ellipse cx="272.91" cy="607.35" rx=".36" ry=".27" style="fill:#baaba8; stroke-width:0px;"/><path d="m272.62,607.35c0-.12.13-.21.29-.21s.29.1.29.21-.13.22-.29.22-.29-.1-.29-.22Z" style="fill:#bcacab; stroke-width:0px;"/><ellipse cx="272.91" cy="607.35" rx=".22" ry=".16" style="fill:#beaeae; stroke-width:0px;"/><path d="m272.76,607.35c0-.06.06-.11.14-.11s.14.05.14.11-.06.11-.14.11-.14-.05-.14-.11Z" style="fill:#c0b0ae; stroke-width:0px;"/><path d="m272.83,607.35s.03-.05.07-.05.07.02.07.05-.03.05-.07.05-.07-.02-.07-.05Z" style="fill:#c2b2b0; stroke-width:0px;"/></g><ellipse cx="296.54" cy="613.16" rx="5.87" ry="8.76" style="fill:url(#_Безымянный_градиент_250-6); mix-blend-mode:multiply; opacity:.5; stroke-width:0px;"/><path d="m299.68,609.16c0,2.63-1.82,4.76-4.07,4.76s-4.07-2.13-4.07-4.76,1.82-4.76,4.07-4.76,4.07,2.13,4.07,4.76Z" style="fill:url(#_Безымянный_градиент_246-2); fill-rule:evenodd; stroke-width:0px;"/><g style="clip-path:url(#clippath-1);"><rect x="294.65" y="603.27" width="10.07" height="11.77" style="fill:#41271d; stroke-width:0px;"/><path d="m292.31,607.35c0-2.52,2.73-4.57,6.1-4.57s6.1,2.05,6.1,4.57-2.73,4.57-6.1,4.57-6.1-2.05-6.1-4.57Z" style="fill:#41271d; stroke-width:0px;"/><path d="m292.38,607.35c0-2.49,2.7-4.52,6.03-4.52s6.02,2.02,6.02,4.52-2.7,4.52-6.02,4.52-6.03-2.02-6.03-4.52Z" style="fill:#41271e; stroke-width:0px;"/><path d="m292.45,607.35c0-2.46,2.67-4.46,5.95-4.46s5.95,2,5.95,4.46-2.67,4.46-5.95,4.46-5.95-2-5.95-4.46Z" style="fill:#41271e; stroke-width:0px;"/><path d="m292.52,607.35c0-2.43,2.63-4.41,5.88-4.41s5.88,1.97,5.88,4.41-2.63,4.41-5.88,4.41-5.88-1.97-5.88-4.41Z" style="fill:#42281e; stroke-width:0px;"/><path d="m292.59,607.35c0-2.4,2.6-4.35,5.81-4.35s5.81,1.95,5.81,4.35-2.6,4.35-5.81,4.35-5.81-1.95-5.81-4.35Z" style="fill:#42281e; stroke-width:0px;"/><path d="m292.67,607.35c0-2.38,2.57-4.3,5.74-4.3s5.74,1.93,5.74,4.3-2.57,4.3-5.74,4.3-5.74-1.93-5.74-4.3Z" style="fill:#43281e; stroke-width:0px;"/><path d="m292.74,607.35c0-2.35,2.54-4.25,5.67-4.25s5.67,1.9,5.67,4.25-2.54,4.25-5.67,4.25-5.67-1.9-5.67-4.25Z" style="fill:#43281e; stroke-width:0px;"/><path d="m292.81,607.35c0-2.32,2.5-4.19,5.59-4.19s5.59,1.88,5.59,4.19-2.5,4.19-5.59,4.19-5.59-1.88-5.59-4.19Z" style="fill:#44291e; stroke-width:0px;"/><path d="m292.88,607.35c0-2.29,2.47-4.14,5.52-4.14s5.52,1.85,5.52,4.14-2.47,4.14-5.52,4.14-5.52-1.85-5.52-4.14Z" style="fill:#44291f; stroke-width:0px;"/><path d="m292.95,607.35c0-2.26,2.44-4.09,5.45-4.09s5.45,1.83,5.45,4.09-2.44,4.09-5.45,4.09-5.45-1.83-5.45-4.09Z" style="fill:#44291f; stroke-width:0px;"/><path d="m293.03,607.35c0-2.23,2.41-4.03,5.38-4.03s5.38,1.81,5.38,4.03-2.41,4.03-5.38,4.03-5.38-1.8-5.38-4.03Z" style="fill:#442a1f; stroke-width:0px;"/><path d="m293.1,607.35c0-2.2,2.38-3.98,5.31-3.98s5.31,1.78,5.31,3.98-2.38,3.98-5.31,3.98-5.31-1.78-5.31-3.98Z" style="fill:#452a1f; stroke-width:0px;"/><ellipse cx="298.4" cy="607.35" rx="5.24" ry="3.92" style="fill:#452a20; stroke-width:0px;"/><path d="m293.24,607.35c0-2.14,2.31-3.87,5.16-3.87s5.16,1.73,5.16,3.87-2.31,3.87-5.16,3.87-5.16-1.73-5.16-3.87Z" style="fill:#462b23; stroke-width:0px;"/><path d="m293.31,607.35c0-2.11,2.28-3.82,5.09-3.82s5.09,1.71,5.09,3.82-2.28,3.82-5.09,3.82-5.09-1.71-5.09-3.82Z" style="fill:#472b23; stroke-width:0px;"/><path d="m293.38,607.35c0-2.08,2.25-3.76,5.02-3.76s5.02,1.69,5.02,3.76-2.25,3.76-5.02,3.76-5.02-1.68-5.02-3.76Z" style="fill:#492c25; stroke-width:0px;"/><path d="m293.46,607.35c0-2.05,2.22-3.71,4.95-3.71s4.95,1.66,4.95,3.71-2.22,3.71-4.95,3.71-4.95-1.66-4.95-3.71Z" style="fill:#492e28; stroke-width:0px;"/><path d="m293.53,607.35c0-2.02,2.18-3.66,4.88-3.66s4.88,1.64,4.88,3.66-2.18,3.66-4.88,3.66-4.88-1.64-4.88-3.66Z" style="fill:#4b302b; stroke-width:0px;"/><path d="m293.6,607.35c0-1.99,2.15-3.6,4.81-3.6s4.81,1.61,4.81,3.6-2.15,3.6-4.81,3.6-4.81-1.61-4.81-3.6Z" style="fill:#4d322b; stroke-width:0px;"/><path d="m293.67,607.35c0-1.96,2.12-3.55,4.73-3.55s4.73,1.59,4.73,3.55-2.12,3.55-4.73,3.55-4.73-1.59-4.73-3.55Z" style="fill:#4f342d; stroke-width:0px;"/><path d="m293.74,607.35c0-1.93,2.09-3.49,4.66-3.49s4.66,1.56,4.66,3.49-2.09,3.49-4.66,3.49-4.66-1.56-4.66-3.49Z" style="fill:#513530; stroke-width:0px;"/><path d="m293.81,607.35c0-1.9,2.06-3.44,4.59-3.44s4.59,1.54,4.59,3.44-2.06,3.44-4.59,3.44-4.59-1.54-4.59-3.44Z" style="fill:#533732; stroke-width:0px;"/><path d="m293.89,607.35c0-1.87,2.02-3.39,4.52-3.39s4.52,1.52,4.52,3.39-2.02,3.39-4.52,3.39-4.52-1.52-4.52-3.39Z" style="fill:#533932; stroke-width:0px;"/><path d="m293.96,607.35c0-1.84,1.99-3.33,4.45-3.33s4.45,1.49,4.45,3.33-1.99,3.33-4.45,3.33-4.45-1.49-4.45-3.33Z" style="fill:#553b35; stroke-width:0px;"/><path d="m294.03,607.35c0-1.81,1.96-3.28,4.38-3.28s4.38,1.47,4.38,3.28-1.96,3.28-4.38,3.28-4.38-1.47-4.38-3.28Z" style="fill:#573d3a; stroke-width:0px;"/><path d="m294.1,607.35c0-1.78,1.93-3.23,4.3-3.23s4.3,1.44,4.3,3.23-1.93,3.23-4.3,3.23-4.3-1.44-4.3-3.23Z" style="fill:#593f3a; stroke-width:0px;"/><path d="m294.17,607.35c0-1.75,1.89-3.17,4.23-3.17s4.23,1.42,4.23,3.17-1.89,3.17-4.23,3.17-4.23-1.42-4.23-3.17Z" style="fill:#5b413d; stroke-width:0px;"/><path d="m294.24,607.35c0-1.72,1.86-3.12,4.16-3.12s4.16,1.4,4.16,3.12-1.86,3.12-4.16,3.12-4.16-1.4-4.16-3.12Z" style="fill:#5d4340; stroke-width:0px;"/><path d="m294.32,607.35c0-1.69,1.83-3.06,4.09-3.06s4.09,1.37,4.09,3.06-1.83,3.06-4.09,3.06-4.09-1.37-4.09-3.06Z" style="fill:#5f4542; stroke-width:0px;"/><path d="m294.39,607.35c0-1.66,1.8-3.01,4.02-3.01s4.02,1.35,4.02,3.01-1.8,3.01-4.02,3.01-4.02-1.35-4.02-3.01Z" style="fill:#614742; stroke-width:0px;"/><path d="m294.46,607.35c0-1.63,1.77-2.96,3.94-2.96s3.94,1.32,3.94,2.96-1.77,2.96-3.94,2.96-3.94-1.32-3.94-2.96Z" style="fill:#634945; stroke-width:0px;"/><path d="m294.53,607.35c0-1.6,1.73-2.9,3.87-2.9s3.87,1.3,3.87,2.9-1.73,2.9-3.87,2.9-3.87-1.3-3.87-2.9Z" style="fill:#654b47; stroke-width:0px;"/><path d="m294.6,607.35c0-1.57,1.7-2.85,3.8-2.85s3.8,1.28,3.8,2.85-1.7,2.85-3.8,2.85-3.8-1.28-3.8-2.85Z" style="fill:#674c4a; stroke-width:0px;"/><path d="m294.67,607.35c0-1.54,1.67-2.8,3.73-2.8s3.73,1.25,3.73,2.8-1.67,2.8-3.73,2.8-3.73-1.25-3.73-2.8Z" style="fill:#694c4a; stroke-width:0px;"/><path d="m294.75,607.35c0-1.51,1.64-2.74,3.66-2.74s3.66,1.23,3.66,2.74-1.64,2.74-3.66,2.74-3.66-1.23-3.66-2.74Z" style="fill:#694e4d; stroke-width:0px;"/><path d="m294.82,607.35c0-1.48,1.61-2.69,3.59-2.69s3.59,1.2,3.59,2.69-1.61,2.69-3.59,2.69-3.59-1.2-3.59-2.69Z" style="fill:#6b504f; stroke-width:0px;"/><path d="m294.89,607.35c0-1.45,1.57-2.63,3.51-2.63s3.51,1.18,3.51,2.63-1.57,2.63-3.51,2.63-3.51-1.18-3.51-2.63Z" style="fill:#6d5252; stroke-width:0px;"/><path d="m294.96,607.35c0-1.42,1.54-2.58,3.44-2.58s3.44,1.16,3.44,2.58-1.54,2.58-3.44,2.58-3.44-1.16-3.44-2.58Z" style="fill:#6f5452; stroke-width:0px;"/><path d="m295.03,607.35c0-1.4,1.51-2.53,3.37-2.53s3.37,1.13,3.37,2.53-1.51,2.53-3.37,2.53-3.37-1.13-3.37-2.53Z" style="fill:#705655; stroke-width:0px;"/><ellipse cx="298.4" cy="607.35" rx="3.3" ry="2.47" style="fill:#725857; stroke-width:0px;"/><path d="m295.18,607.35c0-1.34,1.45-2.42,3.23-2.42s3.23,1.08,3.23,2.42-1.45,2.42-3.23,2.42-3.23-1.08-3.23-2.42Z" style="fill:#725a5a; stroke-width:0px;"/><path d="m295.25,607.35c0-1.31,1.41-2.37,3.16-2.37s3.16,1.06,3.16,2.37-1.41,2.37-3.16,2.37-3.16-1.06-3.16-2.37Z" style="fill:#745c5a; stroke-width:0px;"/><path d="m295.32,607.35c0-1.28,1.38-2.31,3.08-2.31s3.08,1.03,3.08,2.31-1.38,2.31-3.08,2.31-3.08-1.03-3.08-2.31Z" style="fill:#76605c; stroke-width:0px;"/><path d="m295.39,607.35c0-1.25,1.35-2.26,3.01-2.26s3.01,1.01,3.01,2.26-1.35,2.26-3.01,2.26-3.01-1.01-3.01-2.26Z" style="fill:#78625f; stroke-width:0px;"/><path d="m295.46,607.35c0-1.22,1.32-2.2,2.94-2.2s2.94.99,2.94,2.2-1.32,2.2-2.94,2.2-2.94-.99-2.94-2.2Z" style="fill:#7a645f; stroke-width:0px;"/><path d="m295.54,607.35c0-1.19,1.28-2.15,2.87-2.15s2.87.96,2.87,2.15-1.28,2.15-2.87,2.15-2.87-.96-2.87-2.15Z" style="fill:#7c6562; stroke-width:0px;"/><path d="m295.61,607.35c0-1.16,1.25-2.1,2.8-2.1s2.8.94,2.8,2.1-1.25,2.1-2.8,2.1-2.8-.94-2.8-2.1Z" style="fill:#7e6764; stroke-width:0px;"/><path d="m295.68,607.35c0-1.13,1.22-2.04,2.73-2.04s2.73.91,2.73,2.04-1.22,2.04-2.73,2.04-2.73-.91-2.73-2.04Z" style="fill:#806b67; stroke-width:0px;"/><path d="m295.75,607.35c0-1.1,1.19-1.99,2.65-1.99s2.65.89,2.65,1.99-1.19,1.99-2.65,1.99-2.65-.89-2.65-1.99Z" style="fill:#826d67; stroke-width:0px;"/><path d="m295.82,607.35c0-1.07,1.16-1.94,2.58-1.94s2.58.87,2.58,1.94-1.16,1.94-2.58,1.94-2.58-.87-2.58-1.94Z" style="fill:#846f6a; stroke-width:0px;"/><path d="m295.89,607.35c0-1.04,1.12-1.88,2.51-1.88s2.51.84,2.51,1.88-1.12,1.88-2.51,1.88-2.51-.84-2.51-1.88Z" style="fill:#86716c; stroke-width:0px;"/><path d="m295.97,607.35c0-1.01,1.09-1.83,2.44-1.83s2.44.82,2.44,1.83-1.09,1.83-2.44,1.83-2.44-.82-2.44-1.83Z" style="fill:#88736f; stroke-width:0px;"/><path d="m296.04,607.35c0-.98,1.06-1.77,2.37-1.77s2.37.79,2.37,1.77-1.06,1.77-2.37,1.77-2.37-.79-2.37-1.77Z" style="fill:#88756f; stroke-width:0px;"/><path d="m296.11,607.35c0-.95,1.03-1.72,2.3-1.72s2.29.77,2.29,1.72-1.03,1.72-2.29,1.72-2.3-.77-2.3-1.72Z" style="fill:#8a7771; stroke-width:0px;"/><path d="m296.18,607.35c0-.92,1-1.67,2.22-1.67s2.22.75,2.22,1.67-1,1.67-2.22,1.67-2.22-.75-2.22-1.67Z" style="fill:#8c7974; stroke-width:0px;"/><path d="m296.25,607.35c0-.89.96-1.61,2.15-1.61s2.15.72,2.15,1.61-.96,1.61-2.15,1.61-2.15-.72-2.15-1.61Z" style="fill:#8e7b77; stroke-width:0px;"/><path d="m296.32,607.35c0-.86.93-1.56,2.08-1.56s2.08.7,2.08,1.56-.93,1.56-2.08,1.56-2.08-.7-2.08-1.56Z" style="fill:#907c77; stroke-width:0px;"/><path d="m296.4,607.35c0-.83.9-1.51,2.01-1.51s2.01.67,2.01,1.51-.9,1.51-2.01,1.51-2.01-.67-2.01-1.51Z" style="fill:#927e79; stroke-width:0px;"/><path d="m296.47,607.35c0-.8.87-1.45,1.94-1.45s1.94.65,1.94,1.45-.87,1.45-1.94,1.45-1.94-.65-1.94-1.45Z" style="fill:#92807c; stroke-width:0px;"/><path d="m296.54,607.35c0-.77.84-1.4,1.87-1.4s1.86.63,1.86,1.4-.84,1.4-1.86,1.4-1.87-.63-1.87-1.4Z" style="fill:#94827e; stroke-width:0px;"/><path d="m296.61,607.35c0-.74.8-1.34,1.79-1.34s1.79.6,1.79,1.34-.8,1.34-1.79,1.34-1.79-.6-1.79-1.34Z" style="fill:#96847e; stroke-width:0px;"/><path d="m296.68,607.35c0-.71.77-1.29,1.72-1.29s1.72.58,1.72,1.29-.77,1.29-1.72,1.29-1.72-.58-1.72-1.29Z" style="fill:#988681; stroke-width:0px;"/><path d="m296.75,607.35c0-.68.74-1.24,1.65-1.24s1.65.55,1.65,1.24-.74,1.24-1.65,1.24-1.65-.55-1.65-1.24Z" style="fill:#9a8884; stroke-width:0px;"/><path d="m296.83,607.35c0-.65.71-1.18,1.58-1.18s1.58.53,1.58,1.18-.71,1.18-1.58,1.18-1.58-.53-1.58-1.18Z" style="fill:#9c8a86; stroke-width:0px;"/><path d="m296.9,607.35c0-.62.67-1.13,1.51-1.13s1.51.51,1.51,1.13-.67,1.13-1.51,1.13-1.51-.51-1.51-1.13Z" style="fill:#9e8c86; stroke-width:0px;"/><path d="m296.97,607.35c0-.59.64-1.08,1.43-1.08s1.43.48,1.43,1.08-.64,1.08-1.43,1.08-1.43-.48-1.43-1.08Z" style="fill:#a08e89; stroke-width:0px;"/><path d="m297.04,607.35c0-.56.61-1.02,1.36-1.02s1.36.46,1.36,1.02-.61,1.02-1.36,1.02-1.36-.46-1.36-1.02Z" style="fill:#a2908c; stroke-width:0px;"/><path d="m297.11,607.35c0-.53.58-.97,1.29-.97s1.29.43,1.29.97-.58.97-1.29.97-1.29-.43-1.29-.97Z" style="fill:#a4928c; stroke-width:0px;"/><path d="m297.19,607.35c0-.5.55-.91,1.22-.91s1.22.41,1.22.91-.55.91-1.22.91-1.22-.41-1.22-.91Z" style="fill:#a6938e; stroke-width:0px;"/><path d="m297.26,607.35c0-.47.51-.86,1.15-.86s1.15.39,1.15.86-.51.86-1.15.86-1.15-.38-1.15-.86Z" style="fill:#a89591; stroke-width:0px;"/><path d="m297.33,607.35c0-.45.48-.81,1.08-.81s1.08.36,1.08.81-.48.81-1.08.81-1.08-.36-1.08-.81Z" style="fill:#a89793; stroke-width:0px;"/><path d="m297.4,607.35c0-.42.45-.75,1-.75s1,.34,1,.75-.45.75-1,.75-1-.34-1-.75Z" style="fill:#aa9993; stroke-width:0px;"/><path d="m297.47,607.35c0-.39.42-.7.93-.7s.93.31.93.7-.42.7-.93.7-.93-.31-.93-.7Z" style="fill:#ac9b96; stroke-width:0px;"/><path d="m297.54,607.35c0-.36.39-.64.86-.64s.86.29.86.64-.39.65-.86.65-.86-.29-.86-.65Z" style="fill:#ae9d99; stroke-width:0px;"/><path d="m297.62,607.35c0-.33.35-.59.79-.59s.79.26.79.59-.35.59-.79.59-.79-.26-.79-.59Z" style="fill:#b09f9b; stroke-width:0px;"/><path d="m297.69,607.35c0-.3.32-.54.72-.54s.72.24.72.54-.32.54-.72.54-.72-.24-.72-.54Z" style="fill:#b2a19e; stroke-width:0px;"/><path d="m297.76,607.35c0-.27.29-.48.65-.48s.65.22.65.48-.29.48-.65.48-.65-.22-.65-.48Z" style="fill:#b2a3a1; stroke-width:0px;"/><path d="m297.83,607.35c0-.24.26-.43.57-.43s.57.19.57.43-.26.43-.57.43-.57-.19-.57-.43Z" style="fill:#b4a5a3; stroke-width:0px;"/><path d="m297.9,607.35c0-.21.22-.38.5-.38s.5.17.5.38-.22.38-.5.38-.5-.17-.5-.38Z" style="fill:#b6a7a6; stroke-width:0px;"/><path d="m297.97,607.35c0-.18.19-.32.43-.32s.43.14.43.32-.19.32-.43.32-.43-.14-.43-.32Z" style="fill:#b8a9a6; stroke-width:0px;"/><path d="m298.05,607.35c0-.15.16-.27.36-.27s.36.12.36.27-.16.27-.36.27-.36-.12-.36-.27Z" style="fill:#baaba8; stroke-width:0px;"/><path d="m298.12,607.35c0-.12.13-.21.29-.21s.29.1.29.21-.13.22-.29.22-.29-.1-.29-.22Z" style="fill:#bcacab; stroke-width:0px;"/><path d="m298.19,607.35c0-.09.1-.16.22-.16s.22.07.22.16-.1.16-.22.16-.22-.07-.22-.16Z" style="fill:#beaeae; stroke-width:0px;"/><path d="m298.26,607.35c0-.06.06-.11.14-.11s.14.05.14.11-.06.11-.14.11-.14-.05-.14-.11Z" style="fill:#c0b0ae; stroke-width:0px;"/><path d="m298.33,607.35s.03-.05.07-.05.07.02.07.05-.03.05-.07.05-.07-.02-.07-.05Z" style="fill:#c2b2b0; stroke-width:0px;"/></g><path d="m276.91,213.36c0,4.84-2.63,8.76-5.87,8.76s-5.87-3.92-5.87-8.76,2.63-8.76,5.87-8.76,5.87,3.92,5.87,8.76Z" style="fill:url(#_Безымянный_градиент_250-7); fill-rule:evenodd; mix-blend-mode:multiply; opacity:.5; stroke-width:0px;"/><ellipse cx="270.11" cy="209.36" rx="4.07" ry="4.76" style="fill:url(#_Безымянный_градиент_246-3); stroke-width:0px;"/><g style="clip-path:url(#clippath-2);"><rect x="269.15" y="203.48" width="10.07" height="11.77" style="fill:#41271d; stroke-width:0px;"/><ellipse cx="272.91" cy="207.56" rx="6.1" ry="4.57" style="fill:#41271d; stroke-width:0px;"/><ellipse cx="272.91" cy="207.56" rx="6.02" ry="4.52" style="fill:#41271e; stroke-width:0px;"/><path d="m266.95,207.56c0-2.46,2.67-4.46,5.95-4.46s5.95,2,5.95,4.46-2.67,4.46-5.95,4.46-5.95-2-5.95-4.46Z" style="fill:#41271e; stroke-width:0px;"/><ellipse cx="272.91" cy="207.56" rx="5.88" ry="4.41" style="fill:#42281e; stroke-width:0px;"/><ellipse cx="272.91" cy="207.56" rx="5.81" ry="4.35" style="fill:#42281e; stroke-width:0px;"/><ellipse cx="272.91" cy="207.56" rx="5.74" ry="4.3" style="fill:#43281e; stroke-width:0px;"/><path d="m267.24,207.56c0-2.35,2.54-4.25,5.67-4.25s5.67,1.9,5.67,4.25-2.54,4.25-5.67,4.25-5.67-1.9-5.67-4.25Z" style="fill:#43281e; stroke-width:0px;"/><ellipse cx="272.91" cy="207.56" rx="5.59" ry="4.19" style="fill:#44291e; stroke-width:0px;"/><ellipse cx="272.91" cy="207.56" rx="5.52" ry="4.14" style="fill:#44291f; stroke-width:0px;"/><ellipse cx="272.91" cy="207.56" rx="5.45" ry="4.09" style="fill:#44291f; stroke-width:0px;"/><path d="m267.53,207.56c0-2.23,2.41-4.03,5.38-4.03s5.38,1.81,5.38,4.03-2.41,4.03-5.38,4.03-5.38-1.81-5.38-4.03Z" style="fill:#442a1f; stroke-width:0px;"/><ellipse cx="272.91" cy="207.56" rx="5.31" ry="3.98" style="fill:#452a1f; stroke-width:0px;"/><ellipse cx="272.91" cy="207.56" rx="5.24" ry="3.92" style="fill:#452a20; stroke-width:0px;"/><ellipse cx="272.91" cy="207.56" rx="5.16" ry="3.87" style="fill:#462b23; stroke-width:0px;"/><path d="m267.81,207.56c0-2.11,2.28-3.82,5.09-3.82s5.09,1.71,5.09,3.82-2.28,3.82-5.09,3.82-5.09-1.71-5.09-3.82Z" style="fill:#472b23; stroke-width:0px;"/><ellipse cx="272.91" cy="207.56" rx="5.02" ry="3.76" style="fill:#492c25; stroke-width:0px;"/><ellipse cx="272.91" cy="207.56" rx="4.95" ry="3.71" style="fill:#492e28; stroke-width:0px;"/><ellipse cx="272.91" cy="207.56" rx="4.88" ry="3.66" style="fill:#4b302b; stroke-width:0px;"/><path d="m268.1,207.56c0-1.99,2.15-3.6,4.81-3.6s4.81,1.61,4.81,3.6-2.15,3.6-4.81,3.6-4.81-1.61-4.81-3.6Z" style="fill:#4d322b; stroke-width:0px;"/><path d="m268.17,207.56c0-1.96,2.12-3.55,4.73-3.55s4.73,1.59,4.73,3.55-2.12,3.55-4.73,3.55-4.73-1.59-4.73-3.55Z" style="fill:#4f342d; stroke-width:0px;"/><ellipse cx="272.91" cy="207.56" rx="4.66" ry="3.49" style="fill:#513530; stroke-width:0px;"/><ellipse cx="272.91" cy="207.56" rx="4.59" ry="3.44" style="fill:#533732; stroke-width:0px;"/><path d="m268.39,207.56c0-1.87,2.02-3.39,4.52-3.39s4.52,1.52,4.52,3.39-2.02,3.39-4.52,3.39-4.52-1.52-4.52-3.39Z" style="fill:#533932; stroke-width:0px;"/><ellipse cx="272.91" cy="207.56" rx="4.45" ry="3.33" style="fill:#553b35; stroke-width:0px;"/><ellipse cx="272.91" cy="207.56" rx="4.38" ry="3.28" style="fill:#573d3a; stroke-width:0px;"/><path d="m268.6,207.56c0-1.78,1.93-3.23,4.3-3.23s4.3,1.44,4.3,3.23-1.93,3.23-4.3,3.23-4.3-1.44-4.3-3.23Z" style="fill:#593f3a; stroke-width:0px;"/><path d="m268.67,207.56c0-1.75,1.89-3.17,4.23-3.17s4.23,1.42,4.23,3.17-1.89,3.17-4.23,3.17-4.23-1.42-4.23-3.17Z" style="fill:#5b413d; stroke-width:0px;"/><ellipse cx="272.91" cy="207.56" rx="4.16" ry="3.12" style="fill:#5d4340; stroke-width:0px;"/><ellipse cx="272.91" cy="207.56" rx="4.09" ry="3.06" style="fill:#5f4542; stroke-width:0px;"/><path d="m268.89,207.56c0-1.66,1.8-3.01,4.02-3.01s4.02,1.35,4.02,3.01-1.8,3.01-4.02,3.01-4.02-1.35-4.02-3.01Z" style="fill:#614742; stroke-width:0px;"/><ellipse cx="272.91" cy="207.56" rx="3.94" ry="2.96" style="fill:#634945; stroke-width:0px;"/><ellipse cx="272.91" cy="207.56" rx="3.87" ry="2.9" style="fill:#654b47; stroke-width:0px;"/><ellipse cx="272.91" cy="207.56" rx="3.8" ry="2.85" style="fill:#674c4a; stroke-width:0px;"/><path d="m269.18,207.56c0-1.54,1.67-2.8,3.73-2.8s3.73,1.25,3.73,2.8-1.67,2.8-3.73,2.8-3.73-1.25-3.73-2.8Z" style="fill:#694c4a; stroke-width:0px;"/><ellipse cx="272.91" cy="207.56" rx="3.66" ry="2.74" style="fill:#694e4d; stroke-width:0px;"/><ellipse cx="272.91" cy="207.56" rx="3.59" ry="2.69" style="fill:#6b504f; stroke-width:0px;"/><ellipse cx="272.91" cy="207.56" rx="3.51" ry="2.63" style="fill:#6d5252; stroke-width:0px;"/><path d="m269.46,207.56c0-1.43,1.54-2.58,3.44-2.58s3.44,1.16,3.44,2.58-1.54,2.58-3.44,2.58-3.44-1.16-3.44-2.58Z" style="fill:#6f5452; stroke-width:0px;"/><ellipse cx="272.91" cy="207.56" rx="3.37" ry="2.53" style="fill:#705655; stroke-width:0px;"/><ellipse cx="272.91" cy="207.56" rx="3.3" ry="2.47" style="fill:#725857; stroke-width:0px;"/><ellipse cx="272.91" cy="207.56" rx="3.23" ry="2.42" style="fill:#725a5a; stroke-width:0px;"/><path d="m269.75,207.56c0-1.31,1.41-2.37,3.16-2.37s3.16,1.06,3.16,2.37-1.41,2.37-3.16,2.37-3.16-1.06-3.16-2.37Z" style="fill:#745c5a; stroke-width:0px;"/><ellipse cx="272.91" cy="207.56" rx="3.08" ry="2.31" style="fill:#76605c; stroke-width:0px;"/><ellipse cx="272.91" cy="207.56" rx="3.01" ry="2.26" style="fill:#78625f; stroke-width:0px;"/><ellipse cx="272.91" cy="207.56" rx="2.94" ry="2.2" style="fill:#7a645f; stroke-width:0px;"/><path d="m270.04,207.56c0-1.19,1.28-2.15,2.87-2.15s2.87.96,2.87,2.15-1.28,2.15-2.87,2.15-2.87-.96-2.87-2.15Z" style="fill:#7c6562; stroke-width:0px;"/><ellipse cx="272.91" cy="207.56" rx="2.8" ry="2.1" style="fill:#7e6764; stroke-width:0px;"/><ellipse cx="272.91" cy="207.56" rx="2.73" ry="2.04" style="fill:#806b67; stroke-width:0px;"/><path d="m270.25,207.56c0-1.1,1.19-1.99,2.65-1.99s2.65.89,2.65,1.99-1.19,1.99-2.65,1.99-2.65-.89-2.65-1.99Z" style="fill:#826d67; stroke-width:0px;"/><path d="m270.32,207.56c0-1.07,1.16-1.94,2.58-1.94s2.58.87,2.58,1.94-1.16,1.94-2.58,1.94-2.58-.87-2.58-1.94Z" style="fill:#846f6a; stroke-width:0px;"/><ellipse cx="272.91" cy="207.56" rx="2.51" ry="1.88" style="fill:#86716c; stroke-width:0px;"/><ellipse cx="272.91" cy="207.56" rx="2.44" ry="1.83" style="fill:#88736f; stroke-width:0px;"/><path d="m270.54,207.56c0-.98,1.06-1.77,2.37-1.77s2.37.79,2.37,1.77-1.06,1.77-2.37,1.77-2.37-.79-2.37-1.77Z" style="fill:#88756f; stroke-width:0px;"/><ellipse cx="272.91" cy="207.56" rx="2.3" ry="1.72" style="fill:#8a7771; stroke-width:0px;"/><path d="m270.68,207.56c0-.92,1-1.67,2.22-1.67s2.22.75,2.22,1.67-1,1.67-2.22,1.67-2.22-.75-2.22-1.67Z" style="fill:#8c7974; stroke-width:0px;"/><ellipse cx="272.91" cy="207.56" rx="2.15" ry="1.61" style="fill:#8e7b77; stroke-width:0px;"/><path d="m270.82,207.56c0-.86.93-1.56,2.08-1.56s2.08.7,2.08,1.56-.93,1.56-2.08,1.56-2.08-.7-2.08-1.56Z" style="fill:#907c77; stroke-width:0px;"/><ellipse cx="272.91" cy="207.56" rx="2.01" ry="1.51" style="fill:#927e79; stroke-width:0px;"/><ellipse cx="272.91" cy="207.56" rx="1.94" ry="1.45" style="fill:#92807c; stroke-width:0px;"/><ellipse cx="272.91" cy="207.56" rx="1.86" ry="1.4" style="fill:#94827e; stroke-width:0px;"/><path d="m271.11,207.56c0-.74.8-1.34,1.79-1.34s1.79.6,1.79,1.34-.8,1.34-1.79,1.34-1.79-.6-1.79-1.34Z" style="fill:#96847e; stroke-width:0px;"/><ellipse cx="272.91" cy="207.56" rx="1.72" ry="1.29" style="fill:#988681; stroke-width:0px;"/><ellipse cx="272.91" cy="207.56" rx="1.65" ry="1.24" style="fill:#9a8884; stroke-width:0px;"/><ellipse cx="272.91" cy="207.56" rx="1.58" ry="1.18" style="fill:#9c8a86; stroke-width:0px;"/><path d="m271.4,207.56c0-.62.67-1.13,1.51-1.13s1.51.51,1.51,1.13-.67,1.13-1.51,1.13-1.51-.51-1.51-1.13Z" style="fill:#9e8c86; stroke-width:0px;"/><ellipse cx="272.91" cy="207.56" rx="1.43" ry="1.08" style="fill:#a08e89; stroke-width:0px;"/><ellipse cx="272.91" cy="207.56" rx="1.36" ry="1.02" style="fill:#a2908c; stroke-width:0px;"/><ellipse cx="272.91" cy="207.56" rx="1.29" ry=".97" style="fill:#a4928c; stroke-width:0px;"/><path d="m271.69,207.56c0-.5.55-.91,1.22-.91s1.22.41,1.22.91-.55.91-1.22.91-1.22-.41-1.22-.91Z" style="fill:#a6938e; stroke-width:0px;"/><ellipse cx="272.91" cy="207.56" rx="1.15" ry=".86" style="fill:#a89591; stroke-width:0px;"/><ellipse cx="272.91" cy="207.56" rx="1.08" ry=".81" style="fill:#a89793; stroke-width:0px;"/><path d="m271.9,207.56c0-.42.45-.75,1-.75s1,.34,1,.75-.45.75-1,.75-1-.34-1-.75Z" style="fill:#aa9993; stroke-width:0px;"/><path d="m271.97,207.56c0-.39.42-.7.93-.7s.93.31.93.7-.42.7-.93.7-.93-.31-.93-.7Z" style="fill:#ac9b96; stroke-width:0px;"/><ellipse cx="272.91" cy="207.56" rx=".86" ry=".65" style="fill:#ae9d99; stroke-width:0px;"/><ellipse cx="272.91" cy="207.56" rx=".79" ry=".59" style="fill:#b09f9b; stroke-width:0px;"/><path d="m272.19,207.56c0-.3.32-.54.72-.54s.72.24.72.54-.32.54-.72.54-.72-.24-.72-.54Z" style="fill:#b2a19e; stroke-width:0px;"/><ellipse cx="272.91" cy="207.56" rx=".65" ry=".48" style="fill:#b2a3a1; stroke-width:0px;"/><ellipse cx="272.91" cy="207.56" rx=".57" ry=".43" style="fill:#b4a5a3; stroke-width:0px;"/><ellipse cx="272.91" cy="207.56" rx=".5" ry=".38" style="fill:#b6a7a6; stroke-width:0px;"/><path d="m272.47,207.56c0-.18.19-.32.43-.32s.43.14.43.32-.19.32-.43.32-.43-.14-.43-.32Z" style="fill:#b8a9a6; stroke-width:0px;"/><ellipse cx="272.91" cy="207.56" rx=".36" ry=".27" style="fill:#baaba8; stroke-width:0px;"/><path d="m272.62,207.56c0-.12.13-.22.29-.22s.29.1.29.22-.13.21-.29.21-.29-.1-.29-.21Z" style="fill:#bcacab; stroke-width:0px;"/><ellipse cx="272.91" cy="207.56" rx=".22" ry=".16" style="fill:#beaeae; stroke-width:0px;"/><path d="m272.76,207.56c0-.06.06-.11.14-.11s.14.05.14.11-.06.11-.14.11-.14-.05-.14-.11Z" style="fill:#c0b0ae; stroke-width:0px;"/><ellipse cx="272.91" cy="207.56" rx=".07" ry=".05" style="fill:#c2b2b0; stroke-width:0px;"/></g><path d="m299.36,215.81c0,4.84-2.63,8.76-5.87,8.76s-5.87-3.92-5.87-8.76,2.63-8.76,5.87-8.76,5.87,3.92,5.87,8.76Z" style="fill:url(#_Безымянный_градиент_250-8); fill-rule:evenodd; mix-blend-mode:multiply; opacity:.5; stroke-width:0px;"/><ellipse cx="292.56" cy="211.81" rx="4.07" ry="4.76" style="fill:url(#_Безымянный_градиент_246-4); stroke-width:0px;"/><g style="clip-path:url(#clippath-3);"><rect x="291.6" y="205.93" width="10.07" height="11.77" style="fill:#41271d; stroke-width:0px;"/><ellipse cx="295.36" cy="210.01" rx="6.1" ry="4.57" style="fill:#41271d; stroke-width:0px;"/><ellipse cx="295.36" cy="210.01" rx="6.02" ry="4.52" style="fill:#41271e; stroke-width:0px;"/><path d="m289.4,210.01c0-2.46,2.67-4.46,5.95-4.46s5.95,2,5.95,4.46-2.67,4.46-5.95,4.46-5.95-2-5.95-4.46Z" style="fill:#41271e; stroke-width:0px;"/><path d="m289.48,210.01c0-2.43,2.63-4.41,5.88-4.41s5.88,1.97,5.88,4.41-2.63,4.41-5.88,4.41-5.88-1.97-5.88-4.41Z" style="fill:#42281e; stroke-width:0px;"/><ellipse cx="295.36" cy="210.01" rx="5.81" ry="4.35" style="fill:#42281e; stroke-width:0px;"/><ellipse cx="295.36" cy="210.01" rx="5.74" ry="4.3" style="fill:#43281e; stroke-width:0px;"/><path d="m289.69,210.01c0-2.35,2.54-4.25,5.67-4.25s5.67,1.9,5.67,4.25-2.54,4.25-5.67,4.25-5.67-1.9-5.67-4.25Z" style="fill:#43281e; stroke-width:0px;"/><path d="m289.76,210.01c0-2.32,2.5-4.19,5.59-4.19s5.59,1.88,5.59,4.19-2.5,4.19-5.59,4.19-5.59-1.88-5.59-4.19Z" style="fill:#44291e; stroke-width:0px;"/><ellipse cx="295.36" cy="210.01" rx="5.52" ry="4.14" style="fill:#44291f; stroke-width:0px;"/><path d="m289.91,210.01c0-2.26,2.44-4.09,5.45-4.09s5.45,1.83,5.45,4.09-2.44,4.09-5.45,4.09-5.45-1.83-5.45-4.09Z" style="fill:#44291f; stroke-width:0px;"/><path d="m289.98,210.01c0-2.23,2.41-4.03,5.38-4.03s5.38,1.81,5.38,4.03-2.41,4.03-5.38,4.03-5.38-1.81-5.38-4.03Z" style="fill:#442a1f; stroke-width:0px;"/><path d="m290.05,210.01c0-2.2,2.38-3.98,5.31-3.98s5.31,1.78,5.31,3.98-2.38,3.98-5.31,3.98-5.31-1.78-5.31-3.98Z" style="fill:#452a1f; stroke-width:0px;"/><ellipse cx="295.36" cy="210.01" rx="5.24" ry="3.92" style="fill:#452a20; stroke-width:0px;"/><path d="m290.19,210.01c0-2.14,2.31-3.87,5.16-3.87s5.16,1.73,5.16,3.87-2.31,3.87-5.16,3.87-5.16-1.73-5.16-3.87Z" style="fill:#462b23; stroke-width:0px;"/><path d="m290.26,210.01c0-2.11,2.28-3.82,5.09-3.82s5.09,1.71,5.09,3.82-2.28,3.82-5.09,3.82-5.09-1.71-5.09-3.82Z" style="fill:#472b23; stroke-width:0px;"/><path d="m290.34,210.01c0-2.08,2.25-3.76,5.02-3.76s5.02,1.68,5.02,3.76-2.25,3.76-5.02,3.76-5.02-1.68-5.02-3.76Z" style="fill:#492c25; stroke-width:0px;"/><ellipse cx="295.36" cy="210.01" rx="4.95" ry="3.71" style="fill:#492e28; stroke-width:0px;"/><path d="m290.48,210.01c0-2.02,2.18-3.66,4.88-3.66s4.88,1.64,4.88,3.66-2.18,3.66-4.88,3.66-4.88-1.64-4.88-3.66Z" style="fill:#4b302b; stroke-width:0px;"/><path d="m290.55,210.01c0-1.99,2.15-3.6,4.81-3.6s4.81,1.61,4.81,3.6-2.15,3.6-4.81,3.6-4.81-1.61-4.81-3.6Z" style="fill:#4d322b; stroke-width:0px;"/><path d="m290.62,210.01c0-1.96,2.12-3.55,4.73-3.55s4.73,1.59,4.73,3.55-2.12,3.55-4.73,3.55-4.73-1.59-4.73-3.55Z" style="fill:#4f342d; stroke-width:0px;"/><ellipse cx="295.36" cy="210.01" rx="4.66" ry="3.49" style="fill:#513530; stroke-width:0px;"/><path d="m290.77,210.01c0-1.9,2.06-3.44,4.59-3.44s4.59,1.54,4.59,3.44-2.06,3.44-4.59,3.44-4.59-1.54-4.59-3.44Z" style="fill:#533732; stroke-width:0px;"/><path d="m290.84,210.01c0-1.87,2.02-3.39,4.52-3.39s4.52,1.52,4.52,3.39-2.02,3.39-4.52,3.39-4.52-1.52-4.52-3.39Z" style="fill:#533932; stroke-width:0px;"/><ellipse cx="295.36" cy="210.01" rx="4.45" ry="3.33" style="fill:#553b35; stroke-width:0px;"/><ellipse cx="295.36" cy="210.01" rx="4.38" ry="3.28" style="fill:#573d3a; stroke-width:0px;"/><path d="m291.05,210.01c0-1.78,1.93-3.23,4.3-3.23s4.3,1.44,4.3,3.23-1.93,3.23-4.3,3.23-4.3-1.44-4.3-3.23Z" style="fill:#593f3a; stroke-width:0px;"/><path d="m291.12,210.01c0-1.75,1.89-3.17,4.23-3.17s4.23,1.42,4.23,3.17-1.89,3.17-4.23,3.17-4.23-1.42-4.23-3.17Z" style="fill:#5b413d; stroke-width:0px;"/><ellipse cx="295.36" cy="210.01" rx="4.16" ry="3.12" style="fill:#5d4340; stroke-width:0px;"/><ellipse cx="295.36" cy="210.01" rx="4.09" ry="3.06" style="fill:#5f4542; stroke-width:0px;"/><path d="m291.34,210.01c0-1.66,1.8-3.01,4.02-3.01s4.02,1.35,4.02,3.01-1.8,3.01-4.02,3.01-4.02-1.35-4.02-3.01Z" style="fill:#614742; stroke-width:0px;"/><path d="m291.41,210.01c0-1.63,1.77-2.96,3.94-2.96s3.94,1.32,3.94,2.96-1.77,2.96-3.94,2.96-3.94-1.32-3.94-2.96Z" style="fill:#634945; stroke-width:0px;"/><ellipse cx="295.36" cy="210.01" rx="3.87" ry="2.9" style="fill:#654b47; stroke-width:0px;"/><ellipse cx="295.36" cy="210.01" rx="3.8" ry="2.85" style="fill:#674c4a; stroke-width:0px;"/><path d="m291.63,210.01c0-1.54,1.67-2.8,3.73-2.8s3.73,1.25,3.73,2.8-1.67,2.8-3.73,2.8-3.73-1.25-3.73-2.8Z" style="fill:#694c4a; stroke-width:0px;"/><path d="m291.7,210.01c0-1.51,1.64-2.74,3.66-2.74s3.66,1.23,3.66,2.74-1.64,2.74-3.66,2.74-3.66-1.23-3.66-2.74Z" style="fill:#694e4d; stroke-width:0px;"/><ellipse cx="295.36" cy="210.01" rx="3.59" ry="2.69" style="fill:#6b504f; stroke-width:0px;"/><path d="m291.84,210.01c0-1.46,1.57-2.63,3.51-2.63s3.51,1.18,3.51,2.63-1.57,2.63-3.51,2.63-3.51-1.18-3.51-2.63Z" style="fill:#6d5252; stroke-width:0px;"/><path d="m291.91,210.01c0-1.43,1.54-2.58,3.44-2.58s3.44,1.16,3.44,2.58-1.54,2.58-3.44,2.58-3.44-1.16-3.44-2.58Z" style="fill:#6f5452; stroke-width:0px;"/><path d="m291.99,210.01c0-1.4,1.51-2.53,3.37-2.53s3.37,1.13,3.37,2.53-1.51,2.53-3.37,2.53-3.37-1.13-3.37-2.53Z" style="fill:#705655; stroke-width:0px;"/><ellipse cx="295.36" cy="210.01" rx="3.3" ry="2.47" style="fill:#725857; stroke-width:0px;"/><path d="m292.13,210.01c0-1.34,1.45-2.42,3.23-2.42s3.23,1.08,3.23,2.42-1.45,2.42-3.23,2.42-3.23-1.08-3.23-2.42Z" style="fill:#725a5a; stroke-width:0px;"/><path d="m292.2,210.01c0-1.31,1.41-2.37,3.16-2.37s3.16,1.06,3.16,2.37-1.41,2.37-3.16,2.37-3.16-1.06-3.16-2.37Z" style="fill:#745c5a; stroke-width:0px;"/><ellipse cx="295.36" cy="210.01" rx="3.08" ry="2.31" style="fill:#76605c; stroke-width:0px;"/><ellipse cx="295.36" cy="210.01" rx="3.01" ry="2.26" style="fill:#78625f; stroke-width:0px;"/><path d="m292.42,210.01c0-1.22,1.32-2.2,2.94-2.2s2.94.99,2.94,2.2-1.32,2.2-2.94,2.2-2.94-.99-2.94-2.2Z" style="fill:#7a645f; stroke-width:0px;"/><path d="m292.49,210.01c0-1.19,1.28-2.15,2.87-2.15s2.87.96,2.87,2.15-1.28,2.15-2.87,2.15-2.87-.96-2.87-2.15Z" style="fill:#7c6562; stroke-width:0px;"/><ellipse cx="295.36" cy="210.01" rx="2.8" ry="2.1" style="fill:#7e6764; stroke-width:0px;"/><ellipse cx="295.36" cy="210.01" rx="2.73" ry="2.04" style="fill:#806b67; stroke-width:0px;"/><path d="m292.7,210.01c0-1.1,1.19-1.99,2.65-1.99s2.65.89,2.65,1.99-1.19,1.99-2.65,1.99-2.65-.89-2.65-1.99Z" style="fill:#826d67; stroke-width:0px;"/><path d="m292.77,210.01c0-1.07,1.16-1.94,2.58-1.94s2.58.87,2.58,1.94-1.16,1.94-2.58,1.94-2.58-.87-2.58-1.94Z" style="fill:#846f6a; stroke-width:0px;"/><ellipse cx="295.36" cy="210.01" rx="2.51" ry="1.88" style="fill:#86716c; stroke-width:0px;"/><ellipse cx="295.36" cy="210.01" rx="2.44" ry="1.83" style="fill:#88736f; stroke-width:0px;"/><path d="m292.99,210.01c0-.98,1.06-1.77,2.37-1.77s2.37.79,2.37,1.77-1.06,1.77-2.37,1.77-2.37-.79-2.37-1.77Z" style="fill:#88756f; stroke-width:0px;"/><path d="m293.06,210.01c0-.95,1.03-1.72,2.29-1.72s2.3.77,2.3,1.72-1.03,1.72-2.3,1.72-2.29-.77-2.29-1.72Z" style="fill:#8a7771; stroke-width:0px;"/><path d="m293.13,210.01c0-.92,1-1.67,2.22-1.67s2.22.75,2.22,1.67-1,1.67-2.22,1.67-2.22-.75-2.22-1.67Z" style="fill:#8c7974; stroke-width:0px;"/><ellipse cx="295.36" cy="210.01" rx="2.15" ry="1.61" style="fill:#8e7b77; stroke-width:0px;"/><path d="m293.28,210.01c0-.86.93-1.56,2.08-1.56s2.08.7,2.08,1.56-.93,1.56-2.08,1.56-2.08-.7-2.08-1.56Z" style="fill:#907c77; stroke-width:0px;"/><path d="m293.35,210.01c0-.83.9-1.51,2.01-1.51s2.01.67,2.01,1.51-.9,1.51-2.01,1.51-2.01-.67-2.01-1.51Z" style="fill:#927e79; stroke-width:0px;"/><ellipse cx="295.36" cy="210.01" rx="1.94" ry="1.45" style="fill:#92807c; stroke-width:0px;"/><path d="m293.49,210.01c0-.77.84-1.4,1.86-1.4s1.87.63,1.87,1.4-.84,1.4-1.87,1.4-1.86-.63-1.86-1.4Z" style="fill:#94827e; stroke-width:0px;"/><path d="m293.56,210.01c0-.74.8-1.34,1.79-1.34s1.79.6,1.79,1.34-.8,1.34-1.79,1.34-1.79-.6-1.79-1.34Z" style="fill:#96847e; stroke-width:0px;"/><path d="m293.64,210.01c0-.71.77-1.29,1.72-1.29s1.72.58,1.72,1.29-.77,1.29-1.72,1.29-1.72-.58-1.72-1.29Z" style="fill:#988681; stroke-width:0px;"/><ellipse cx="295.36" cy="210.01" rx="1.65" ry="1.24" style="fill:#9a8884; stroke-width:0px;"/><path d="m293.78,210.01c0-.65.71-1.18,1.58-1.18s1.58.53,1.58,1.18-.71,1.18-1.58,1.18-1.58-.53-1.58-1.18Z" style="fill:#9c8a86; stroke-width:0px;"/><path d="m293.85,210.01c0-.62.67-1.13,1.51-1.13s1.51.51,1.51,1.13-.67,1.13-1.51,1.13-1.51-.51-1.51-1.13Z" style="fill:#9e8c86; stroke-width:0px;"/><ellipse cx="295.36" cy="210.01" rx="1.43" ry="1.08" style="fill:#a08e89; stroke-width:0px;"/><ellipse cx="295.36" cy="210.01" rx="1.36" ry="1.02" style="fill:#a2908c; stroke-width:0px;"/><path d="m294.07,210.01c0-.53.58-.97,1.29-.97s1.29.43,1.29.97-.58.97-1.29.97-1.29-.43-1.29-.97Z" style="fill:#a4928c; stroke-width:0px;"/><path d="m294.14,210.01c0-.5.55-.91,1.22-.91s1.22.41,1.22.91-.55.91-1.22.91-1.22-.41-1.22-.91Z" style="fill:#a6938e; stroke-width:0px;"/><ellipse cx="295.36" cy="210.01" rx="1.15" ry=".86" style="fill:#a89591; stroke-width:0px;"/><ellipse cx="295.36" cy="210.01" rx="1.08" ry=".81" style="fill:#a89793; stroke-width:0px;"/><path d="m294.35,210.01c0-.42.45-.75,1-.75s1,.34,1,.75-.45.75-1,.75-1-.34-1-.75Z" style="fill:#aa9993; stroke-width:0px;"/><path d="m294.42,210.01c0-.39.42-.7.93-.7s.93.31.93.7-.42.7-.93.7-.93-.31-.93-.7Z" style="fill:#ac9b96; stroke-width:0px;"/><path d="m294.5,210.01c0-.36.39-.65.86-.65s.86.29.86.65-.39.65-.86.65-.86-.29-.86-.65Z" style="fill:#ae9d99; stroke-width:0px;"/><ellipse cx="295.36" cy="210.01" rx=".79" ry=".59" style="fill:#b09f9b; stroke-width:0px;"/><path d="m294.64,210.01c0-.3.32-.54.72-.54s.72.24.72.54-.32.54-.72.54-.72-.24-.72-.54Z" style="fill:#b2a19e; stroke-width:0px;"/><path d="m294.71,210.01c0-.27.29-.48.65-.48s.65.22.65.48-.29.48-.65.48-.65-.22-.65-.48Z" style="fill:#b2a3a1; stroke-width:0px;"/><path d="m294.78,210.01c0-.24.26-.43.57-.43s.57.19.57.43-.26.43-.57.43-.57-.19-.57-.43Z" style="fill:#b4a5a3; stroke-width:0px;"/><path d="m294.85,210.01c0-.21.22-.38.5-.38s.5.17.5.38-.22.38-.5.38-.5-.17-.5-.38Z" style="fill:#b6a7a6; stroke-width:0px;"/><path d="m294.93,210.01c0-.18.19-.32.43-.32s.43.14.43.32-.19.32-.43.32-.43-.14-.43-.32Z" style="fill:#b8a9a6; stroke-width:0px;"/><path d="m295,210.01c0-.15.16-.27.36-.27s.36.12.36.27-.16.27-.36.27-.36-.12-.36-.27Z" style="fill:#baaba8; stroke-width:0px;"/><path d="m295.07,210.01c0-.12.13-.22.29-.22s.29.1.29.22-.13.22-.29.22-.29-.1-.29-.22Z" style="fill:#bcacab; stroke-width:0px;"/><path d="m295.14,210.01c0-.09.1-.16.22-.16s.22.07.22.16-.1.16-.22.16-.22-.07-.22-.16Z" style="fill:#beaeae; stroke-width:0px;"/><path d="m295.21,210.01c0-.06.06-.11.14-.11s.14.05.14.11-.06.11-.14.11-.14-.05-.14-.11Z" style="fill:#c0b0ae; stroke-width:0px;"/><path d="m295.28,210.01s.03-.05.07-.05.07.02.07.05-.03.05-.07.05-.07-.02-.07-.05Z" style="fill:#c2b2b0; stroke-width:0px;"/></g><polygon points="132.46 219.35 132.46 0 178 4.33 178 211.81 183.89 213.36 197.94 6.23 207.55 7.14 193.15 222.89 132.46 219.35" style="fill:url(#_Безымянный_градиент_244); fill-rule:evenodd; mix-blend-mode:multiply; opacity:.2; stroke-width:0px;"/><polygon points="335.44 19.68 330.77 230.92 382.55 233.94 382.55 23.78 335.44 19.68" style="fill:url(#_Безымянный_градиент_245); fill-rule:evenodd; mix-blend-mode:screen; opacity:.2; stroke-width:0px;"/><polygon points="311.72 17.05 316.88 231.82 330.77 230.92 321.24 18.4 311.72 17.05" style="fill:url(#_Безымянный_градиент_244-2); fill-rule:evenodd; mix-blend-mode:multiply; opacity:.2; stroke-width:0px;"/><polygon points="180.19 585.88 184.9 793.44 205.72 793.44 207.55 621.92 211.82 615.04 215.71 793.44 247.34 793.44 251.23 585.88 180.19 585.88" style="fill:url(#_Безымянный_градиент_244-3); fill-rule:evenodd; mix-blend-mode:multiply; opacity:.2; stroke-width:0px;"/><polygon points="321.17 588.03 321.17 794.47 378.88 793.44 381.49 588.94 371.48 588.77 371.48 787.33 364.08 787.33 360.02 588.62 321.17 588.03" style="fill:url(#_Безымянный_градиент_245-2); fill-rule:evenodd; mix-blend-mode:screen; opacity:.2; stroke-width:0px;"/><polygon points="172.97 793.44 157.99 585.88 152.44 585.31 168.72 794.47 172.97 793.44" style="fill:url(#_Безымянный_градиент_244-4); fill-rule:evenodd; mix-blend-mode:multiply; opacity:.2; stroke-width:0px;"/><polygon points="61.41 810.6 56.69 12.68 0 24.69 11.46 810.6 61.41 810.6" style="fill:url(#_Безымянный_градиент_245-3); fill-rule:evenodd; mix-blend-mode:screen; opacity:.2; stroke-width:0px;"/><polygon points="73.62 810.6 82.5 643.32 82.5 631.35 90.27 731.76 99.15 727.81 80.84 6.46 116.54 0 119.08 810.6 73.62 810.6" style="fill:url(#_Безымянный_градиент_244-5); fill-rule:evenodd; mix-blend-mode:multiply; opacity:.2; stroke-width:0px;"/><polygon points="132.46 368.91 132.46 245.3 143.04 245.3 144.35 369.31 132.46 368.91" style="fill:#f1ccb9; fill-rule:evenodd; stroke-width:0px;"/><polygon points="146.92 369.31 148.24 239.5 142.63 239.5 144.35 369.31 146.92 369.31" style="fill:#e79d6f; fill-rule:evenodd; stroke-width:0px;"/><polygon points="164.48 369.97 160.62 245.3 151.37 245.3 148.14 248.87 146.92 369.31 164.48 369.97" style="fill:#f1ccb9; fill-rule:evenodd; stroke-width:0px;"/><polygon points="151.37 245.3 155.7 369.64 146.92 369.31 148.15 247.89 151.37 245.3" style="fill:#ae6f8b; fill-rule:evenodd; stroke-width:0px;"/><polygon points="161.16 262.85 173.47 262.85 182.68 370.58 164.48 369.97 161.16 262.85" style="fill:url(#_Безымянный_градиент_116); fill-rule:evenodd; stroke-width:0px;"/><polygon points="161.16 262.85 169.5 370.32 164.48 369.97 161.16 262.85" style="fill:#392b6c; fill-rule:evenodd; stroke-width:0px;"/><polygon points="171.9 364.91 168.89 329.76 176.99 329.28 180.19 364.91 171.9 364.91" style="fill:#f1ccb9; fill-rule:evenodd; stroke-width:0px;"/></g></g></g></svg>